STARTFONT 2.1
COMMENT
COMMENT Converted from OpenType font "OpenSans-Regular.ttf" by "otf2bdf 3.0".
COMMENT
FONT -FreeType-Open Sans-Medium-R-Normal--77-560-100-100-P-374-ISO10646-1
SIZE 56 100 100
FONTBOUNDINGBOX 133 103 -40 -21
STARTPROPERTIES 19
FOUNDRY "FreeType"
FAMILY_NAME "Open Sans"
WEIGHT_NAME "Medium"
SLANT "R"
SETWIDTH_NAME "Normal"
ADD_STYLE_NAME ""
PIXEL_SIZE 77
POINT_SIZE 560
RESOLUTION_X 100
RESOLUTION_Y 100
SPACING "P"
AVERAGE_WIDTH 374
CHARSET_REGISTRY "ISO10646"
CHARSET_ENCODING "1"
FONT_ASCENT 83
FONT_DESCENT 22
COPYRIGHT "Copyright 2020 The Open Sans Project Authors (https://github.com/googlefonts/opensans)"
_OTF_FONTFILE "OpenSans-Regular.ttf"
_OTF_PSNAME "OpenSans-Regular"
ENDPROPERTIES
CHARS 1010
STARTCHAR 0000
ENCODING 0
SWIDTH 0 0
DWIDTH 0 0
BBX 0 0 0 0
BITMAP
ENDCHAR
STARTCHAR 000D
ENCODING 13
SWIDTH 257 0
DWIDTH 20 0
BBX 0 0 0 0
BITMAP
ENDCHAR
STARTCHAR 0020
ENCODING 32
SWIDTH 257 0
DWIDTH 20 0
BBX 0 0 0 0
BITMAP
ENDCHAR
STARTCHAR 0021
ENCODING 33
SWIDTH 257 0
DWIDTH 20 0
BBX 9 57 6 -1
BITMAP
FF00
7F00
7F00
7F00
7F00
7F00
7F00
7F00
7F00
7F00
7F00
7F00
7F00
7F00
7E00
7E00
7E00
7E00
7E00
7E00
7E00
7E00
7E00
7E00
3E00
3E00
3E00
3E00
3E00
3E00
3E00
3E00
3E00
3E00
3E00
3E00
3E00
3C00
3C00
3C00
3C00
0000
0000
0000
0000
0000
0000
3C00
7F00
FF00
FF80
FF80
FF80
FF80
FF00
7F00
3E00
ENDCHAR
STARTCHAR 0022
ENCODING 34
SWIDTH 385 0
DWIDTH 30 0
BBX 21 21 5 35
BITMAP
FE03F8
FE03F8
FE03F8
FE03F8
FE03F8
FE03F8
7E03F0
7C01F0
7C01F0
7C01F0
7C01F0
7C01F0
7C01F0
7C01F0
7C01F0
7C01F0
7C01F0
7C01F0
7C01F0
7C01F0
3C01E0
ENDCHAR
STARTCHAR 0023
ENCODING 35
SWIDTH 642 0
DWIDTH 50 0
BBX 46 56 2 0
BITMAP
00007E003E00
00007C003E00
00007C003E00
00007C003E00
00007C003E00
0000FC007C00
0000FC007C00
0000F8007C00
0000F8007C00
0000F8007C00
0000F800F800
0001F800F800
0001F000F800
0001F000F800
0001F000F800
0001F001F000
0003F001F000
1FFFFFFFFFFC
1FFFFFFFFFFC
1FFFFFFFFFFC
1FFFFFFFFFFC
1FFFFFFFFFFC
0007C003E000
0007C003E000
0007C003E000
0007C007E000
000FC007C000
000F8007C000
000F8007C000
000F8007C000
000F800FC000
001F800F8000
001F000F8000
001F000F8000
001F000F8000
FFFFFFFFFFF0
FFFFFFFFFFF0
FFFFFFFFFFF0
FFFFFFFFFFF0
FFFFFFFFFFF0
003E003F0000
003E003E0000
007E003E0000
007C003E0000
007C003E0000
007C007E0000
007C007C0000
00FC007C0000
00F8007C0000
00F8007C0000
00F8007C0000
00F800F80000
00F800F80000
01F000F80000
01F000F80000
01F000F80000
ENDCHAR
STARTCHAR 0024
ENCODING 36
SWIDTH 565 0
DWIDTH 44 0
BBX 35 64 5 -5
BITMAP
0001E00000
0001E00000
0001E00000
0001E00000
0001E00000
0001E00000
0001F00000
007FFFE000
01FFFFFE00
07FFFFFF80
0FFFFFFF00
1FFFFFFF00
3FF1E1FF00
7F81E00E00
7F01E00200
FE01E00000
FC01E00000
FC01E00000
FC01E00000
FC01E00000
FC01E00000
FC01E00000
FE01E00000
FF01E00000
7F81E00000
7FE1E00000
3FF9E00000
1FFFE00000
0FFFE00000
07FFFC0000
01FFFF8000
007FFFF000
000FFFF800
0001FFFE00
0001FFFF00
0001E3FF80
0001E0FF80
0001E03FC0
0001E01FC0
0001E00FE0
0001E00FE0
0001E00FE0
0001E007E0
0001E00FE0
0001E00FE0
0001E00FC0
0001E01FC0
8001E03FC0
F801E0FF80
FF81EFFF00
FFFFFFFE00
FFFFFFFC00
FFFFFFF800
7FFFFFE000
07FFFF0000
0003E00000
0001E00000
0001E00000
0001E00000
0001E00000
0001E00000
0001E00000
0001E00000
0001E00000
ENDCHAR
STARTCHAR 0025
ENCODING 37
SWIDTH 822 0
DWIDTH 64 0
BBX 56 57 4 -1
BITMAP
01FF0000007C00
07FF800000FC00
0FFFC00000F800
1FFFE00001F800
3FC7F00001F000
3F01F80003F000
7E01F80007E000
7E00F80007C000
7C00FC000FC000
7C007C000F8000
FC007C001F8000
FC007C001F0000
F8007C003F0000
F8007E003E0000
F8007E007E0000
F8007E00FC0000
F8007E00F80000
F8007E01F80000
F8007E01F00000
F8007E03F00000
F8007E03E00000
F8007C07E00000
FC007C07C07F00
FC007C0FC1FFE0
7C007C1F83FFF0
7C00FC1F07FFF8
7E00F83F0FFFF8
3E01F83E0FC0FC
3F01F87E1F807E
1F87F07C1F007E
1FFFF0FC1F003E
0FFFE0F83F003F
07FFC1F83E001F
03FF03F03E001F
001003E03E001F
000007E03E001F
000007C03E001F
00000FC03E001F
00000F803E001F
00001F803E001F
00001F003E001F
00003F003E001F
00007E003E001F
00007C003E001F
0000FC003E001F
0000F8003E001F
0001F8003F003F
0001F0003F003E
0003F0001F003E
0003E0001F807E
0007E0000F807C
000FC0000FC1FC
000F800007FFF8
001F800007FFF8
001F000003FFF0
003F000000FFC0
00000000003F00
ENDCHAR
STARTCHAR 0026
ENCODING 38
SWIDTH 720 0
DWIDTH 56 0
BBX 52 57 4 -1
BITMAP
0003FF80000000
001FFFF0000000
003FFFF8000000
007FFFFC000000
00FFFFFE000000
01FF01FF000000
03FC007F000000
03F8007F000000
03F0003F800000
03F0003F800000
03F0001F800000
07F0001F800000
03F0001F800000
03F0003F800000
03F0003F800000
03F0003F000000
03F8007F000000
01FC00FE000000
01FC01FE000000
00FE03FC000000
007F07F8000000
007F9FF0000000
003FFFE0000000
001FFFC0000000
000FFF00000000
000FFE00000000
003FFC00000000
007FFE00000000
01FFFF00001F80
03FF7F80003F80
07FC3FC0003F80
0FF81FE0003F00
1FE00FF0007F00
3FC007F8007F00
3F8003FC007E00
7F0001FE00FE00
7F0000FF00FC00
7E00007F81FC00
FE00003FC1FC00
FE00001FE3F800
FE00000FF7F000
FE000007FFF000
FE000003FFE000
FE000001FFC000
FE000000FFC000
7F0000007FC000
7F000001FFE000
7F800003FFF000
3FC0000FFFF800
3FE0001FFFFC00
1FF800FFE3FE00
0FFFFFFFC1FF00
0FFFFFFF80FF80
03FFFFFE007FC0
01FFFFF8003FE0
003FFFE0001FF0
0001FC00000000
ENDCHAR
STARTCHAR 0027
ENCODING 39
SWIDTH 218 0
DWIDTH 17 0
BBX 7 21 5 35
BITMAP
FE
FE
FE
FE
FE
FE
7E
7C
7C
7C
7C
7C
7C
7C
7C
7C
7C
7C
7C
7C
3C
ENDCHAR
STARTCHAR 0028
ENCODING 40
SWIDTH 282 0
DWIDTH 22 0
BBX 18 68 3 -12
BITMAP
000FC0
001F80
003F00
007E00
007E00
00FC00
01FC00
01F800
03F800
03F000
07F000
07E000
0FE000
0FC000
0FC000
1FC000
1F8000
3F8000
3F8000
3F0000
3F0000
7F0000
7F0000
7F0000
7E0000
7E0000
7E0000
FE0000
FE0000
FE0000
FE0000
FE0000
FE0000
FE0000
FE0000
FE0000
FE0000
FE0000
FE0000
FE0000
FE0000
FE0000
7E0000
7E0000
7E0000
7F0000
7F0000
7F0000
3F0000
3F0000
3F8000
3F8000
1F8000
1FC000
1FC000
0FC000
0FE000
07E000
07F000
03F000
03F800
01F800
01FC00
00FC00
007E00
007F00
003F00
001F80
ENDCHAR
STARTCHAR 0029
ENCODING 41
SWIDTH 282 0
DWIDTH 22 0
BBX 18 68 2 -12
BITMAP
FC0000
7E0000
3F0000
3F8000
1F8000
0FC000
0FE000
07E000
07F000
03F000
03F800
01F800
01FC00
00FC00
00FC00
00FE00
007E00
007E00
007F00
003F00
003F00
003F00
003F80
003F80
001F80
001F80
001F80
001F80
001FC0
001FC0
001FC0
001FC0
001FC0
001FC0
001FC0
001FC0
001FC0
001FC0
001FC0
001FC0
001FC0
001F80
001F80
001F80
001F80
003F80
003F80
003F00
003F00
007F00
007F00
007E00
007E00
00FE00
00FC00
00FC00
01FC00
01F800
03F800
03F000
07F000
07E000
0FE000
0FC000
1F8000
3F8000
3F0000
7E0000
ENDCHAR
STARTCHAR 002A
ENCODING 42
SWIDTH 540 0
DWIDTH 42 0
BBX 36 34 3 25
BITMAP
0001FC0000
0001FC0000
0001F80000
0001F80000
0001F80000
0001F80000
0001F80000
0001F80000
0000F80000
0000F80000
0000F80000
7800F800E0
7F00F807F0
7FE0F07FF0
7FFEF3FFF0
7FFFFFFFF0
FFFFFFFFF0
3FFFFFFFC0
000FFF0000
0003FE0000
0007FE0000
0007FF0000
000F9F8000
001F9FC000
003F8FC000
003F0FE000
007F07F000
00FE07F800
01FE03F800
01FC03FC00
03FC01FE00
03F800FC00
00F800F800
0030006000
ENDCHAR
STARTCHAR 002B
ENCODING 43
SWIDTH 565 0
DWIDTH 44 0
BBX 36 37 4 9
BITMAP
0000F80000
0000F80000
0000F80000
0000F80000
0000F80000
0000F80000
0000F80000
0000F80000
0000F80000
0000F80000
0000F80000
0000F80000
0000F80000
0000F80000
0000F80000
0000F80000
FFFFFFFFF0
FFFFFFFFF0
FFFFFFFFF0
FFFFFFFFF0
FFFFFFFFF0
0000F80000
0000F80000
0000F80000
0000F80000
0000F80000
0000F80000
0000F80000
0000F80000
0000F80000
0000F80000
0000F80000
0000F80000
0000F80000
0000F80000
0000F80000
0000F80000
ENDCHAR
STARTCHAR 002C
ENCODING 44
SWIDTH 257 0
DWIDTH 20 0
BBX 11 19 3 -10
BITMAP
0FE0
0FE0
0FE0
0FE0
1FC0
1FC0
1FC0
1F80
1F80
3F80
3F00
3F00
3F00
7E00
7E00
7C00
7C00
7C00
F800
ENDCHAR
STARTCHAR 002D
ENCODING 45
SWIDTH 321 0
DWIDTH 25 0
BBX 19 6 3 18
BITMAP
FFFFE0
FFFFE0
FFFFE0
FFFFE0
FFFFE0
FFFFE0
ENDCHAR
STARTCHAR 002E
ENCODING 46
SWIDTH 257 0
DWIDTH 20 0
BBX 9 10 6 -1
BITMAP
3C00
7F00
FF00
FF80
FF80
FF80
FF80
FF00
7F00
3C00
ENDCHAR
STARTCHAR 002F
ENCODING 47
SWIDTH 360 0
DWIDTH 28 0
BBX 27 56 1 0
BITMAP
00000FE0
00000FC0
00000FC0
00001FC0
00001F80
00001F80
00003F00
00003F00
00007F00
00007E00
00007E00
0000FE00
0000FC00
0000FC00
0001F800
0001F800
0001F800
0003F000
0003F000
0007F000
0007E000
0007E000
000FE000
000FC000
000FC000
001F8000
001F8000
003F8000
003F0000
003F0000
007F0000
007E0000
007E0000
00FC0000
00FC0000
01FC0000
01F80000
01F80000
03F80000
03F00000
03F00000
07E00000
07E00000
0FE00000
0FC00000
0FC00000
1FC00000
1F800000
1F800000
3F000000
3F000000
7F000000
7E000000
7E000000
FE000000
FC000000
ENDCHAR
STARTCHAR 0030
ENCODING 48
SWIDTH 565 0
DWIDTH 44 0
BBX 37 57 4 -1
BITMAP
000FFF0000
003FFFC000
00FFFFF000
01FFFFF800
03FFFFFC00
07FE07FE00
0FF800FF00
0FE0007F00
1FC0003F80
1FC0001F80
3F80001FC0
3F80000FC0
3F00000FC0
3F00000FE0
7F000007E0
7E000007E0
7E000007E0
7E000007F0
7E000003F0
FE000003F0
FE000003F0
FE000003F0
FC000003F0
FC000003F0
FC000003F0
FC000003F0
FC000003F8
FC000003F8
FC000003F8
FC000003F8
FC000003F0
FC000003F0
FC000003F0
FC000003F0
FC000003F0
FE000003F0
FE000003F0
7E000003F0
7E000007F0
7E000007F0
7E000007E0
7F000007E0
3F000007E0
3F00000FE0
3F00000FC0
1F80001FC0
1F80001FC0
1FC0003F80
0FE0007F80
07F000FF00
07FC01FE00
03FFFFFE00
01FFFFFC00
00FFFFF800
007FFFE000
001FFF8000
0001F80000
ENDCHAR
STARTCHAR 0031
ENCODING 49
SWIDTH 565 0
DWIDTH 44 0
BBX 20 56 7 0
BITMAP
0001F0
0003F0
000FF0
001FF0
003FF0
007FF0
01FFF0
03FFF0
07FBF0
1FF3F0
3FE3F0
7F83F0
FF03F0
7E03F0
3C03F0
1003F0
0003F0
0003F0
0003F0
0003F0
0003F0
0003F0
0003F0
0003F0
0003F0
0003F0
0003F0
0003F0
0003F0
0003F0
0003F0
0003F0
0003F0
0003F0
0003F0
0003F0
0003F0
0003F0
0003F0
0003F0
0003F0
0003F0
0003F0
0003F0
0003F0
0003F0
0003F0
0003F0
0003F0
0003F0
0003F0
0003F0
0003F0
0003F0
0003F0
0003F0
ENDCHAR
STARTCHAR 0032
ENCODING 50
SWIDTH 565 0
DWIDTH 44 0
BBX 36 56 4 0
BITMAP
001FFF0000
00FFFFC000
03FFFFF000
0FFFFFF800
1FFFFFFC00
7FF80FFE00
7FC001FF00
3F00007F00
3E00007F80
1800003F80
0000001F80
0000001FC0
0000001FC0
0000001FC0
0000001FC0
0000001FC0
0000001FC0
0000001FC0
0000001FC0
0000001F80
0000003F80
0000003F80
0000003F00
0000007F00
000000FE00
000000FE00
000001FC00
000003F800
000007F800
000007F000
00000FE000
00001FC000
00003F8000
00007F0000
0000FE0000
0001FC0000
0003F80000
0007F00000
000FE00000
001FC00000
003F800000
007F000000
00FE000000
01FC000000
03F8000000
07F0000000
0FE0000000
1FC0000000
3F80000000
7F00000000
FFFFFFFFF0
FFFFFFFFF0
FFFFFFFFF0
FFFFFFFFF0
FFFFFFFFF0
FFFFFFFFF0
ENDCHAR
STARTCHAR 0033
ENCODING 51
SWIDTH 565 0
DWIDTH 44 0
BBX 37 57 3 -1
BITMAP
001FFF8000
00FFFFF000
03FFFFFC00
0FFFFFFE00
3FFFFFFF00
7FFC03FF80
3FC0007F80
3F00003FC0
1C00001FC0
0000000FE0
0000000FE0
0000000FE0
00000007E0
00000007E0
00000007E0
00000007E0
0000000FE0
0000000FE0
0000000FC0
0000001FC0
0000003F80
0000007F80
000000FF00
000003FE00
0000FFF800
007FFFF000
007FFF8000
007FFFC000
007FFFF800
007FFFFE00
00000FFF80
000000FFC0
0000003FE0
0000000FE0
0000000FF0
00000007F0
00000003F0
00000003F8
00000003F8
00000003F8
00000003F8
00000003F8
00000003F8
00000003F8
00000007F0
00000007F0
0000000FF0
0000000FE0
C000001FE0
F800007FC0
FF0001FF80
FFFFFFFF80
FFFFFFFE00
FFFFFFFC00
3FFFFFF000
07FFFF8000
003FF00000
ENDCHAR
STARTCHAR 0034
ENCODING 52
SWIDTH 565 0
DWIDTH 44 0
BBX 41 56 2 0
BITMAP
0000003F8000
0000007F8000
000000FF8000
000000FF8000
000001FF8000
000003FF8000
000003FF8000
000007DF8000
00000FDF8000
00000F9F8000
00001F9F8000
00003F1F8000
00007F1F8000
00007E1F8000
0000FC1F8000
0001F81F8000
0001F81F8000
0003F01F8000
0007E01F8000
0007E01F8000
000FC01F8000
001F801F8000
003F001F8000
003F001F8000
007E001F8000
00FC001F8000
00FC001F8000
01F8001F8000
03F0001F8000
07F0001F8000
07E0001F8000
0FC0001F8000
1F80001F8000
1F80001F8000
3F00001F8000
7E00001F8000
7E00001F8000
FFFFFFFFFF80
FFFFFFFFFF80
FFFFFFFFFF80
FFFFFFFFFF80
FFFFFFFFFF80
FFFFFFFFFF80
0000001F8000
0000001F8000
0000001F8000
0000001F8000
0000001F8000
0000001F8000
0000001F8000
0000001F8000
0000001F8000
0000001F8000
0000001F8000
0000001F8000
0000001F8000
ENDCHAR
STARTCHAR 0035
ENCODING 53
SWIDTH 565 0
DWIDTH 44 0
BBX 35 57 5 -1
BITMAP
1FFFFFFE00
1FFFFFFE00
1FFFFFFE00
1FFFFFFE00
1FFFFFFE00
1FFFFFFE00
1F80000000
1F80000000
1F80000000
1F80000000
1F80000000
1F00000000
1F00000000
3F00000000
3F00000000
3F00000000
3F00000000
3F00000000
3F00000000
3F00000000
3F00000000
3F00000000
3F3FFC0000
3FFFFF8000
3FFFFFE000
7FFFFFF800
7FFFFFFC00
1FF8FFFE00
080003FF00
000000FF80
0000007F80
0000003FC0
0000001FC0
0000001FC0
0000000FE0
0000000FE0
0000000FE0
0000000FE0
0000000FE0
0000000FE0
0000000FE0
0000000FE0
0000000FE0
0000000FC0
0000001FC0
0000001FC0
0000003F80
0000007F80
800000FF00
F00001FF00
FE000FFE00
FFFFFFFC00
FFFFFFF800
FFFFFFE000
7FFFFFC000
0FFFFE0000
007FC00000
ENDCHAR
STARTCHAR 0036
ENCODING 54
SWIDTH 565 0
DWIDTH 44 0
BBX 37 57 4 -1
BITMAP
00003FFF80
0001FFFF80
0007FFFF80
001FFFFF80
003FFFFF80
007FF00180
00FF800000
01FE000000
03FC000000
03F8000000
07F0000000
0FE0000000
0FC0000000
1FC0000000
1F80000000
1F80000000
3F80000000
3F00000000
3F00000000
3F00000000
7F00000000
7E003C0000
7E03FFE000
7E0FFFF800
7E3FFFFE00
7E7FFFFF00
7EFFC3FF80
7EFC007FC0
FFF0001FC0
FFC0000FE0
FF80000FE0
FF800007F0
FF000007F0
FE000003F0
FE000003F0
FE000003F8
7E000003F8
7E000003F8
7E000003F8
7E000003F8
7E000003F8
7E000003F8
3F000003F0
3F000003F0
3F800003F0
1F800007F0
1FC00007E0
0FE0000FE0
0FE0001FC0
07F8003FC0
03FC00FF80
01FFFFFF00
00FFFFFE00
007FFFFC00
003FFFF800
000FFFC000
00007C0000
ENDCHAR
STARTCHAR 0037
ENCODING 55
SWIDTH 565 0
DWIDTH 44 0
BBX 37 56 4 0
BITMAP
FFFFFFFFF8
FFFFFFFFF8
FFFFFFFFF8
FFFFFFFFF8
FFFFFFFFF8
FFFFFFFFF0
00000003F0
00000007F0
00000007E0
0000000FE0
0000000FC0
0000001FC0
0000001F80
0000003F80
0000003F00
0000003F00
0000007F00
0000007E00
000000FE00
000000FC00
000001FC00
000001F800
000003F800
000003F000
000007F000
000007F000
000007E000
00000FE000
00000FC000
00001FC000
00001F8000
00003F8000
00003F0000
00007F0000
00007F0000
0000FE0000
0000FE0000
0001FC0000
0001FC0000
0001F80000
0003F80000
0003F00000
0007F00000
0007F00000
000FE00000
000FE00000
001FC00000
001FC00000
003F800000
003F800000
003F000000
007F000000
007E000000
00FE000000
00FE000000
01FC000000
ENDCHAR
STARTCHAR 0038
ENCODING 56
SWIDTH 565 0
DWIDTH 44 0
BBX 36 57 4 -1
BITMAP
000FFF8000
007FFFE000
01FFFFF800
03FFFFFE00
07FFFFFF00
0FFC01FF00
1FF0007F80
1FC0003FC0
3F80001FC0
3F80000FC0
3F00000FC0
3F00000FE0
3F00000FE0
3F00000FE0
3F00000FE0
3F00000FC0
3F00000FC0
3F80001FC0
1FC0001F80
1FE0003F80
0FF0007F00
07F801FE00
03FE03FC00
01FF8FF800
00FFFFE000
007FFFC000
001FFF0000
003FFFC000
007FFFF000
01FFFFF800
03FE0FFE00
07F803FF00
0FE000FF80
1FC0007FC0
3F80001FC0
7F00000FE0
7F000007E0
7E000007F0
FE000003F0
FC000003F0
FC000003F0
FC000003F0
FC000003F0
FC000003F0
FC000003F0
FE000003F0
FE000007F0
7F00000FE0
7F80000FE0
3FC0003FC0
3FF0007FC0
1FFE07FF80
0FFFFFFF00
03FFFFFC00
01FFFFF800
003FFFE000
0001F80000
ENDCHAR
STARTCHAR 0039
ENCODING 57
SWIDTH 565 0
DWIDTH 44 0
BBX 36 57 4 -1
BITMAP
000FFE0000
007FFFC000
01FFFFE000
03FFFFF800
07FFFFFC00
0FFC07FE00
1FF001FE00
1FC0007F00
3F80003F80
3F00001F80
7F00001FC0
7E00000FC0
7E00000FE0
FE000007E0
FE000007E0
FC000007E0
FC000003F0
FC000003F0
FC000003F0
FC000003F0
FC000003F0
FC000003F0
FE000007F0
FE000007F0
7E00000FF0
7F00000FF0
7F80001FF0
3F80003FF0
1FE000FBF0
1FF803FBF0
0FFFFFF3F0
07FFFFE3F0
03FFFF83F0
00FFFF07F0
001FF807F0
00000007E0
00000007E0
00000007E0
0000000FE0
0000000FC0
0000000FC0
0000001FC0
0000001F80
0000003F80
0000003F00
0000007F00
000000FE00
000001FE00
000003FC00
000007F800
00003FF000
0FC7FFE000
0FFFFFC000
0FFFFF8000
0FFFFE0000
0FFFF00000
01FE000000
ENDCHAR
STARTCHAR 003A
ENCODING 58
SWIDTH 257 0
DWIDTH 20 0
BBX 9 44 6 -1
BITMAP
1800
7E00
FF00
FF80
FF80
FF80
FF80
FF00
FF00
7E00
0000
0000
0000
0000
0000
0000
0000
0000
0000
0000
0000
0000
0000
0000
0000
0000
0000
0000
0000
0000
0000
0000
0000
0000
3C00
7F00
FF00
FF80
FF80
FF80
FF80
FF00
7F00
3C00
ENDCHAR
STARTCHAR 003B
ENCODING 59
SWIDTH 257 0
DWIDTH 20 0
BBX 12 53 3 -10
BITMAP
0300
0FC0
1FE0
1FE0
1FF0
1FF0
1FF0
1FE0
1FE0
0FC0
0000
0000
0000
0000
0000
0000
0000
0000
0000
0000
0000
0000
0000
0000
0000
0000
0000
0000
0000
0000
0000
0000
0000
0000
1FE0
1FE0
1FC0
1FC0
1FC0
1F80
3F80
3F80
3F00
3F00
7F00
7E00
7E00
7E00
7C00
FC00
F800
F800
F000
ENDCHAR
STARTCHAR 003C
ENCODING 60
SWIDTH 565 0
DWIDTH 44 0
BBX 36 37 4 9
BITMAP
0000000010
0000000070
00000001F0
00000007F0
0000001FF0
0000007FF0
000001FFC0
000007FF00
00001FFC00
00007FF000
0001FFC000
0007FF0000
001FFC0000
007FF00000
01FF800000
07FE000000
1FF8000000
7FE0000000
FF80000000
FE00000000
FF80000000
FFE0000000
3FFC000000
0FFF000000
03FFC00000
007FF80000
001FFE0000
0007FF8000
0001FFF000
00003FFC00
00000FFF00
000003FFE0
0000007FF0
0000001FF0
00000007F0
00000001F0
0000000030
ENDCHAR
STARTCHAR 003D
ENCODING 61
SWIDTH 565 0
DWIDTH 44 0
BBX 36 21 4 17
BITMAP
FFFFFFFFF0
FFFFFFFFF0
FFFFFFFFF0
FFFFFFFFF0
FFFFFFFFF0
0000000000
0000000000
0000000000
0000000000
0000000000
0000000000
0000000000
0000000000
0000000000
0000000000
0000000000
FFFFFFFFF0
FFFFFFFFF0
FFFFFFFFF0
FFFFFFFFF0
FFFFFFFFF0
ENDCHAR
STARTCHAR 003E
ENCODING 62
SWIDTH 565 0
DWIDTH 44 0
BBX 36 38 4 9
BITMAP
8000000000
E000000000
F800000000
FE00000000
FF80000000
FFE0000000
3FF8000000
0FFE000000
03FF800000
00FFE00000
003FF80000
000FFE0000
0001FF8000
00007FE000
00001FF800
000007FE00
000001FF80
0000007FE0
0000001FF0
00000007F0
0000000FF0
0000007FF0
000001FFC0
00000FFF00
00003FFC00
0000FFF000
0007FF8000
001FFE0000
007FF80000
03FFE00000
0FFF000000
3FFC000000
FFF0000000
FFC0000000
FE00000000
F800000000
E000000000
8000000000
ENDCHAR
STARTCHAR 003F
ENCODING 63
SWIDTH 424 0
DWIDTH 33 0
BBX 30 57 1 -1
BITMAP
00FFF800
0FFFFF00
3FFFFF80
FFFFFFE0
7FFFFFF0
7FE03FF0
3E0007F8
380003F8
000001FC
000000FC
000000FC
000000FC
000000FC
000000FC
000000FC
000000FC
000000FC
000000FC
000001FC
000001F8
000003F8
000007F0
00000FE0
00001FC0
00007F80
0000FF00
0001FE00
0003FC00
0007F800
000FF000
000FE000
001FC000
001F8000
003F0000
003F0000
003E0000
003E0000
003E0000
003E0000
003E0000
003E0000
00000000
00000000
00000000
00000000
00000000
00000000
001E0000
007F0000
007F8000
00FF8000
00FF8000
00FF8000
00FF8000
007F8000
007F0000
003E0000
ENDCHAR
STARTCHAR 0040
ENCODING 64
SWIDTH 887 0
DWIDTH 69 0
BBX 61 62 4 -7
BITMAP
0000007FFFC00000
000007FFFFF80000
00001FFFFFFE0000
00007FFFFFFF8000
0001FFFC0FFFC000
0007FF00007FF000
000FF800000FF800
001FE0000003FC00
003F80000000FE00
007F000000007F00
00FE000000003F00
01FC000000001F80
03F8000000000FC0
03F0000000000FC0
07E00000000007E0
07C0001FFF0003E0
0FC0007FFFF003F0
0F8001FFFFF001F0
1F8003FFFFF001F0
1F0007FE0FF001F0
3F000FE001F001F8
3E001FC001F000F8
3E003F8003F000F8
3E003F0003F000F8
7E007E0003F000F8
7C007E0003F000F8
7C007E0003F000F8
7C00FC0003F000F8
7C00FC0003F000F8
7C00FC0003F000F8
7C00FC0003F000F8
FC00FC0003E000F8
FC00FC0003E000F8
FC00FC0003E000F8
FC00FC0007E001F0
7C00FC0007E001F0
7C00FC0007E001F0
7C007C000FF003E0
7C007E000FF003E0
7C007F001FF007E0
7C003F803EF80FC0
7E003FC0FCFC1F80
3E001FFFFC7FFF80
3E000FFFF87FFF00
3F0007FFE03FFC00
3F0001FFC00FF800
1F80000C00000000
1F80000000000000
0FC0000000000000
0FE0000000000000
07E0000000000000
03F0000000000000
03FC000000000000
01FE000000000000
00FF8000000C0000
007FE000007C0000
001FFC0007FC0000
000FFFFFFFFC0000
0003FFFFFFFC0000
0000FFFFFFF00000
00003FFFFF800000
000001FFF8000000
ENDCHAR
STARTCHAR 0041
ENCODING 65
SWIDTH 630 0
DWIDTH 49 0
BBX 49 56 0 0
BITMAP
000003F0000000
000007F0000000
000007F0000000
00000FF8000000
00000FF8000000
00000FFC000000
00001FFC000000
00001F7C000000
00003F7E000000
00003F7E000000
00003F3F000000
00007E3F000000
00007E3F000000
00007E1F800000
0000FC1F800000
0000FC1F800000
0001FC0FC00000
0001F80FC00000
0001F80FE00000
0003F007E00000
0003F007E00000
0007F003F00000
0007E003F00000
0007E003F80000
000FE001F80000
000FC001F80000
001FC001FC0000
001F8000FC0000
001F8000FC0000
003F8000FE0000
003F00007E0000
003F00007F0000
007F00003F0000
007FFFFFFF0000
00FFFFFFFF8000
00FFFFFFFF8000
00FFFFFFFFC000
01FFFFFFFFC000
01F800000FC000
03F800000FE000
03F800000FE000
03F0000007F000
07F0000007F000
07E0000003F000
0FE0000003F800
0FE0000003F800
0FC0000001F800
1FC0000001FC00
1F80000000FC00
1F80000000FE00
3F80000000FE00
3F000000007E00
7F000000007F00
7F000000007F00
7E000000003F80
FE000000003F80
ENDCHAR
STARTCHAR 0042
ENCODING 66
SWIDTH 642 0
DWIDTH 50 0
BBX 38 56 8 0
BITMAP
FFFF000000
FFFFFFC000
FFFFFFF800
FFFFFFFE00
FFFFFFFF00
FFFFFFFF80
FC0003FFC0
FC00007FE0
FC00001FE0
FC00000FF0
FC00000FF0
FC000007F0
FC000007F0
FC000007F0
FC000007F0
FC000007F0
FC000007F0
FC000007F0
FC000007F0
FC000007E0
FC00000FE0
FC00001FC0
FC00003F80
FC0001FF00
FFFFFFFE00
FFFFFFF800
FFFFFFC000
FFFFFFF000
FFFFFFFE00
FFFFFFFF80
FC0000FFC0
FC00001FE0
FC00000FF0
FC000007F8
FC000003F8
FC000003F8
FC000001FC
FC000001FC
FC000001FC
FC000001FC
FC000001FC
FC000001FC
FC000001FC
FC000001FC
FC000003FC
FC000003F8
FC000007F8
FC00000FF0
FC00001FF0
FC00007FE0
FFFFFFFFC0
FFFFFFFF80
FFFFFFFF00
FFFFFFFE00
FFFFFFF000
FFFFFF0000
ENDCHAR
STARTCHAR 0043
ENCODING 67
SWIDTH 630 0
DWIDTH 49 0
BBX 41 57 5 -1
BITMAP
00001FFFE000
0000FFFFFC00
0007FFFFFF80
000FFFFFFF80
003FFFFFFF80
007FFF8FFF00
00FFE0003F00
01FF80000600
03FE00000000
07FC00000000
0FF800000000
0FF000000000
1FE000000000
1FC000000000
3FC000000000
3F8000000000
3F8000000000
7F0000000000
7F0000000000
7F0000000000
FE0000000000
FE0000000000
FE0000000000
FE0000000000
FE0000000000
FE0000000000
FE0000000000
FE0000000000
FE0000000000
FE0000000000
FE0000000000
FE0000000000
FE0000000000
FE0000000000
FE0000000000
FE0000000000
FE0000000000
7F0000000000
7F0000000000
7F0000000000
7F8000000000
3F8000000000
3FC000000000
1FC000000000
1FE000000000
0FF000000000
0FF800000000
07FC00000000
03FF00000000
01FFC0000700
01FFF8007F00
007FFFFFFF00
003FFFFFFF00
001FFFFFFF00
0007FFFFFF00
0000FFFFF800
000007FE0000
ENDCHAR
STARTCHAR 0044
ENCODING 68
SWIDTH 720 0
DWIDTH 56 0
BBX 44 56 8 0
BITMAP
FFFF80000000
FFFFFF800000
FFFFFFF80000
FFFFFFFE0000
FFFFFFFF8000
FFFFFFFFC000
FC0007FFE000
FC00007FF000
FC00001FF800
FC000007FC00
FC000003FE00
FC000001FF00
FC000000FF00
FC0000007F80
FC0000003F80
FC0000003FC0
FC0000001FC0
FC0000001FC0
FC0000000FE0
FC0000000FE0
FC0000000FE0
FC0000000FE0
FC0000000FE0
FC00000007E0
FC00000007F0
FC00000007F0
FC00000007F0
FC00000007F0
FC00000007F0
FC00000007F0
FC00000007F0
FC00000007F0
FC00000007E0
FC0000000FE0
FC0000000FE0
FC0000000FE0
FC0000000FE0
FC0000000FE0
FC0000001FC0
FC0000001FC0
FC0000003FC0
FC0000003F80
FC0000007F80
FC000000FF00
FC000001FF00
FC000003FE00
FC000007FC00
FC00000FF800
FC00007FF800
FC0003FFE000
FFFFFFFFC000
FFFFFFFF8000
FFFFFFFE0000
FFFFFFF80000
FFFFFFC00000
FFFFF8000000
ENDCHAR
STARTCHAR 0045
ENCODING 69
SWIDTH 552 0
DWIDTH 43 0
BBX 31 56 8 0
BITMAP
FFFFFFFE
FFFFFFFE
FFFFFFFE
FFFFFFFE
FFFFFFFE
FFFFFFFE
FC000000
FC000000
FC000000
FC000000
FC000000
FC000000
FC000000
FC000000
FC000000
FC000000
FC000000
FC000000
FC000000
FC000000
FC000000
FC000000
FC000000
FC000000
FFFFFFF8
FFFFFFF8
FFFFFFF8
FFFFFFF8
FFFFFFF8
FFFFFFF8
FC000000
FC000000
FC000000
FC000000
FC000000
FC000000
FC000000
FC000000
FC000000
FC000000
FC000000
FC000000
FC000000
FC000000
FC000000
FC000000
FC000000
FC000000
FC000000
FC000000
FFFFFFFE
FFFFFFFE
FFFFFFFE
FFFFFFFE
FFFFFFFE
FFFFFFFE
ENDCHAR
STARTCHAR 0046
ENCODING 70
SWIDTH 514 0
DWIDTH 40 0
BBX 31 56 8 0
BITMAP
FFFFFFFE
FFFFFFFE
FFFFFFFE
FFFFFFFE
FFFFFFFE
FFFFFFFE
FC000000
FC000000
FC000000
FC000000
FC000000
FC000000
FC000000
FC000000
FC000000
FC000000
FC000000
FC000000
FC000000
FC000000
FC000000
FC000000
FC000000
FC000000
FC000000
FC000000
FC000000
FFFFFFF8
FFFFFFF8
FFFFFFF8
FFFFFFF8
FFFFFFF8
FC000000
FC000000
FC000000
FC000000
FC000000
FC000000
FC000000
FC000000
FC000000
FC000000
FC000000
FC000000
FC000000
FC000000
FC000000
FC000000
FC000000
FC000000
FC000000
FC000000
FC000000
FC000000
FC000000
FC000000
ENDCHAR
STARTCHAR 0047
ENCODING 71
SWIDTH 720 0
DWIDTH 56 0
BBX 46 57 5 -1
BITMAP
00000FFFF800
00007FFFFF80
0003FFFFFFF0
0007FFFFFFF8
001FFFFFFFF0
003FFF81FFF0
00FFF0000FE0
01FFC00000E0
03FF00000020
03FC00000000
07F800000000
0FF000000000
0FE000000000
1FE000000000
3FC000000000
3F8000000000
3F8000000000
7F0000000000
7F0000000000
7F0000000000
7E0000000000
FE0000000000
FE0000000000
FE0000000000
FE0000000000
FE0000000000
FE0000000000
FC00003FFFFC
FC00003FFFFC
FC00003FFFFC
FE00003FFFFC
FE00003FFFFC
FE00003FFFFC
FE00000001FC
FE00000001FC
FE00000001FC
7E00000001FC
7F00000001FC
7F00000001FC
7F00000001FC
3F80000001FC
3F80000001FC
3FC0000001FC
1FC0000001FC
1FE0000001FC
0FF0000001FC
07F8000001FC
07FC000001FC
03FF000001FC
01FFC00001FC
00FFF8000FFC
007FFFFFFFFC
001FFFFFFFFC
000FFFFFFFFC
0003FFFFFFF0
00007FFFFF00
000003FF8000
ENDCHAR
STARTCHAR 0048
ENCODING 72
SWIDTH 732 0
DWIDTH 57 0
BBX 42 56 8 0
BITMAP
FC0000001FC0
FC0000001FC0
FC0000001FC0
FC0000001FC0
FC0000001FC0
FC0000001FC0
FC0000001FC0
FC0000001FC0
FC0000001FC0
FC0000001FC0
FC0000001FC0
FC0000001FC0
FC0000001FC0
FC0000001FC0
FC0000001FC0
FC0000001FC0
FC0000001FC0
FC0000001FC0
FC0000001FC0
FC0000001FC0
FC0000001FC0
FC0000001FC0
FC0000001FC0
FC0000001FC0
FFFFFFFFFFC0
FFFFFFFFFFC0
FFFFFFFFFFC0
FFFFFFFFFFC0
FFFFFFFFFFC0
FFFFFFFFFFC0
FC0000001FC0
FC0000001FC0
FC0000001FC0
FC0000001FC0
FC0000001FC0
FC0000001FC0
FC0000001FC0
FC0000001FC0
FC0000001FC0
FC0000001FC0
FC0000001FC0
FC0000001FC0
FC0000001FC0
FC0000001FC0
FC0000001FC0
FC0000001FC0
FC0000001FC0
FC0000001FC0
FC0000001FC0
FC0000001FC0
FC0000001FC0
FC0000001FC0
FC0000001FC0
FC0000001FC0
FC0000001FC0
FC0000001FC0
ENDCHAR
STARTCHAR 0049
ENCODING 73
SWIDTH 270 0
DWIDTH 21 0
BBX 6 56 8 0
BITMAP
FC
FC
FC
FC
FC
FC
FC
FC
FC
FC
FC
FC
FC
FC
FC
FC
FC
FC
FC
FC
FC
FC
FC
FC
FC
FC
FC
FC
FC
FC
FC
FC
FC
FC
FC
FC
FC
FC
FC
FC
FC
FC
FC
FC
FC
FC
FC
FC
FC
FC
FC
FC
FC
FC
FC
FC
ENDCHAR
STARTCHAR 004A
ENCODING 74
SWIDTH 257 0
DWIDTH 20 0
BBX 20 71 -6 -15
BITMAP
0007F0
0007F0
0007F0
0007F0
0007F0
0007F0
0007F0
0007F0
0007F0
0007F0
0007F0
0007F0
0007F0
0007F0
0007F0
0007F0
0007F0
0007F0
0007F0
0007F0
0007F0
0007F0
0007F0
0007F0
0007F0
0007F0
0007F0
0007F0
0007F0
0007F0
0007F0
0007F0
0007F0
0007F0
0007F0
0007F0
0007F0
0007F0
0007F0
0007F0
0007F0
0007F0
0007F0
0007F0
0007F0
0007F0
0007F0
0007F0
0007F0
0007F0
0007F0
0007F0
0007F0
0007F0
0007F0
0007F0
0007F0
0007F0
0007F0
0007E0
000FE0
000FE0
001FE0
003FC0
80FFC0
FFFF80
FFFF00
FFFE00
FFFC00
FFF000
0E0000
ENDCHAR
STARTCHAR 004B
ENCODING 75
SWIDTH 604 0
DWIDTH 47 0
BBX 39 56 8 0
BITMAP
FC000001FE
FC000003FC
FC000007F8
FC00000FF0
FC00000FE0
FC00001FC0
FC00003F80
FC00007F00
FC0000FE00
FC0001FE00
FC0003FC00
FC0007F800
FC000FF000
FC001FE000
FC003FC000
FC003F8000
FC007F0000
FC00FE0000
FC01FC0000
FC03F80000
FC07F00000
FC0FE00000
FC1FE00000
FC3FC00000
FC7F800000
FCFF800000
FCFFC00000
FDFFE00000
FFFFF00000
FFEFF00000
FFC7F80000
FF83FC0000
FF01FE0000
FE01FE0000
FC00FF0000
FC007F8000
FC003F8000
FC003FC000
FC001FE000
FC000FF000
FC000FF000
FC0007F800
FC0003FC00
FC0001FE00
FC0001FE00
FC0000FF00
FC00007F80
FC00003F80
FC00003FC0
FC00001FE0
FC00000FF0
FC000007F0
FC000007F8
FC000003FC
FC000001FE
FC000000FE
ENDCHAR
STARTCHAR 004C
ENCODING 76
SWIDTH 514 0
DWIDTH 40 0
BBX 31 56 8 0
BITMAP
FC000000
FC000000
FC000000
FC000000
FC000000
FC000000
FC000000
FC000000
FC000000
FC000000
FC000000
FC000000
FC000000
FC000000
FC000000
FC000000
FC000000
FC000000
FC000000
FC000000
FC000000
FC000000
FC000000
FC000000
FC000000
FC000000
FC000000
FC000000
FC000000
FC000000
FC000000
FC000000
FC000000
FC000000
FC000000
FC000000
FC000000
FC000000
FC000000
FC000000
FC000000
FC000000
FC000000
FC000000
FC000000
FC000000
FC000000
FC000000
FC000000
FC000000
FFFFFFFE
FFFFFFFE
FFFFFFFE
FFFFFFFE
FFFFFFFE
FFFFFFFE
ENDCHAR
STARTCHAR 004D
ENCODING 77
SWIDTH 887 0
DWIDTH 69 0
BBX 54 56 8 0
BITMAP
FF8000000007FC
FFC00000000FFC
FFC00000000FFC
FFC00000000FFC
FFE00000001FFC
FFE00000001FFC
FFE00000001FFC
FBF00000003FFC
FBF00000003FFC
FBF80000007EFC
F9F80000007EFC
F9F80000007CFC
F8FC000000FCFC
F8FC000000FCFC
F8FE000001F8FC
FC7E000001F8FC
FC7E000001F8FC
FC7F000003F0FC
FC3F000003F0FC
FC3F000007E0FC
FC1F800007E0FC
FC1F800007E0FC
FC1FC0000FC0FC
FC0FC0000FC0FC
FC0FC0000F80FC
FC0FE0001F80FC
FC07E0001F80FC
FC07E0003F00FC
FC03F0003F00FC
FC03F0003F00FC
FC03F8007E00FC
FC01F8007E00FC
FC01F800FC00FC
FC01FC00FC00FC
FC00FC00FC00FC
FC00FE01F800FC
FC007E01F800FC
FC007E01F000FC
FC007F03F000FC
FC003F03F000FC
FC003F07E000FC
FC001F87E000FC
FC001F87E000FC
FC001FCFC000FC
FC000FCFC000FC
FC000FDF8000FC
FC000FFF8000FC
FC0007FF8000FC
FC0007FF0000FC
FC0003FF0000FC
FC0003FE0000FC
FC0003FE0000FC
FC0001FE0000FC
FC0001FC0000FC
FC0001FC0000FC
FC0000FC0000FC
ENDCHAR
STARTCHAR 004E
ENCODING 78
SWIDTH 745 0
DWIDTH 58 0
BBX 43 56 8 0
BITMAP
FE00000007E0
FF00000007E0
FF00000007E0
FF80000007E0
FFC0000007E0
FFC0000007E0
FFE0000007E0
FFF0000007E0
FFF0000007E0
FFF8000007E0
FBFC000007E0
F9FC000007E0
F9FE000007E0
F8FE000007E0
F87F000007E0
F87F800007E0
F83F800007E0
F81FC00007E0
F81FE00007E0
FC0FE00007E0
FC07F00007E0
FC07F80007E0
FC03F80007E0
FC03FC0007E0
FC01FE0007E0
FC00FE0007E0
FC00FF0007E0
FC007F8007E0
FC003F8007E0
FC003FC007E0
FC001FC007E0
FC000FE007E0
FC000FF007E0
FC0007F007E0
FC0003F807E0
FC0003FC07E0
FC0001FC07E0
FC0000FE07E0
FC0000FF07E0
FC00007F07E0
FC00007F87E0
FC00003FC7E0
FC00001FC7E0
FC00001FE7E0
FC00000FF7E0
FC000007F7E0
FC000007FFE0
FC000003FFE0
FC000001FFE0
FC000001FFE0
FC000000FFE0
FC0000007FE0
FC0000007FE0
FC0000003FE0
FC0000001FE0
FC0000001FE0
ENDCHAR
STARTCHAR 004F
ENCODING 79
SWIDTH 771 0
DWIDTH 60 0
BBX 51 57 5 -1
BITMAP
00003FFF800000
0003FFFFF00000
000FFFFFFC0000
001FFFFFFF0000
007FFFFFFF8000
00FFFC0FFFC000
01FFC0007FE000
03FF00001FF000
07FC000007F800
07F8000003FC00
0FF0000001FC00
1FE0000000FE00
1FC0000000FF00
3FC00000007F00
3F800000007F00
3F800000003F80
7F000000003F80
7F000000003F80
7F000000001FC0
7E000000001FC0
FE000000001FC0
FE000000001FC0
FE000000000FC0
FE000000000FE0
FE000000000FE0
FE000000000FE0
FE000000000FE0
FE000000000FE0
FE000000000FE0
FE000000000FE0
FE000000000FE0
FE000000000FE0
FE000000000FE0
FE000000000FC0
FE000000001FC0
FE000000001FC0
FE000000001FC0
7F000000001FC0
7F000000001F80
7F000000003F80
3F800000003F80
3F800000007F80
3FC00000007F00
1FC0000000FF00
1FE0000000FE00
0FF0000001FE00
0FF0000003FC00
07FC000007F800
03FE00000FF800
01FF80003FF000
00FFF001FFE000
007FFFFFFFC000
003FFFFFFF0000
000FFFFFFE0000
0007FFFFF80000
0000FFFFC00000
000007F8000000
ENDCHAR
STARTCHAR 0050
ENCODING 80
SWIDTH 591 0
DWIDTH 46 0
BBX 35 56 8 0
BITMAP
FFFF000000
FFFFFE0000
FFFFFFC000
FFFFFFF000
FFFFFFFC00
FFFFFFFE00
FC001FFF00
FC0003FF00
FC0000FF80
FC00007F80
FC00003FC0
FC00001FC0
FC00001FC0
FC00000FE0
FC00000FE0
FC00000FE0
FC00000FE0
FC00000FE0
FC00000FE0
FC00000FE0
FC00000FC0
FC00001FC0
FC00001FC0
FC00003FC0
FC00003F80
FC00007F80
FC0001FF00
FC0007FE00
FC03FFFC00
FFFFFFF800
FFFFFFF000
FFFFFFC000
FFFFFF0000
FFFFF00000
FC00000000
FC00000000
FC00000000
FC00000000
FC00000000
FC00000000
FC00000000
FC00000000
FC00000000
FC00000000
FC00000000
FC00000000
FC00000000
FC00000000
FC00000000
FC00000000
FC00000000
FC00000000
FC00000000
FC00000000
FC00000000
FC00000000
ENDCHAR
STARTCHAR 0051
ENCODING 81
SWIDTH 771 0
DWIDTH 60 0
BBX 51 69 5 -13
BITMAP
00003FFF800000
0003FFFFF00000
000FFFFFFC0000
001FFFFFFF0000
007FFFFFFF8000
00FFFC0FFFC000
01FFC0007FE000
03FF00001FF000
07FC000007F800
07F8000003FC00
0FF0000001FC00
1FE0000000FE00
1FC0000000FF00
3FC00000007F00
3F800000007F00
3F800000003F80
7F000000003F80
7F000000003F80
7F000000001FC0
7E000000001FC0
FE000000001FC0
FE000000001FC0
FE000000000FC0
FE000000000FE0
FE000000000FE0
FE000000000FE0
FE000000000FE0
FE000000000FE0
FE000000000FE0
FE000000000FE0
FE000000000FE0
FE000000000FE0
FE000000000FE0
FE000000000FC0
FE000000001FC0
FE000000001FC0
FE000000001FC0
7F000000001FC0
7F000000001F80
7F000000003F80
3F800000003F80
3F800000007F80
3FC00000007F00
1FC0000000FF00
1FE0000000FE00
0FF0000001FE00
0FF0000003FC00
07FC000007F800
03FE00000FF800
01FF80003FF000
00FFF001FFE000
007FFFFFFFC000
003FFFFFFF0000
000FFFFFFE0000
0007FFFFF80000
0000FFFFC00000
000007FFE00000
0000000FF00000
00000007F80000
00000003FC0000
00000001FE0000
00000001FF0000
00000000FF8000
000000007FC000
000000003FE000
000000001FF000
000000000FF800
0000000007FC00
0000000007FE00
ENDCHAR
STARTCHAR 0052
ENCODING 82
SWIDTH 617 0
DWIDTH 48 0
BBX 38 56 8 0
BITMAP
FFFE000000
FFFFFF0000
FFFFFFE000
FFFFFFF800
FFFFFFFC00
FFFFFFFE00
FC001FFF00
FC0001FF80
FC00007F80
FC00003FC0
FC00001FC0
FC00001FC0
FC00000FC0
FC00000FE0
FC00000FE0
FC00000FE0
FC00000FE0
FC00000FE0
FC00000FE0
FC00000FC0
FC00001FC0
FC00001FC0
FC00001FC0
FC00003F80
FC00007F80
FC0000FF00
FC0007FE00
FFFFFFFC00
FFFFFFF800
FFFFFFE000
FFFFFF8000
FFFFFF0000
FFFFFF0000
FC003F8000
FC001FC000
FC001FC000
FC000FE000
FC000FE000
FC0007F000
FC0007F800
FC0003F800
FC0001FC00
FC0001FC00
FC0000FE00
FC0000FF00
FC00007F00
FC00003F80
FC00003FC0
FC00001FC0
FC00001FE0
FC00000FE0
FC000007F0
FC000007F8
FC000003F8
FC000003FC
FC000001FC
ENDCHAR
STARTCHAR 0053
ENCODING 83
SWIDTH 540 0
DWIDTH 42 0
BBX 35 57 4 -1
BITMAP
000FFFE000
007FFFFC00
01FFFFFF80
03FFFFFF80
0FFFFFFF80
0FFF8FFF80
1FF0003F00
3FC0000700
3F80000000
7F00000000
7F00000000
7F00000000
7E00000000
7E00000000
7E00000000
7E00000000
7F00000000
7F00000000
7F00000000
3F80000000
3FC0000000
1FE0000000
1FF8000000
0FFE000000
07FF800000
03FFF00000
01FFFE0000
007FFF8000
001FFFE000
0007FFF800
0000FFFC00
00001FFE00
000007FF00
000001FF80
0000007F80
0000003FC0
0000001FC0
0000001FE0
0000000FE0
0000000FE0
0000000FE0
0000000FE0
0000000FE0
0000000FE0
0000000FE0
0000000FC0
0000001FC0
0000003FC0
8000007F80
F00000FF80
FF0007FF00
FFFFFFFE00
FFFFFFFC00
FFFFFFF000
7FFFFFE000
0FFFFF0000
007FC00000
ENDCHAR
STARTCHAR 0054
ENCODING 84
SWIDTH 540 0
DWIDTH 42 0
BBX 41 56 1 0
BITMAP
FFFFFFFFFF80
FFFFFFFFFF80
FFFFFFFFFF80
FFFFFFFFFF80
FFFFFFFFFF80
FFFFFFFFFF80
00007F000000
00007F000000
00007F000000
00007F000000
00007F000000
00007F000000
00007F000000
00007F000000
00007F000000
00007F000000
00007F000000
00007F000000
00007F000000
00007F000000
00007F000000
00007F000000
00007F000000
00007F000000
00007F000000
00007F000000
00007F000000
00007F000000
00007F000000
00007F000000
00007F000000
00007F000000
00007F000000
00007F000000
00007F000000
00007F000000
00007F000000
00007F000000
00007F000000
00007F000000
00007F000000
00007F000000
00007F000000
00007F000000
00007F000000
00007F000000
00007F000000
00007F000000
00007F000000
00007F000000
00007F000000
00007F000000
00007F000000
00007F000000
00007F000000
00007F000000
ENDCHAR
STARTCHAR 0055
ENCODING 85
SWIDTH 720 0
DWIDTH 56 0
BBX 43 57 7 -1
BITMAP
FE0000000FE0
FE0000000FE0
FE0000000FE0
FE0000000FE0
FE0000000FE0
FE0000000FE0
FE0000000FE0
FE0000000FE0
FE0000000FE0
FE0000000FE0
FE0000000FE0
FE0000000FE0
FE0000000FE0
FE0000000FE0
FE0000000FE0
FE0000000FE0
FE0000000FE0
FE0000000FE0
FE0000000FE0
FE0000000FE0
FE0000000FE0
FE0000000FE0
FE0000000FE0
FE0000000FE0
FE0000000FE0
FE0000000FE0
FE0000000FE0
FE0000000FE0
FE0000000FE0
FE0000000FE0
FE0000000FE0
FE0000000FE0
FE0000000FE0
FE0000000FE0
FE0000000FE0
FE0000000FE0
FE0000000FE0
FE0000000FE0
FE0000000FE0
FE0000000FC0
FE0000000FC0
FE0000000FC0
7E0000001FC0
7F0000001FC0
7F0000003F80
3F8000003F80
3F8000007F00
1FC00000FF00
1FF00001FE00
0FF80007FE00
07FF001FFC00
03FFFFFFF800
01FFFFFFF000
00FFFFFFC000
003FFFFF0000
000FFFFC0000
00007FC00000
ENDCHAR
STARTCHAR 0056
ENCODING 86
SWIDTH 591 0
DWIDTH 46 0
BBX 46 56 0 0
BITMAP
FE00000000FC
FE00000001FC
7E00000001FC
7F00000003F8
7F00000003F8
3F80000003F8
3F80000007F0
1F80000007F0
1FC0000007F0
1FC000000FE0
0FC000000FE0
0FE000000FC0
0FE000001FC0
07E000001FC0
07F000001F80
07F000003F80
03F000003F80
03F800007F00
03F800007F00
01FC00007F00
01FC0000FE00
00FC0000FE00
00FE0000FC00
00FE0001FC00
007E0001FC00
007F0001F800
007F0003F800
003F0003F800
003F8003F000
003F8007F000
001F8007F000
001FC007E000
001FC00FE000
000FC00FE000
000FE01FC000
0007E01FC000
0007F01F8000
0007F03F8000
0003F03F8000
0003F83F0000
0003F87F0000
0001F87F0000
0001FC7E0000
0001FCFE0000
0000FCFE0000
0000FCFC0000
00007EFC0000
00007FFC0000
00007FF80000
00003FF80000
00003FF00000
00003FF00000
00001FF00000
00001FE00000
00001FE00000
00000FE00000
ENDCHAR
STARTCHAR 0057
ENCODING 87
SWIDTH 912 0
DWIDTH 71 0
BBX 70 56 1 0
BITMAP
FE000001FC000001FC
FE000001FC000001F8
7E000001FE000003F8
7F000003FE000003F8
7F000003FE000003F8
7F000003FE000003F0
3F000003FF000007F0
3F800007FF000007F0
3F800007FF000007F0
1F800007DF800007E0
1F80000FDF80000FE0
1FC0000FDF80000FE0
1FC0000FCFC0000FC0
0FC0000F8FC0000FC0
0FC0001F8FC0001FC0
0FE0001F8FC0001FC0
0FE0001F87E0001F80
07E0003F07E0001F80
07E0003F07E0003F80
07F0003F03F0003F80
07F0007F03F0003F00
03F0007E03F0003F00
03F8007E03F8007F00
03F8007E01F8007F00
01F800FC01F8007E00
01F800FC01F800FE00
01FC00FC00FC00FE00
01FC01FC00FC00FC00
00FC01F800FC00FC00
00FC01F8007E01FC00
00FE01F8007E01FC00
00FE03F0007E01F800
007E03F0007F01F800
007E03F0003F03F800
007F07F0003F03F800
007F07E0003F03F000
003F07E0001F83F000
003F07E0001F87F000
003F8FC0001F87F000
001F8FC0001FC7E000
001F8FC0000FC7E000
001F8FC0000FCFE000
001F9F80000FCFC000
000FDF800007CFC000
000FDF800007EFC000
000FDF000007EFC000
000FDF000003EF8000
0007DF000003FF8000
0007FF000003FF8000
0007FE000003FF8000
0007FE000001FF0000
0003FE000001FF0000
0003FC000001FF0000
0003FC000000FF0000
0003FC000000FE0000
0001FC000000FE0000
ENDCHAR
STARTCHAR 0058
ENCODING 88
SWIDTH 565 0
DWIDTH 44 0
BBX 43 56 1 0
BITMAP
7F0000001FC0
7F0000001FC0
3F8000003F80
3FC000003F00
1FC000007F00
0FE00000FE00
0FE00000FC00
07F00001FC00
03F80003F800
03F80003F000
01FC0007F000
00FE0007E000
00FE000FE000
007F001FC000
003F801F8000
003F803F8000
001FC07F0000
000FC07E0000
000FE0FE0000
0007F1FC0000
0007F1F80000
0003FBF80000
0001FFF00000
0001FFE00000
0000FFE00000
00007FC00000
00007F800000
00007FC00000
00007FC00000
0000FFE00000
0000FFE00000
0001FFF00000
0003FBF80000
0003F1F80000
0007F1FC0000
000FE0FE0000
000FC0FE0000
001FC07F0000
003F803F8000
003F003F8000
007F001FC000
00FE001FC000
00FE000FE000
01FC0007F000
01F80007F000
03F80003F800
07F00003FC00
07E00001FC00
0FE00000FE00
1FC00000FF00
1FC000007F00
3F8000003F80
7F0000003F80
7F0000001FC0
FE0000001FE0
FC0000000FE0
ENDCHAR
STARTCHAR 0059
ENCODING 89
SWIDTH 552 0
DWIDTH 43 0
BBX 43 56 0 0
BITMAP
FE00000007E0
7F0000000FE0
7F0000001FC0
3F8000001FC0
3F8000003F80
1FC000003F80
1FC000007F00
0FE000007F00
0FE00000FE00
07F00000FE00
07F00001FC00
03F80001F800
03F80003F800
01FC0003F000
00FC0007F000
00FE0007E000
007F000FE000
007F001FC000
003F801FC000
003F803F8000
001FC03F8000
001FC07F0000
000FE07F0000
000FE0FE0000
0007F0FC0000
0003F1FC0000
0003F9F80000
0001FBF80000
0001FFF00000
0000FFF00000
0000FFE00000
00007FE00000
00007FC00000
00003FC00000
00003F800000
00001F800000
00001F800000
00001F800000
00001F800000
00001F800000
00001F800000
00001F800000
00001F800000
00001F800000
00001F800000
00001F800000
00001F800000
00001F800000
00001F800000
00001F800000
00001F800000
00001F800000
00001F800000
00001F800000
00001F800000
00001F800000
ENDCHAR
STARTCHAR 005A
ENCODING 90
SWIDTH 565 0
DWIDTH 44 0
BBX 39 56 3 0
BITMAP
7FFFFFFFFC
7FFFFFFFFC
7FFFFFFFFC
7FFFFFFFFC
7FFFFFFFFC
7FFFFFFFFC
00000003F8
00000007F0
0000000FF0
0000000FE0
0000001FC0
0000003FC0
0000003F80
0000007F00
000000FF00
000000FE00
000001FC00
000003FC00
000003F800
000007F000
00000FF000
00000FE000
00001FC000
00003FC000
00003F8000
00007F0000
0000FF0000
0000FE0000
0001FC0000
0003FC0000
0003F80000
0007F00000
000FF00000
000FE00000
001FC00000
003FC00000
003F800000
007F000000
00FF000000
00FE000000
01FC000000
03FC000000
03F8000000
07F0000000
0FF0000000
0FE0000000
1FC0000000
3FC0000000
3F80000000
7F00000000
FFFFFFFFFE
FFFFFFFFFE
FFFFFFFFFE
FFFFFFFFFE
FFFFFFFFFE
FFFFFFFFFE
ENDCHAR
STARTCHAR 005B
ENCODING 91
SWIDTH 321 0
DWIDTH 25 0
BBX 18 68 6 -12
BITMAP
FFFFC0
FFFFC0
FFFFC0
FFFFC0
FFFFC0
FFFFC0
FC0000
FC0000
FC0000
FC0000
FC0000
FC0000
FC0000
FC0000
FC0000
FC0000
FC0000
FC0000
FC0000
FC0000
FC0000
FC0000
FC0000
FC0000
FC0000
FC0000
FC0000
FC0000
FC0000
FC0000
FC0000
FC0000
FC0000
FC0000
FC0000
FC0000
FC0000
FC0000
FC0000
FC0000
FC0000
FC0000
FC0000
FC0000
FC0000
FC0000
FC0000
FC0000
FC0000
FC0000
FC0000
FC0000
FC0000
FC0000
FC0000
FC0000
FC0000
FC0000
FC0000
FC0000
FC0000
FC0000
FC0000
FFFFC0
FFFFC0
FFFFC0
FFFFC0
FFFFC0
ENDCHAR
STARTCHAR 005C
ENCODING 92
SWIDTH 360 0
DWIDTH 28 0
BBX 27 56 1 0
BITMAP
FC000000
FC000000
7E000000
7E000000
7F000000
3F000000
3F000000
3F800000
1F800000
1F800000
0FC00000
0FC00000
0FE00000
07E00000
07E00000
07F00000
03F00000
03F00000
01F80000
01F80000
01FC0000
00FC0000
00FC0000
00FE0000
007E0000
007E0000
007F0000
003F0000
003F8000
001F8000
001F8000
001FC000
000FC000
000FC000
000FE000
0007E000
0007E000
0003F000
0003F000
0003F800
0001F800
0001F800
0001FC00
0000FC00
0000FC00
00007E00
00007E00
00007F00
00003F00
00003F00
00003F80
00001F80
00001F80
00000FC0
00000FC0
00000FE0
ENDCHAR
STARTCHAR 005D
ENCODING 93
SWIDTH 321 0
DWIDTH 25 0
BBX 17 68 2 -12
BITMAP
FFFF80
FFFF80
FFFF80
FFFF80
FFFF80
FFFF80
001F80
001F80
001F80
001F80
001F80
001F80
001F80
001F80
001F80
001F80
001F80
001F80
001F80
001F80
001F80
001F80
001F80
001F80
001F80
001F80
001F80
001F80
001F80
001F80
001F80
001F80
001F80
001F80
001F80
001F80
001F80
001F80
001F80
001F80
001F80
001F80
001F80
001F80
001F80
001F80
001F80
001F80
001F80
001F80
001F80
001F80
001F80
001F80
001F80
001F80
001F80
001F80
001F80
001F80
001F80
001F80
001F80
FFFF80
FFFF80
FFFF80
FFFF80
FFFF80
ENDCHAR
STARTCHAR 005E
ENCODING 94
SWIDTH 565 0
DWIDTH 44 0
BBX 38 35 3 21
BITMAP
0000F80000
0000F80000
0000FC0000
0001FC0000
0001FE0000
0003FE0000
0003FF0000
0007DF0000
0007DF8000
000F8F8000
000F8FC000
001F07C000
001F07E000
003F03E000
003E03F000
007E01F000
007C01F800
00FC00F800
00F800FC00
01F8007C00
01F0007E00
01F0003E00
03E0003F00
03E0001F00
07E0001F80
07C0000F80
0FC0000FC0
0F800007E0
1F800007E0
1F000003F0
3F000003F0
3E000001F8
7E000001F8
7C000000FC
FC000000FC
ENDCHAR
STARTCHAR 005F
ENCODING 95
SWIDTH 437 0
DWIDTH 34 0
BBX 34 5 0 -12
BITMAP
FFFFFFFFC0
FFFFFFFFC0
FFFFFFFFC0
FFFFFFFFC0
FFFFFFFFC0
ENDCHAR
STARTCHAR 0060
ENCODING 96
SWIDTH 270 0
DWIDTH 21 0
BBX 16 13 3 47
BITMAP
FF00
FF00
7F80
3F80
1FC0
0FE0
0FE0
07F0
03F8
01FC
00FC
003E
001F
ENDCHAR
STARTCHAR 0061
ENCODING 97
SWIDTH 552 0
DWIDTH 43 0
BBX 33 43 4 -1
BITMAP
001FFF8000
00FFFFE000
03FFFFF800
0FFFFFFC00
07FFFFFE00
07F003FE00
078000FF00
0200007F00
0000003F00
0000003F80
0000003F80
0000003F80
0000001F80
0000001F80
0000001F80
0000001F80
0000001F80
00007FFF80
003FFFFF80
01FFFFFF80
07FFFFFF80
0FFFFFDF80
1FFC001F80
3FE0001F80
7F80001F80
7F00001F80
FE00001F80
FE00001F80
FC00003F80
FC00003F80
FC00003F80
FC00007F80
FC00007F80
FE0000FF80
FE0001FF80
FF0003FF80
7F800FDF80
7FF8FF9F80
3FFFFF0F80
1FFFFE0F80
0FFFFC0F80
03FFF00F80
003F800000
ENDCHAR
STARTCHAR 0062
ENCODING 98
SWIDTH 604 0
DWIDTH 47 0
BBX 36 60 7 -1
BITMAP
FC00000000
FC00000000
FC00000000
FC00000000
FC00000000
FC00000000
FC00000000
FC00000000
FC00000000
FC00000000
FC00000000
FC00000000
FC00000000
FC00000000
FC00000000
FC00000000
FC00000000
FC07FF8000
FC1FFFE000
FC3FFFF800
FCFFFFFC00
FDFFFFFE00
FFFC03FF00
FFE000FF80
FFC0003F80
FF80003FC0
FF00001FC0
FF00000FE0
FE00000FE0
FE000007E0
FE000007F0
FC000007F0
FC000007F0
FC000007F0
FC000003F0
FC000003F0
FC000003F0
FC000003F0
FC000003F0
FC000003F0
FC000003F0
FC000003F0
FC000007F0
FC000007F0
FC000007F0
FE000007F0
FE000007E0
FE00000FE0
FF00000FE0
FF00001FC0
FF80001FC0
FF80003F80
FFE0007F80
FBF001FF00
F9FFFFFE00
F8FFFFFC00
F87FFFF800
F83FFFF000
F00FFFC000
0000FC0000
ENDCHAR
STARTCHAR 0063
ENCODING 99
SWIDTH 475 0
DWIDTH 37 0
BBX 30 43 4 -1
BITMAP
0007FFE0
001FFFFC
007FFFFC
01FFFFFC
03FFFFFC
07FF81F8
0FF80018
0FF00000
1FE00000
1FC00000
3F800000
3F800000
7F000000
7F000000
7F000000
7E000000
7E000000
FE000000
FE000000
FE000000
FE000000
FE000000
FE000000
FE000000
FE000000
7E000000
7E000000
7E000000
7F000000
7F000000
3F000000
3F800000
3FC00000
1FC00000
1FE00000
0FF80004
07FC003C
03FFFFFC
01FFFFFC
00FFFFFC
007FFFFC
000FFFF0
0001FE00
ENDCHAR
STARTCHAR 0064
ENCODING 100
SWIDTH 604 0
DWIDTH 47 0
BBX 37 60 4 -1
BITMAP
00000001F8
00000001F8
00000001F8
00000001F8
00000001F8
00000001F8
00000001F8
00000001F8
00000001F8
00000001F8
00000001F8
00000001F8
00000001F8
00000001F8
00000001F8
00000001F8
00000001F8
000FFE01F8
007FFFC1F8
00FFFFE1F8
01FFFFF1F8
03FFFFF9F8
07FE01FDF8
0FF0007FF8
1FE0001FF8
1FC0000FF8
3FC0000FF8
3F800007F8
3F800007F8
7F000003F8
7F000003F8
7F000003F8
7E000003F8
7E000003F8
FE000003F8
FE000001F8
FE000001F8
FE000001F8
FE000001F8
FE000001F8
FE000001F8
FE000001F8
7E000001F8
7E000003F8
7E000003F8
7F000003F8
7F000003F8
7F000003F8
3F800007F8
3F800007F8
3FC0000FF8
1FE0001FF8
0FF0003FF8
0FF800FDF8
07FFDFFDF8
03FFFFF9F8
01FFFFF1F8
007FFFC0F8
001FFF00F8
0003F80000
ENDCHAR
STARTCHAR 0065
ENCODING 101
SWIDTH 552 0
DWIDTH 43 0
BBX 36 43 4 -1
BITMAP
0007FF8000
003FFFE000
007FFFF800
01FFFFFC00
03FFFFFE00
07FC01FF00
07F0007F00
0FE0003F80
1FC0001FC0
1F80001FC0
3F80000FC0
3F00000FE0
3F00000FE0
7F000007E0
7E000007E0
7E000007E0
7E000007F0
7FFFFFFFF0
FFFFFFFFF0
FFFFFFFFF0
FFFFFFFFF0
FFFFFFFFF0
FE00000000
FE00000000
FE00000000
7E00000000
7E00000000
7E00000000
7F00000000
7F00000000
3F00000000
3F80000000
3FC0000000
1FC0000000
0FF0000000
0FF80001C0
07FE000FC0
03FFFFFFC0
01FFFFFFC0
00FFFFFFC0
003FFFFF80
000FFFFC00
00007F8000
ENDCHAR
STARTCHAR 0066
ENCODING 102
SWIDTH 334 0
DWIDTH 26 0
BBX 28 60 1 0
BITMAP
00000C00
0001FFF0
0007FFF0
001FFFF0
001FFFF0
003FFFF0
007F8020
007F0000
00FE0000
00FE0000
00FC0000
00FC0000
00FC0000
00FC0000
01FC0000
01FC0000
01FC0000
01FC0000
03FFFF00
1FFFFF00
FFFFFF00
FFFFFF00
FFFFFF00
01FC0000
01FC0000
01FC0000
01FC0000
01FC0000
01FC0000
01FC0000
01FC0000
01FC0000
01FC0000
01FC0000
01FC0000
01FC0000
01FC0000
01FC0000
01FC0000
01FC0000
01FC0000
01FC0000
01FC0000
01FC0000
01FC0000
01FC0000
01FC0000
01FC0000
01FC0000
01FC0000
01FC0000
01FC0000
01FC0000
01FC0000
01FC0000
01FC0000
01FC0000
01FC0000
01FC0000
01FC0000
ENDCHAR
STARTCHAR 0067
ENCODING 103
SWIDTH 540 0
DWIDTH 42 0
BBX 40 61 1 -19
BITMAP
0007FFFFFF
003FFFFFFF
007FFFFFFF
01FFFFFFFF
03FF03FFFE
03FC00FF00
07F0003F80
07F0001F80
0FE0001FC0
0FE0000FC0
0FC0000FC0
0FC0000FE0
1FC0000FE0
1FC0000FE0
1FC0000FE0
0FC0000FE0
0FC0000FC0
0FE0000FC0
0FE0001FC0
07F0003F80
07F8003F80
03FC00FF00
03FFFFFE00
01FFFFFC00
007FFFF800
001FFFE000
007FFF0000
00FC000000
01F8000000
03F0000000
03F0000000
03F0000000
03F0000000
03F0000000
03F8000000
03FFFFF800
01FFFFFF80
00FFFFFFE0
007FFFFFF0
01FFFFFFF8
07FFFFFFFC
0FF0000FFC
1FC00001FE
3F000000FE
7F000000FE
7E0000007E
FE0000007E
FE0000007E
FE0000007E
FE000000FE
FE000000FE
FE000001FC
7F000003FC
7F800007F8
3FC0001FF0
3FFE03FFE0
1FFFFFFFC0
0FFFFFFF80
03FFFFFE00
00FFFFF000
0007F80000
ENDCHAR
STARTCHAR 0068
ENCODING 104
SWIDTH 604 0
DWIDTH 47 0
BBX 34 59 7 0
BITMAP
FC00000000
FC00000000
FC00000000
FC00000000
FC00000000
FC00000000
FC00000000
FC00000000
FC00000000
FC00000000
FC00000000
FC00000000
FC00000000
FC00000000
FC00000000
FC00000000
FC00000000
FC03FFC000
FC1FFFF000
FC3FFFFC00
FCFFFFFE00
FDFFFFFF00
FDFC03FF00
FFE0007F80
FFC0003F80
FF80003FC0
FF00001FC0
FF00001FC0
FE00000FC0
FE00000FC0
FE00000FC0
FC00000FC0
FC00000FC0
FC00000FC0
FC00000FC0
FC00000FC0
FC00000FC0
FC00000FC0
FC00000FC0
FC00000FC0
FC00000FC0
FC00000FC0
FC00000FC0
FC00000FC0
FC00000FC0
FC00000FC0
FC00000FC0
FC00000FC0
FC00000FC0
FC00000FC0
FC00000FC0
FC00000FC0
FC00000FC0
FC00000FC0
FC00000FC0
FC00000FC0
FC00000FC0
FC00000FC0
FC00000FC0
ENDCHAR
STARTCHAR 0069
ENCODING 105
SWIDTH 244 0
DWIDTH 19 0
BBX 8 57 6 0
BITMAP
3C
7E
FF
FF
FF
FE
7E
3C
00
00
00
00
00
00
00
7E
7E
7E
7E
7E
7E
7E
7E
7E
7E
7E
7E
7E
7E
7E
7E
7E
7E
7E
7E
7E
7E
7E
7E
7E
7E
7E
7E
7E
7E
7E
7E
7E
7E
7E
7E
7E
7E
7E
7E
7E
7E
ENDCHAR
STARTCHAR 006A
ENCODING 106
SWIDTH 244 0
DWIDTH 19 0
BBX 18 76 -4 -19
BITMAP
000F00
001F80
003FC0
003FC0
003FC0
003F80
001F80
000F00
000000
000000
000000
000000
000000
000000
000000
001F80
001F80
001F80
001F80
001F80
001F80
001F80
001F80
001F80
001F80
001F80
001F80
001F80
001F80
001F80
001F80
001F80
001F80
001F80
001F80
001F80
001F80
001F80
001F80
001F80
001F80
001F80
001F80
001F80
001F80
001F80
001F80
001F80
001F80
001F80
001F80
001F80
001F80
001F80
001F80
001F80
001F80
001F80
001F80
001F80
001F80
001F80
001F80
001F80
001F80
001F80
003F80
003F80
007F00
00FF00
FFFF00
FFFE00
FFFC00
FFF800
FFF000
1E0000
ENDCHAR
STARTCHAR 006B
ENCODING 107
SWIDTH 514 0
DWIDTH 40 0
BBX 33 59 7 0
BITMAP
FC00000000
FC00000000
FC00000000
FC00000000
FC00000000
FC00000000
FC00000000
FC00000000
FC00000000
FC00000000
FC00000000
FC00000000
FC00000000
FC00000000
FC00000000
FC00000000
FC00000000
FC00007F00
FC0000FE00
FC0001FC00
FC0003F800
FC0007F000
FC000FE000
FC001FC000
FC003F8000
FC007F0000
FC00FE0000
FC01FE0000
FC03FC0000
FC07F80000
FC0FF00000
FC1FE00000
FC3FC00000
FC3F800000
FC7F000000
FCFF000000
FDFF000000
FFFF800000
FFFFC00000
FFFFE00000
FFCFE00000
FF87F00000
FE07F80000
FC03FC0000
FC01FC0000
FC00FE0000
FC00FF0000
FC007F8000
FC003F8000
FC001FC000
FC001FE000
FC000FF000
FC0007F000
FC0003F800
FC0003FC00
FC0001FE00
FC0000FE00
FC00007F00
FC00007F80
ENDCHAR
STARTCHAR 006C
ENCODING 108
SWIDTH 244 0
DWIDTH 19 0
BBX 6 59 7 0
BITMAP
FC
FC
FC
FC
FC
FC
FC
FC
FC
FC
FC
FC
FC
FC
FC
FC
FC
FC
FC
FC
FC
FC
FC
FC
FC
FC
FC
FC
FC
FC
FC
FC
FC
FC
FC
FC
FC
FC
FC
FC
FC
FC
FC
FC
FC
FC
FC
FC
FC
FC
FC
FC
FC
FC
FC
FC
FC
FC
FC
ENDCHAR
STARTCHAR 006D
ENCODING 109
SWIDTH 925 0
DWIDTH 72 0
BBX 59 42 7 0
BITMAP
F807FF0001FFE000
F81FFFE007FFF800
F87FFFF01FFFFC00
F8FFFFF83FFFFE00
F9FFFFFC7FFFFF00
FDF807FCFF01FF80
FFE001FEF8007F80
FFC000FFF0003FC0
FF80007FE0001FC0
FF00007FC0000FC0
FF00007FC0000FC0
FE00003F80000FE0
FE00003F80000FE0
FE00003F80000FE0
FC00003F80000FE0
FC00003F00000FE0
FC00003F00000FE0
FC00003F00000FE0
FC00003F00000FE0
FC00003F00000FE0
FC00003F00000FE0
FC00003F00000FE0
FC00003F00000FE0
FC00003F00000FE0
FC00003F00000FE0
FC00003F00000FE0
FC00003F00000FE0
FC00003F00000FE0
FC00003F00000FE0
FC00003F00000FE0
FC00003F00000FE0
FC00003F00000FE0
FC00003F00000FE0
FC00003F00000FE0
FC00003F00000FE0
FC00003F00000FE0
FC00003F00000FE0
FC00003F00000FE0
FC00003F00000FE0
FC00003F00000FE0
FC00003F00000FE0
FC00003F00000FE0
ENDCHAR
STARTCHAR 006E
ENCODING 110
SWIDTH 604 0
DWIDTH 47 0
BBX 34 42 7 0
BITMAP
F803FFC000
F81FFFF000
F83FFFFC00
F8FFFFFE00
F9FFFFFF00
FDFC03FF00
FFE0007F80
FFC0003F80
FF80003FC0
FF00001FC0
FF00001FC0
FE00000FC0
FE00000FC0
FE00000FC0
FC00000FC0
FC00000FC0
FC00000FC0
FC00000FC0
FC00000FC0
FC00000FC0
FC00000FC0
FC00000FC0
FC00000FC0
FC00000FC0
FC00000FC0
FC00000FC0
FC00000FC0
FC00000FC0
FC00000FC0
FC00000FC0
FC00000FC0
FC00000FC0
FC00000FC0
FC00000FC0
FC00000FC0
FC00000FC0
FC00000FC0
FC00000FC0
FC00000FC0
FC00000FC0
FC00000FC0
FC00000FC0
ENDCHAR
STARTCHAR 006F
ENCODING 111
SWIDTH 591 0
DWIDTH 46 0
BBX 39 43 4 -1
BITMAP
0007FFC000
003FFFF000
007FFFFC00
01FFFFFE00
03FFFFFF80
07FE00FFC0
0FF8003FC0
0FE0001FE0
1FC0000FF0
1FC00007F0
3F800003F8
3F800003F8
7F000001F8
7F000001FC
7F000001FC
7E000001FC
7E000000FC
FE000000FC
FE000000FC
FE000000FC
FE000000FE
FE000000FE
FE000000FE
FE000000FC
FE000000FC
7E000000FC
7E000000FC
7F000001FC
7F000001FC
7F000001F8
3F000003F8
3F800003F8
1F800007F0
1FC00007F0
0FE0000FE0
0FF0001FE0
07FC007FC0
03FFEFFF80
01FFFFFF00
00FFFFFE00
003FFFF800
000FFFE000
0000FC0000
ENDCHAR
STARTCHAR 0070
ENCODING 112
SWIDTH 604 0
DWIDTH 47 0
BBX 36 61 7 -19
BITMAP
F807FF8000
F81FFFE000
F83FFFF800
F8FFFFFC00
F8FFFFFE00
FDFC03FF00
FFE000FF80
FFC0007F80
FF80003FC0
FF00001FC0
FF00000FE0
FE00000FE0
FE00000FE0
FE000007F0
FC000007F0
FC000007F0
FC000007F0
FC000003F0
FC000003F0
FC000003F0
FC000003F0
FC000003F0
FC000003F0
FC000003F0
FC000003F0
FC000007F0
FC000007F0
FC000007F0
FE000007F0
FE000007E0
FE00000FE0
FF00000FE0
FF00001FC0
FF80003FC0
FFC0003F80
FFE0007F80
FFF801FF00
FDFFFFFE00
FCFFFFFC00
FC7FFFF800
FC3FFFF000
FC0FFFC000
FC00FE0000
FC00000000
FC00000000
FC00000000
FC00000000
FC00000000
FC00000000
FC00000000
FC00000000
FC00000000
FC00000000
FC00000000
FC00000000
FC00000000
FC00000000
FC00000000
FC00000000
FC00000000
FC00000000
ENDCHAR
STARTCHAR 0071
ENCODING 113
SWIDTH 604 0
DWIDTH 47 0
BBX 37 61 4 -19
BITMAP
000FFE00F8
007FFFC0F8
00FFFFE0F8
01FFFFF1F8
03FFFFF9F8
07FC01FDF8
0FF0007FF8
1FE0001FF8
1FC0000FF8
3FC0000FF8
3F800007F8
3F800007F8
7F000007F8
7F000003F8
7F000003F8
7E000003F8
7E000003F8
FE000003F8
FE000001F8
FE000001F8
FE000001F8
FE000001F8
FE000001F8
FE000001F8
FE000001F8
FE000003F8
7E000003F8
7E000003F8
7F000003F8
7F000003F8
7F000007F8
3F800007F8
3F800007F8
3FC0000FF8
1FE0001FF8
0FF0003FF8
0FF800FDF8
07FFDFF9F8
03FFFFF9F8
01FFFFE1F8
007FFFC1F8
003FFF01F8
0003F001F8
00000001F8
00000001F8
00000001F8
00000001F8
00000001F8
00000001F8
00000001F8
00000001F8
00000001F8
00000001F8
00000001F8
00000001F8
00000001F8
00000001F8
00000001F8
00000001F8
00000001F8
00000001F8
ENDCHAR
STARTCHAR 0072
ENCODING 114
SWIDTH 398 0
DWIDTH 31 0
BBX 24 42 7 0
BITMAP
F803FF
F80FFE
F83FFE
F87FFE
F8FFFE
F9FF8E
F9F800
FFF000
FFC000
FF8000
FF8000
FF0000
FE0000
FE0000
FE0000
FC0000
FC0000
FC0000
FC0000
FC0000
FC0000
FC0000
FC0000
FC0000
FC0000
FC0000
FC0000
FC0000
FC0000
FC0000
FC0000
FC0000
FC0000
FC0000
FC0000
FC0000
FC0000
FC0000
FC0000
FC0000
FC0000
FC0000
ENDCHAR
STARTCHAR 0073
ENCODING 115
SWIDTH 475 0
DWIDTH 37 0
BBX 30 43 4 -1
BITMAP
007FFE00
03FFFFE0
0FFFFFF8
1FFFFFF0
3FFFFFF0
7FC007E0
7F0000E0
FE000000
FC000000
FC000000
FC000000
FC000000
FE000000
FE000000
7F000000
7FC00000
3FF00000
1FFE0000
0FFF8000
07FFF000
01FFFC00
003FFF00
000FFFC0
0001FFE0
00007FF0
00001FF0
000007F8
000003F8
000001F8
000001FC
000001FC
000001FC
000001F8
000001F8
000003F8
E00007F8
FC000FF0
FFE1FFE0
FFFFFFE0
FFFFFF80
7FFFFF00
1FFFFC00
00FF8000
ENDCHAR
STARTCHAR 0074
ENCODING 116
SWIDTH 347 0
DWIDTH 27 0
BBX 25 52 1 -1
BITMAP
00F00000
00F00000
00F00000
00F00000
01F00000
01F00000
01F00000
01F00000
03F00000
0FFFFF80
3FFFFF80
FFFFFF80
FFFFFF80
FFFFFF80
03F00000
03F00000
03F00000
03F00000
03F00000
03F00000
03F00000
03F00000
03F00000
03F00000
03F00000
03F00000
03F00000
03F00000
03F00000
03F00000
03F00000
03F00000
03F00000
03F00000
03F00000
03F00000
03F00000
03F00000
03F00000
03F00000
03F80000
03F80000
03F80000
01F80000
01FC0000
01FE0000
00FFEF80
00FFFF80
007FFF80
003FFF80
000FFF80
0001F800
ENDCHAR
STARTCHAR 0075
ENCODING 117
SWIDTH 604 0
DWIDTH 47 0
BBX 35 43 6 -1
BITMAP
FE000007E0
FE000007E0
FE000007E0
FE000007E0
FE000007E0
FE000007E0
FE000007E0
FE000007E0
FE000007E0
FE000007E0
FE000007E0
FE000007E0
FE000007E0
FE000007E0
FE000007E0
FE000007E0
FE000007E0
FE000007E0
FE000007E0
FE000007E0
FE000007E0
FE000007E0
FE000007E0
FE000007E0
FE000007E0
FE00000FE0
FE00000FE0
FE00000FE0
FE00000FE0
FE00000FE0
FE00001FE0
FE00001FE0
7E00001FE0
7F00003FE0
7F80007FE0
3F8000FFE0
3FE003F7E0
1FFFFFF7E0
1FFFFFE7E0
0FFFFFC7E0
03FFFF03E0
00FFFC03E0
000FC00000
ENDCHAR
STARTCHAR 0076
ENCODING 118
SWIDTH 488 0
DWIDTH 38 0
BBX 39 42 0 0
BITMAP
FE000000FE
FE000000FC
7F000001FC
7F000001FC
3F000001F8
3F800003F8
3F800003F8
1F800007F0
1FC00007F0
1FC00007E0
0FC0000FE0
0FE0000FE0
07E0000FC0
07F0001FC0
07F0001F80
03F0001F80
03F8003F80
01F8003F00
01F8007F00
01FC007F00
00FC007E00
00FC00FE00
00FE00FC00
007E00FC00
007F01FC00
003F01F800
003F01F800
003F83F800
001F83F000
001F83F000
001FC7E000
000FC7E000
000FC7E000
0007EFC000
0007EFC000
0007EFC000
0003FF8000
0003FF8000
0003FF0000
0001FF0000
0001FF0000
0000FE0000
ENDCHAR
STARTCHAR 0077
ENCODING 119
SWIDTH 771 0
DWIDTH 60 0
BBX 58 42 1 0
BITMAP
FC00003F80000FC0
FE00007F80000FC0
7E00007F80001FC0
7E00007FC0001F80
7F00007FC0001F80
7F0000FFC0001F80
3F0000FFE0003F80
3F0000FFE0003F00
3F8001FBE0003F00
3F8001FBF0007F00
1F8001F3F0007F00
1F8003F3F0007E00
1FC003F1F0007E00
0FC003F1F800FE00
0FC007E1F800FC00
0FC007E1F800FC00
0FE007E0FC00FC00
07E00FC0FC01FC00
07E00FC0FC01F800
07E00FC07E01F800
07F01F807E01F800
03F01F807E03F800
03F01F803F03F000
03F01F003F03F000
01F83F003F03F000
01F83F001F07E000
01F83E001F87E000
01FC7E001F87E000
00FC7E001F87E000
00FC7C000FCFC000
00FC7C000FCFC000
00FCFC000FCFC000
007EFC0007CF8000
007EF80007FF8000
007EF80007FF8000
003FF80003FF8000
003FF00003FF0000
003FF00003FF0000
003FF00003FF0000
001FE00001FF0000
001FE00001FE0000
001FE00001FE0000
ENDCHAR
STARTCHAR 0078
ENCODING 120
SWIDTH 514 0
DWIDTH 40 0
BBX 37 42 2 0
BITMAP
FE000007F0
7F000007F0
3F80000FE0
3FC0001FC0
1FC0003FC0
0FE0003F80
07F0007F00
07F000FE00
03F800FE00
01FC01FC00
01FC03F800
00FE03F800
007F07F000
007F0FE000
003F8FC000
001FDFC000
000FFF8000
000FFF0000
0007FF0000
0003FE0000
0003FC0000
0003FE0000
0007FE0000
0007FF0000
000FFF8000
001FDF8000
003F9FC000
003F8FE000
007F07F000
00FE07F000
00FE03F800
01FC01FC00
03F801FC00
07F800FE00
07F0007F00
0FE0003F80
1FC0003F80
1FC0001FC0
3F80000FE0
7F00000FE0
7F000007F0
FE000003F8
ENDCHAR
STARTCHAR 0079
ENCODING 121
SWIDTH 488 0
DWIDTH 38 0
BBX 39 61 0 -19
BITMAP
FE000000FE
7E000000FE
7F000001FC
7F000001FC
3F000001F8
3F800003F8
1F800003F8
1FC00003F0
1FC00007F0
0FC00007F0
0FE00007E0
07E0000FE0
07E0000FC0
07F0001FC0
03F0001FC0
03F8001F80
01F8003F80
01F8003F00
01FC003F00
00FC007F00
00FC007E00
007E007E00
007E00FE00
007F00FC00
003F01FC00
003F01F800
001F81F800
001F83F800
001F83F000
000FC3F000
000FC7F000
0007C7E000
0007E7E000
0007EFC000
0003EFC000
0003EFC000
0001FF8000
0001FF8000
0001FF8000
0000FF0000
0000FF0000
00007E0000
00007E0000
0000FE0000
0000FC0000
0001FC0000
0001F80000
0001F80000
0003F80000
0003F00000
0007F00000
0007E00000
000FE00000
001FC00000
007FC00000
7FFF800000
7FFF000000
7FFE000000
7FFC000000
7FF0000000
1F00000000
ENDCHAR
STARTCHAR 007A
ENCODING 122
SWIDTH 462 0
DWIDTH 36 0
BBX 30 42 3 0
BITMAP
7FFFFFFC
7FFFFFFC
7FFFFFFC
7FFFFFFC
7FFFFFFC
000001FC
000003F8
000007F0
000007E0
00000FE0
00001FC0
00001F80
00003F80
00007F00
0000FE00
0000FE00
0001FC00
0003F800
0003F000
0007F000
000FE000
001FC000
001FC000
003F8000
007F0000
007F0000
00FE0000
01FC0000
01F80000
03F80000
07F00000
0FE00000
0FE00000
1FC00000
3F800000
3F800000
7F000000
FFFFFFFC
FFFFFFFC
FFFFFFFC
FFFFFFFC
FFFFFFFC
ENDCHAR
STARTCHAR 007B
ENCODING 123
SWIDTH 372 0
DWIDTH 29 0
BBX 25 68 2 -12
BITMAP
00000080
00003F80
0001FF80
0003FF80
0007FF80
000FFF80
001FF000
003FC000
003F8000
003F8000
003F0000
003F0000
003F0000
003F0000
003F0000
003F0000
003F0000
003F0000
003F0000
003F0000
003F0000
003F0000
003F0000
003F0000
003F0000
007F0000
007F0000
007E0000
007E0000
00FE0000
03FC0000
1FF80000
FFF00000
FFC00000
FF000000
FFE00000
FFF80000
07FC0000
01FC0000
00FE0000
007E0000
007F0000
007F0000
007F0000
003F0000
003F0000
003F0000
003F0000
003F0000
003F0000
003F0000
003F0000
003F0000
003F0000
003F0000
003F0000
003F0000
003F0000
003F0000
003F8000
003F8000
001FC000
001FF800
000FFF80
0007FF80
0003FF80
0000FF80
00003F80
ENDCHAR
STARTCHAR 007C
ENCODING 124
SWIDTH 540 0
DWIDTH 42 0
BBX 5 78 19 -19
BITMAP
F8
F8
F8
F8
F8
F8
F8
F8
F8
F8
F8
F8
F8
F8
F8
F8
F8
F8
F8
F8
F8
F8
F8
F8
F8
F8
F8
F8
F8
F8
F8
F8
F8
F8
F8
F8
F8
F8
F8
F8
F8
F8
F8
F8
F8
F8
F8
F8
F8
F8
F8
F8
F8
F8
F8
F8
F8
F8
F8
F8
F8
F8
F8
F8
F8
F8
F8
F8
F8
F8
F8
F8
F8
F8
F8
F8
F8
F8
ENDCHAR
STARTCHAR 007D
ENCODING 125
SWIDTH 372 0
DWIDTH 29 0
BBX 24 67 3 -11
BITMAP
FE0000
FF8000
FFE000
FFF000
FFF800
0FF800
03FC00
01FC00
00FC00
00FC00
00FE00
00FE00
00FE00
00FE00
00FE00
00FE00
00FE00
00FE00
00FE00
00FE00
00FE00
00FE00
00FE00
00FE00
00FE00
00FE00
007E00
007F00
007F00
003FC0
001FF8
000FFF
0003FF
00007F
0003FF
000FFF
001FF0
003F80
007F00
007E00
007E00
00FE00
00FE00
00FE00
00FE00
00FE00
00FE00
00FE00
00FE00
00FE00
00FE00
00FE00
00FE00
00FE00
00FE00
00FE00
00FE00
00FC00
00FC00
01FC00
03FC00
1FF800
FFF000
FFE000
FFC000
FF0000
FC0000
ENDCHAR
STARTCHAR 007E
ENCODING 126
SWIDTH 565 0
DWIDTH 44 0
BBX 36 9 4 23
BITMAP
07FE000010
1FFFC00030
7FFFF00070
FFFFFE01F0
FFFFFFFFF0
FC07FFFFF0
F000FFFFE0
C0003FFFC0
800007FF00
ENDCHAR
STARTCHAR 00A0
ENCODING 160
SWIDTH 257 0
DWIDTH 20 0
BBX 0 0 0 0
BITMAP
ENDCHAR
STARTCHAR 00A1
ENCODING 161
SWIDTH 257 0
DWIDTH 20 0
BBX 9 56 6 -14
BITMAP
7E00
FF00
FF00
FF80
FF80
FF80
FF80
FF00
7E00
0000
0000
0000
0000
0000
0000
0000
3C00
3C00
3C00
3C00
3C00
3E00
3E00
3E00
3E00
3E00
3E00
3E00
7E00
7E00
7E00
7E00
7E00
7E00
7E00
7E00
7E00
7E00
7E00
7E00
7E00
7E00
7E00
7E00
7F00
7F00
7F00
7F00
7F00
7F00
7F00
FF00
FF00
FF00
FF00
FF00
ENDCHAR
STARTCHAR 00A2
ENCODING 162
SWIDTH 565 0
DWIDTH 44 0
BBX 30 57 7 -1
BITMAP
0001F000
0001F000
0001F000
0001F000
0001F000
0001F000
0003FF80
001FFFF8
007FFFFC
01FFFFFC
03FFFFFC
07FFEFF8
0FFC0038
1FF00000
1FE00000
3FC00000
3F800000
7F000000
7F000000
7F000000
7E000000
FE000000
FE000000
FE000000
FE000000
FE000000
FE000000
FC000000
FC000000
FE000000
FE000000
FE000000
FE000000
FE000000
7E000000
7E000000
7F000000
7F000000
3F800000
3F800000
3FC00000
1FE00000
0FF8001C
0FFFC3FC
07FFFFFC
01FFFFFC
00FFFFFC
003FFFF8
0007FFC0
0001F000
0001F000
0001F000
0001F000
0001F000
0001F000
0001F000
0001F000
ENDCHAR
STARTCHAR 00A3
ENCODING 163
SWIDTH 565 0
DWIDTH 44 0
BBX 38 56 3 0
BITMAP
00007FFC00
0001FFFF80
0007FFFFF0
000FFFFFF0
001FFFFFF0
003FF01FE0
007F8001E0
007F000060
00FE000000
00FE000000
00FC000000
00FC000000
00FC000000
01FC000000
01FC000000
01FC000000
01FC000000
01FC000000
01FC000000
01FC000000
01FC000000
01FC000000
01FC000000
01FC000000
01FC000000
01FC000000
FFFFFFFC00
FFFFFFFC00
FFFFFFFC00
FFFFFFFC00
FFFFFFFC00
01FC000000
01FC000000
01FC000000
01FC000000
01FC000000
01FC000000
01FC000000
01FC000000
01FC000000
01FC000000
01FC000000
01FC000000
01F8000000
01F8000000
03F8000000
03F0000000
07F0000000
0FE0000000
1F80000000
FFFFFFFFFC
FFFFFFFFFC
FFFFFFFFFC
FFFFFFFFFC
FFFFFFFFFC
FFFFFFFFFC
ENDCHAR
STARTCHAR 00A4
ENCODING 164
SWIDTH 565 0
DWIDTH 44 0
BBX 35 35 5 10
BITMAP
1000000100
3800000380
7C01F007C0
FE1FFE0FE0
7F7FFF9FC0
3FFFFFFF80
1FFFFFFF00
0FFC07FE00
07F001FC00
0FC000FC00
0F80007E00
1F80003E00
1F00001F00
1F00001F00
3E00001F00
3E00000F00
3E00000F00
3E00000F80
3E00000F00
3E00000F00
3E00001F00
3F00001F00
1F00001F00
1F80003E00
0F80007E00
0FC000FC00
07F001FC00
0FFC0FFE00
1FFFFFFF00
3FFFFFFF80
7F7FFF9FC0
FE1FFE0FE0
7C03F007C0
3800000380
1000000100
ENDCHAR
STARTCHAR 00A5
ENCODING 165
SWIDTH 565 0
DWIDTH 44 0
BBX 42 56 1 0
BITMAP
FE0000001FC0
7E0000001FC0
7F0000003F80
3F0000003F80
3F8000007F00
1FC000007E00
1FC00000FE00
0FE00000FC00
0FE00001FC00
07F00001F800
03F00003F800
03F80003F000
01F80007F000
01FC0007E000
00FC000FE000
00FE000FC000
007E001F8000
007F001F8000
003F003F0000
003F803F0000
001F807E0000
000FC0FE0000
000FC0FC0000
0007E1FC0000
0007E1F80000
0003F3F80000
0003F3F00000
0001FFE00000
0001FFE00000
0000FFC00000
03FFFFFFF000
03FFFFFFF000
03FFFFFFF000
03FFFFFFF000
00003F000000
00003F000000
00003F000000
00003F000000
00003F000000
00003F000000
00003F000000
03FFFFFFF000
03FFFFFFF000
03FFFFFFF000
03FFFFFFF000
03FFFFFFF000
00003F000000
00003F000000
00003F000000
00003F000000
00003F000000
00003F000000
00003F000000
00003F000000
00003F000000
00003F000000
ENDCHAR
STARTCHAR 00A6
ENCODING 166
SWIDTH 540 0
DWIDTH 42 0
BBX 5 78 19 -19
BITMAP
F8
F8
F8
F8
F8
F8
F8
F8
F8
F8
F8
F8
F8
F8
F8
F8
F8
F8
F8
F8
F8
F8
F8
F8
F8
F8
F8
F8
F8
00
00
00
00
00
00
00
00
00
00
00
00
00
00
00
00
00
00
00
F8
F8
F8
F8
F8
F8
F8
F8
F8
F8
F8
F8
F8
F8
F8
F8
F8
F8
F8
F8
F8
F8
F8
F8
F8
F8
F8
F8
F8
F8
ENDCHAR
STARTCHAR 00A7
ENCODING 167
SWIDTH 501 0
DWIDTH 39 0
BBX 30 59 5 0
BITMAP
00FFFF00
03FFFFE0
0FFFFFF8
1FFFFFF0
3FFEFFF0
7F8001F0
7F000020
7E000000
7E000000
7C000000
7E000000
7E000000
7F000000
7F800000
3FE00000
1FF80000
0FFF0000
07FFC000
01FFF800
07FFFE00
0FFFFF80
1FC3FFC0
3F007FE0
7E001FF0
7C0007F0
7C0003F8
FC0001F8
FC0000F8
FC0000FC
FC0000FC
FC0000FC
7E0000F8
7F0000F8
3FC001F8
3FE001F0
1FFC03F0
0FFF0FE0
03FFFFC0
00FFFF80
003FFF00
000FFF80
0001FFC0
00007FE0
00001FF0
000007F8
000003F8
000001F8
000001F8
000001F8
000001F8
000001F8
000003F8
E00003F8
FC000FF0
FFFFFFE0
FFFFFFC0
FFFFFF80
7FFFFE00
0FFFF000
ENDCHAR
STARTCHAR 00A8
ENCODING 168
SWIDTH 578 0
DWIDTH 45 0
BBX 21 8 12 49
BITMAP
100040
7C01F0
FC01F8
FE03F8
FE03F8
FC01F8
FC01F8
3800E0
ENDCHAR
STARTCHAR 00A9
ENCODING 169
SWIDTH 822 0
DWIDTH 64 0
BBX 57 57 4 -1
BITMAP
000007FFF0000000
00003FFFFE000000
0001FFFFFF800000
0003FFFFFFE00000
000FF8001FF80000
003FC00003FC0000
007F000000FE0000
00FE0000003F0000
01F80000001F8000
03F00000000FC000
03E000000003E000
07C0007FE003F000
0F8001FFFC01F000
0F0007FFFE00F800
1F000FFFFE007C00
3E001FFFFC007C00
3E003FC01C003E00
3C007F0000003E00
7C00FE0000001E00
7800FC0000001F00
7801F80000000F00
F801F80000000F00
F001F80000000F00
F001F00000000F80
F003F00000000F80
F003F00000000780
F003F00000000780
F003F00000000780
F003F00000000780
F003F00000000780
F003F00000000780
F003F00000000780
F003F00000000F80
F001F00000000F80
F801F80000000F00
7801F80000000F00
7801FC0000001F00
7C00FC0000001F00
7C00FE0000001E00
3C007F0004003E00
3E003FE07C003C00
1F001FFFFC007C00
1F000FFFFC00F800
0F8007FFFC00F800
0FC001FFF001F000
07E0000E0003F000
03F000000007E000
01F80000000FC000
00FC0000001F8000
007F0000007F0000
003FC00001FE0000
001FF00007FC0000
0007FF007FF00000
0003FFFFFFC00000
00007FFFFF000000
00001FFFF8000000
000000FF00000000
ENDCHAR
STARTCHAR 00AA
ENCODING 170
SWIDTH 347 0
DWIDTH 27 0
BBX 21 26 3 30
BITMAP
07FE00
3FFFC0
7FFFE0
3FFFE0
3C03F0
0001F0
0000F0
0000F8
0000F8
0000F8
003FF8
07FFF8
1FFFF8
7FFFF8
7E00F8
F800F8
F800F8
F000F8
F000F8
F001F8
F803F8
FC07F8
FFFFF8
7FFE78
3FFC78
0FE078
ENDCHAR
STARTCHAR 00AB
ENCODING 171
SWIDTH 488 0
DWIDTH 38 0
BBX 32 31 3 6
BITMAP
000E001C
001F803F
003F803F
007F007E
007E00FE
00FE01FC
01FC03F8
03F807F0
07F00FE0
0FE00FE0
0FC01FC0
1FC03F80
3F807F00
7F00FE00
FE01FC00
FE01FC00
FE00FE00
7F00FF00
3F807F00
1FC03F80
0FE01FC0
07F00FE0
07F007F0
03F803F0
01FC03F8
00FE01FC
007F00FE
003F007F
001F803F
001F001E
000C001C
ENDCHAR
STARTCHAR 00AC
ENCODING 172
SWIDTH 565 0
DWIDTH 44 0
BBX 36 20 4 10
BITMAP
FFFFFFFFF0
FFFFFFFFF0
FFFFFFFFF0
FFFFFFFFF0
FFFFFFFFF0
00000001F0
00000001F0
00000001F0
00000001F0
00000001F0
00000001F0
00000001F0
00000001F0
00000001F0
00000001F0
00000001F0
00000001F0
00000001F0
00000001F0
00000001F0
ENDCHAR
STARTCHAR 00AD
ENCODING 173
SWIDTH 321 0
DWIDTH 25 0
BBX 19 6 3 18
BITMAP
FFFFE0
FFFFE0
FFFFE0
FFFFE0
FFFFE0
FFFFE0
ENDCHAR
STARTCHAR 00AE
ENCODING 174
SWIDTH 822 0
DWIDTH 64 0
BBX 57 57 4 -1
BITMAP
000007FFF0000000
00003FFFFE000000
0001FFFFFF800000
0003FFFFFFE00000
000FF8001FF80000
003FC00003FC0000
007F000000FE0000
00FE0000003F0000
01F80000001F8000
03F00000000FC000
03E000000003E000
07C03FFE0003F000
0F803FFFE001F000
0F003FFFF800F800
1F003FFFFC007C00
3E003FFFFC007C00
3E003E01FE003E00
3C003E007E003E00
7C003E003F001E00
78003E003F001F00
78003E003F000F00
F8003E003F000F00
F0003E003F000F00
F0003E003F000F80
F0003E007E000F80
F0003E007E000780
F0003E01FC000780
F0003FFFFC000780
F0003FFFF8000780
F0003FFFE0000780
F0003FFFC0000780
F0003FFFC0000780
F0003E07E0000F80
F0003E03F0000F80
F8003E03F0000F00
78003E01F8000F00
78003E01F8001F00
7C003E00FC001F00
7C003E007E001E00
3C003E007E003E00
3E003E003F003C00
1F003E003F007C00
1F003E001F80F800
0F803E001FC0F800
0FC03E000FC1F000
07E000000003F000
03F000000007E000
01F80000000FC000
00FC0000001F8000
007F0000007F0000
003FC00001FE0000
001FF00007FC0000
0007FF007FF00000
0003FFFFFFC00000
00007FFFFF000000
00001FFFF8000000
000000FF00000000
ENDCHAR
STARTCHAR 00AF
ENCODING 175
SWIDTH 488 0
DWIDTH 38 0
BBX 39 5 0 59
BITMAP
FFFFFFFFFE
FFFFFFFFFE
FFFFFFFFFE
FFFFFFFFFE
FFFFFFFFFE
ENDCHAR
STARTCHAR 00B0
ENCODING 176
SWIDTH 424 0
DWIDTH 33 0
BBX 25 23 4 33
BITMAP
00FFC000
03FFF000
0FFFF800
1FFFFC00
3F80FE00
3F003E00
7E001F00
7C001F00
7C000F80
78000F80
F8000F80
F8000F80
F8000F80
78000F80
7C000F80
7C001F00
7E001F00
3F003E00
3F80FE00
1FFFFC00
0FFFF800
03FFF000
00FFC000
ENDCHAR
STARTCHAR 00B1
ENCODING 177
SWIDTH 565 0
DWIDTH 44 0
BBX 36 46 4 0
BITMAP
0000F80000
0000F80000
0000F80000
0000F80000
0000F80000
0000F80000
0000F80000
0000F80000
0000F80000
0000F80000
0000F80000
0000F80000
0000F80000
0000F80000
0000F80000
0000F80000
FFFFFFFFF0
FFFFFFFFF0
FFFFFFFFF0
FFFFFFFFF0
FFFFFFFFF0
0000F80000
0000F80000
0000F80000
0000F80000
0000F80000
0000F80000
0000F80000
0000F80000
0000F80000
0000F80000
0000F80000
0000F80000
0000F80000
0000F80000
0000F80000
0000F80000
0000000000
0000000000
0000000000
0000000000
FFFFFFFFF0
FFFFFFFFF0
FFFFFFFFF0
FFFFFFFFF0
FFFFFFFFF0
ENDCHAR
STARTCHAR 00B2
ENCODING 178
SWIDTH 347 0
DWIDTH 27 0
BBX 22 34 2 32
BITMAP
03FF00
0FFFC0
3FFFE0
7FFFF0
7F03F8
3801F8
3000FC
0000FC
00007C
00007C
0000FC
0000F8
0000F8
0001F8
0001F0
0003F0
0007E0
000FC0
001F80
003F00
007E00
00FC00
01F800
03F000
07E000
0FC000
1F8000
3F0000
7E0000
FFFFFC
FFFFFC
FFFFFC
FFFFFC
FFFFFC
ENDCHAR
STARTCHAR 00B3
ENCODING 179
SWIDTH 347 0
DWIDTH 27 0
BBX 24 34 1 32
BITMAP
03FF80
0FFFE0
3FFFF8
7FFFF8
7F01FC
3800FC
10007E
00007E
00003E
00003E
00007E
00007C
0000FC
0001F8
07FFF0
07FFE0
07FFC0
07FFF0
001FFC
0000FC
00007E
00003E
00003F
00001F
00001F
00003F
00003F
00007E
E0007E
FC01FC
FFFFF8
FFFFF0
7FFFE0
0FFF80
ENDCHAR
STARTCHAR 00B4
ENCODING 180
SWIDTH 270 0
DWIDTH 21 0
BBX 16 13 3 47
BITMAP
00FF
01FE
01FE
03FC
07F8
07F0
0FE0
1FC0
1F80
3F00
7E00
FC00
F800
ENDCHAR
STARTCHAR 00B5
ENCODING 181
SWIDTH 617 0
DWIDTH 48 0
BBX 34 61 7 -19
BITMAP
FC00000FC0
FC00000FC0
FC00000FC0
FC00000FC0
FC00000FC0
FC00000FC0
FC00000FC0
FC00000FC0
FC00000FC0
FC00000FC0
FC00000FC0
FC00000FC0
FC00000FC0
FC00000FC0
FC00000FC0
FC00000FC0
FC00000FC0
FC00000FC0
FC00000FC0
FC00000FC0
FC00000FC0
FC00000FC0
FC00000FC0
FC00000FC0
FC00000FC0
FC00000FC0
FC00000FC0
FC00000FC0
FC00000FC0
FC00001FC0
FC00001FC0
FC00001FC0
FE00003FC0
FE00007FC0
FF00007FC0
FF8001FFC0
FFE003FFC0
FFFFFFE7C0
FFFFFFC7C0
FFFFFF87C0
FCFFFF07C0
FC7FFC07C0
FC0FE00000
FC00000000
FC00000000
FC00000000
FC00000000
FC00000000
FC00000000
FC00000000
FC00000000
FC00000000
FC00000000
FC00000000
FC00000000
FC00000000
FC00000000
FC00000000
FC00000000
FC00000000
FC00000000
ENDCHAR
STARTCHAR 00B6
ENCODING 182
SWIDTH 642 0
DWIDTH 50 0
BBX 37 69 5 -10
BITMAP
001FFFFFF8
00FFFFFFF8
03FFFFFFF8
07FFFFFFF8
0FFFFF8078
1FFFFF8078
3FFFFF8078
3FFFFF8078
7FFFFF8078
7FFFFF8078
7FFFFF8078
FFFFFF8078
FFFFFF8078
FFFFFF8078
FFFFFF8078
FFFFFF8078
FFFFFF8078
FFFFFF8078
FFFFFF8078
FFFFFF8078
FFFFFF8078
FFFFFF8078
FFFFFF8078
FFFFFF8078
FFFFFF8078
FFFFFF8078
FFFFFF8078
7FFFFF8078
7FFFFF8078
7FFFFF8078
3FFFFF8078
3FFFFF8078
1FFFFF8078
0FFFFF8078
07FFFF8078
03FFFF8078
00FFFF8078
0007E78078
0000078078
0000078078
0000078078
0000078078
0000078078
0000078078
0000078078
0000078078
0000078078
0000078078
0000078078
0000078078
0000078078
0000078078
0000078078
0000078078
0000078078
0000078078
0000078078
0000078078
0000078078
0000078078
0000078078
0000078078
0000078078
0000078078
0000078078
0000078078
0000078078
0000078078
0000078078
ENDCHAR
STARTCHAR 00B7
ENCODING 183
SWIDTH 257 0
DWIDTH 20 0
BBX 9 10 6 22
BITMAP
3C00
7F00
FF00
FF80
FF80
FF80
FF80
FF00
7F00
3C00
ENDCHAR
STARTCHAR 00B8
ENCODING 184
SWIDTH 218 0
DWIDTH 17 0
BBX 15 19 1 -19
BITMAP
03C0
07C0
0780
0F80
0F80
1FF0
1FF8
01FC
007E
003E
003E
003E
003E
007E
C3FC
FFFC
FFF8
FFE0
7E00
ENDCHAR
STARTCHAR 00B9
ENCODING 185
SWIDTH 347 0
DWIDTH 27 0
BBX 15 34 3 32
BITMAP
003E
00FE
01FE
07FE
0FFE
1FFE
7FBE
FE3E
7C3E
703E
203E
003E
003E
003E
003E
003E
003E
003E
003E
003E
003E
003E
003E
003E
003E
003E
003E
003E
003E
003E
003E
003E
003E
003E
ENDCHAR
STARTCHAR 00BA
ENCODING 186
SWIDTH 372 0
DWIDTH 29 0
BBX 24 26 3 30
BITMAP
01FF00
07FFC0
1FFFF0
3FFFF8
3F01F8
7C007C
7C007C
F8003E
F8003E
F0001E
F0001E
F0001F
F0001F
F0001F
F0001F
F0001E
F0001E
F8003E
F8003E
7C007C
7C007C
3F01F8
1FFFF0
0FFFE0
07FFC0
01FF00
ENDCHAR
STARTCHAR 00BB
ENCODING 187
SWIDTH 488 0
DWIDTH 38 0
BBX 33 32 3 5
BITMAP
0800100000
3800300000
7C00F80000
FE00FC0000
7F00FE0000
3F807F0000
1FC03F8000
0FC01FC000
0FE00FC000
07F00FE000
03F807F000
01FC03F800
00FE01FC00
00FE00FE00
007F00FE00
003F807F00
001F803F80
003F807F00
007F00FE00
00FE01FC00
01FC01FC00
01F803F800
03F807F000
07F00FE000
0FE01FC000
1FC03F8000
1F803F0000
3F007F0000
7F00FE0000
FE01FC0000
7C00F80000
1800300000
ENDCHAR
STARTCHAR 00BC
ENCODING 188
SWIDTH 732 0
DWIDTH 57 0
BBX 54 56 3 0
BITMAP
003E000000FC00
00FE000000F800
01FE000001F800
07FE000003F000
0FFE000003E000
3FFE000007E000
7F3E000007C000
FE3E00000FC000
FC3E00001F8000
703E00001F0000
203E00003F0000
003E00003E0000
003E00007E0000
003E0000FC0000
003E0000F80000
003E0001F80000
003E0001F00000
003E0003F00000
003E0007E00000
003E0007C00000
003E000FC00000
003E000F800000
003E001F800F80
003E003F001F80
003E003E003F80
003E007E003F80
003E007C007F80
003E00FC00FF80
003E01F801FF80
003E01F001EF80
003E03F003EF80
003E03E007CF80
003E07E0078F80
003E0FC00F8F80
00000F801F0F80
00001F801E0F80
00001F003E0F80
00003F007C0F80
00007E00780F80
00007C00F00F80
0000FC01F00F80
0000F803E00F80
0001F803C00F80
0003F007C00F80
0003E00FFFFFFC
0007E00FFFFFFC
0007C00FFFFFFC
000FC00FFFFFFC
001F8000000F80
001F0000000F80
003F0000000F80
003E0000000F80
007E0000000F80
00FC0000000F80
00F80000000F80
01F80000000F80
ENDCHAR
STARTCHAR 00BD
ENCODING 189
SWIDTH 758 0
DWIDTH 59 0
BBX 55 56 2 0
BITMAP
003E000001F800
00FE000001F000
01FE000003F000
07FE000007E000
0FFE000007C000
1FFE00000FC000
7FBE00000F8000
FE3E00001F8000
FC3E00003F0000
703E00003E0000
203E00007E0000
003E00007C0000
003E0000FC0000
003E0001F80000
003E0001F00000
003E0003F00000
003E0003E00000
003E0007C00000
003E000FC00000
003E000F800000
003E001F800000
003E001F000000
003E003E00FF00
003E007E07FFC0
003E007C1FFFF0
003E00FC3FFFF8
003E00F87F83F8
003E01F03E00FC
003E03F018007C
003E03E000007C
003E07E000007C
003E07C000007C
003E0F8000007C
003E1F8000007C
00001F0000007C
00003F000000FC
00003E000000F8
00007C000001F8
0000FC000003F0
0000F8000007E0
0001F800000FC0
0001F000001F80
0003E000003F00
0007E000007E00
0007C00000FC00
000FC00001F800
000F800003F000
001F000007E000
003F00000FC000
003E00001F8000
007E00003F0000
007C00007FFFFE
00F800007FFFFE
01F800007FFFFE
01F000007FFFFE
03F000007FFFFE
ENDCHAR
STARTCHAR 00BE
ENCODING 190
SWIDTH 771 0
DWIDTH 60 0
BBX 59 56 1 0
BITMAP
03FF80000003E000
0FFFE0000007E000
3FFFF0000007C000
7FFFF800000FC000
7F01FC00001F8000
3C00FC00001F0000
10007E00003F0000
00007E00003E0000
00007E00007E0000
00007E0000FC0000
00007C0000F80000
00007C0001F80000
0000FC0001F00000
0001F80003F00000
07FFF00007E00000
07FFE00007C00000
07FF80000FC00000
07FFF0000F800000
07FFF8001F800000
0001FC003F000000
00007E003E000000
00003E007E000000
00003F007C007C00
00003F00FC00FC00
00003F01F801FC00
00003F01F001FC00
00003E03F003FC00
00007E03E007FC00
C0007E07E00FFC00
F801FC0FC00F7C00
FFFFF80F801F7C00
FFFFF01F803E7C00
7FFFE01F003C7C00
0FFF803F007C7C00
0000007E00F87C00
0000007C00F07C00
000000FC01F07C00
000000F803E07C00
000001F803C07C00
000003F007C07C00
000003E00F807C00
000007E01F007C00
000007C01E007C00
00000FC03E007C00
00001F807FFFFFE0
00001F007FFFFFE0
00003F007FFFFFE0
00003E007FFFFFE0
00007E0000007C00
0000FC0000007C00
0000F80000007C00
0001F80000007C00
0001F00000007C00
0003F00000007C00
0007E00000007C00
0007C00000007C00
ENDCHAR
STARTCHAR 00BF
ENCODING 191
SWIDTH 424 0
DWIDTH 33 0
BBX 30 57 2 -15
BITMAP
0001F800
0003FC00
0007FC00
0007FC00
0007FC00
0007FC00
0007FC00
0003FC00
0001F800
00000000
00000000
00000000
00000000
00000000
00000000
00000000
0001F800
0001F800
0001F800
0001F000
0001F000
0001F000
0003F000
0003F000
0007F000
000FE000
001FC000
003FC000
007F8000
00FF0000
01FE0000
03FC0000
07F80000
0FE00000
1FC00000
3F800000
3F000000
7F000000
7E000000
FE000000
FC000000
FC000000
FC000000
FC000000
FC000000
FC000000
FE000000
7E000000
7F000010
7F800078
3FE003F8
3FFFFFFC
1FFFFFFC
0FFFFFFC
03FFFFF0
01FFFF80
001FF800
ENDCHAR
STARTCHAR 00C0
ENCODING 192
SWIDTH 630 0
DWIDTH 49 0
BBX 49 74 0 0
BITMAP
0003FC00000000
0001FC00000000
0001FE00000000
0000FF00000000
00007F00000000
00003F80000000
00001FC0000000
00000FC0000000
000007E0000000
000003F0000000
000001F8000000
000000F8000000
0000007C000000
00000000000000
00000000000000
00000000000000
00000000000000
00000000000000
000003F0000000
000007F0000000
000007F0000000
00000FF8000000
00000FF8000000
00000FFC000000
00001FFC000000
00001F7C000000
00003F7E000000
00003F7E000000
00003F3F000000
00007E3F000000
00007E3F000000
00007E1F800000
0000FC1F800000
0000FC1F800000
0001FC0FC00000
0001F80FC00000
0001F80FE00000
0003F007E00000
0003F007E00000
0007F003F00000
0007E003F00000
0007E003F80000
000FE001F80000
000FC001F80000
001FC001FC0000
001F8000FC0000
001F8000FC0000
003F8000FE0000
003F00007E0000
003F00007F0000
007F00003F0000
007FFFFFFF0000
00FFFFFFFF8000
00FFFFFFFF8000
00FFFFFFFFC000
01FFFFFFFFC000
01F800000FC000
03F800000FE000
03F800000FE000
03F0000007F000
07F0000007F000
07E0000003F000
0FE0000003F800
0FE0000003F800
0FC0000001F800
1FC0000001FC00
1F80000000FC00
1F80000000FE00
3F80000000FE00
3F000000007E00
7F000000007F00
7F000000007F00
7E000000003F80
FE000000003F80
ENDCHAR
STARTCHAR 00C1
ENCODING 193
SWIDTH 630 0
DWIDTH 49 0
BBX 49 74 0 0
BITMAP
0000000FF00000
0000001FE00000
0000001FE00000
0000003FC00000
0000007F800000
0000007F000000
000000FE000000
000001FC000000
000001F8000000
000003F0000000
000007E0000000
000007C0000000
00000F80000000
00000000000000
00000000000000
00000000000000
00000000000000
00000000000000
000003F0000000
000007F0000000
000007F0000000
00000FF8000000
00000FF8000000
00000FFC000000
00001FFC000000
00001F7C000000
00003F7E000000
00003F7E000000
00003F3F000000
00007E3F000000
00007E3F000000
00007E1F800000
0000FC1F800000
0000FC1F800000
0001FC0FC00000
0001F80FC00000
0001F80FE00000
0003F007E00000
0003F007E00000
0007F003F00000
0007E003F00000
0007E003F80000
000FE001F80000
000FC001F80000
001FC001FC0000
001F8000FC0000
001F8000FC0000
003F8000FE0000
003F00007E0000
003F00007F0000
007F00003F0000
007FFFFFFF0000
00FFFFFFFF8000
00FFFFFFFF8000
00FFFFFFFFC000
01FFFFFFFFC000
01F800000FC000
03F800000FE000
03F800000FE000
03F0000007F000
07F0000007F000
07E0000003F000
0FE0000003F800
0FE0000003F800
0FC0000001F800
1FC0000001FC00
1F80000000FC00
1F80000000FE00
3F80000000FE00
3F000000007E00
7F000000007F00
7F000000007F00
7E000000003F80
FE000000003F80
ENDCHAR
STARTCHAR 00C2
ENCODING 194
SWIDTH 630 0
DWIDTH 49 0
BBX 49 73 0 0
BITMAP
000007F0000000
00000FF8000000
00001FFC000000
00001FFE000000
00003FFE000000
00007F7F000000
0000FE3F800000
0001FC1FC00000
0003F807E00000
0007E003F00000
000FC001F80000
000F8000F80000
00000000000000
00000000000000
00000000000000
00000000000000
00000000000000
000003F0000000
000007F0000000
000007F0000000
00000FF8000000
00000FF8000000
00000FFC000000
00001FFC000000
00001F7C000000
00003F7E000000
00003F7E000000
00003F3F000000
00007E3F000000
00007E3F000000
00007E1F800000
0000FC1F800000
0000FC1F800000
0001FC0FC00000
0001F80FC00000
0001F80FE00000
0003F007E00000
0003F007E00000
0007F003F00000
0007E003F00000
0007E003F80000
000FE001F80000
000FC001F80000
001FC001FC0000
001F8000FC0000
001F8000FC0000
003F8000FE0000
003F00007E0000
003F00007F0000
007F00003F0000
007FFFFFFF0000
00FFFFFFFF8000
00FFFFFFFF8000
00FFFFFFFFC000
01FFFFFFFFC000
01F800000FC000
03F800000FE000
03F800000FE000
03F0000007F000
07F0000007F000
07E0000003F000
0FE0000003F800
0FE0000003F800
0FC0000001F800
1FC0000001FC00
1F80000000FC00
1F80000000FE00
3F80000000FE00
3F000000007E00
7F000000007F00
7F000000007F00
7E000000003F80
FE000000003F80
ENDCHAR
STARTCHAR 00C3
ENCODING 195
SWIDTH 630 0
DWIDTH 49 0
BBX 49 71 0 0
BITMAP
0000F8001C0000
0003FE003C0000
0007FF803C0000
000FFFE07C0000
000FFFF8F80000
001F8FFFF80000
001E03FFF00000
001E00FFF00000
003C003FC00000
003C000F000000
00000000000000
00000000000000
00000000000000
00000000000000
00000000000000
000003F0000000
000007F0000000
000007F0000000
00000FF8000000
00000FF8000000
00000FFC000000
00001FFC000000
00001F7C000000
00003F7E000000
00003F7E000000
00003F3F000000
00007E3F000000
00007E3F000000
00007E1F800000
0000FC1F800000
0000FC1F800000
0001FC0FC00000
0001F80FC00000
0001F80FE00000
0003F007E00000
0003F007E00000
0007F003F00000
0007E003F00000
0007E003F80000
000FE001F80000
000FC001F80000
001FC001FC0000
001F8000FC0000
001F8000FC0000
003F8000FE0000
003F00007E0000
003F00007F0000
007F00003F0000
007FFFFFFF0000
00FFFFFFFF8000
00FFFFFFFF8000
00FFFFFFFFC000
01FFFFFFFFC000
01F800000FC000
03F800000FE000
03F800000FE000
03F0000007F000
07F0000007F000
07E0000003F000
0FE0000003F800
0FE0000003F800
0FC0000001F800
1FC0000001FC00
1F80000000FC00
1F80000000FE00
3F80000000FE00
3F000000007E00
7F000000007F00
7F000000007F00
7E000000003F80
FE000000003F80
ENDCHAR
STARTCHAR 00C4
ENCODING 196
SWIDTH 630 0
DWIDTH 49 0
BBX 49 70 0 1
BITMAP
0001F007C00000
0003F007E00000
0003F80FE00000
0003F80FE00000
0003F00FE00000
0003F007E00000
0000E003800000
00000000000000
00000000000000
00000000000000
00000000000000
00000000000000
00000000000000
00000000000000
000003F0000000
000007F0000000
000007F0000000
00000FF8000000
00000FF8000000
00000FFC000000
00001FFC000000
00001F7C000000
00003F7E000000
00003F7E000000
00003F3F000000
00007E3F000000
00007E3F000000
00007E1F800000
0000FC1F800000
0000FC1F800000
0001FC0FC00000
0001F80FC00000
0001F80FE00000
0003F007E00000
0003F007E00000
0007F003F00000
0007E003F00000
0007E003F80000
000FE001F80000
000FC001F80000
001FC001FC0000
001F8000FC0000
001F8000FC0000
003F8000FE0000
003F00007E0000
003F00007F0000
007F00003F0000
007FFFFFFF0000
00FFFFFFFF8000
00FFFFFFFF8000
00FFFFFFFFC000
01FFFFFFFFC000
01F800000FC000
03F800000FE000
03F800000FE000
03F0000007F000
07F0000007F000
07E0000003F000
0FE0000003F800
0FE0000003F800
0FC0000001F800
1FC0000001FC00
1F80000000FC00
1F80000000FE00
3F80000000FE00
3F000000007E00
7F000000007F00
7F000000007F00
7E000000003F80
FE000000003F80
ENDCHAR
STARTCHAR 00C5
ENCODING 197
SWIDTH 630 0
DWIDTH 49 0
BBX 49 68 0 0
BITMAP
00000FF8000000
00001FFC000000
00003FFE000000
00007E3F000000
0000780F000000
0000F00F800000
0000F007800000
0000F007800000
0000F007800000
0000F007800000
0000F80F800000
00007C1F000000
00007FFF000000
00003FFE000000
00001FF8000000
00000FF8000000
00000FF8000000
00000FFC000000
00001FFC000000
00001F7C000000
00003F7E000000
00003F7E000000
00003F3F000000
00007E3F000000
00007E3F000000
00007E1F800000
0000FC1F800000
0000FC1F800000
0001FC0FC00000
0001F80FC00000
0001F80FE00000
0003F007E00000
0003F007E00000
0007F003F00000
0007E003F00000
0007E003F80000
000FE001F80000
000FC001F80000
001FC001FC0000
001F8000FC0000
001F8000FC0000
003F8000FE0000
003F00007E0000
003F00007F0000
007F00003F0000
007FFFFFFF0000
00FFFFFFFF8000
00FFFFFFFF8000
00FFFFFFFFC000
01FFFFFFFFC000
01F800000FC000
03F800000FE000
03F800000FE000
03F0000007F000
07F0000007F000
07E0000003F000
0FE0000003F800
0FE0000003F800
0FC0000001F800
1FC0000001FC00
1F80000000FC00
1F80000000FE00
3F80000000FE00
3F000000007E00
7F000000007F00
7F000000007F00
7E000000003F80
FE000000003F80
ENDCHAR
STARTCHAR 00C6
ENCODING 198
SWIDTH 861 0
DWIDTH 67 0
BBX 63 56 0 0
BITMAP
0000003FFFFFFFFE
0000003FFFFFFFFE
0000007FFFFFFFFE
0000007FFFFFFFFE
000000FFFFFFFFFE
000000FFFFFFFFFE
000001FC3F800000
000001F83F800000
000003F83F800000
000003F03F800000
000007F03F800000
000007E03F800000
00000FE03F800000
00000FC03F800000
00001FC03F800000
00001FC03F800000
00003F803F800000
00003F803F800000
00003F003F800000
00007F003F800000
00007E003F800000
0000FE003F800000
0000FC003F800000
0001FC003F800000
0001F8003FFFFFFC
0003F8003FFFFFFC
0003F0003FFFFFFC
0007F0003FFFFFFC
0007F0003FFFFFFC
000FE0003FFFFFFC
000FE0003F800000
001FC0003F800000
001FC0003F800000
003FFFFFFF800000
003FFFFFFF800000
003FFFFFFF800000
007FFFFFFF800000
007FFFFFFF800000
00FE00003F800000
00FE00003F800000
01FC00003F800000
01FC00003F800000
03F800003F800000
03F800003F800000
07F000003F800000
07F000003F800000
0FE000003F800000
0FE000003F800000
1FC000003F800000
1FC000003F800000
3F8000003FFFFFFE
3F8000003FFFFFFE
3F0000003FFFFFFE
7F0000003FFFFFFE
7E0000003FFFFFFE
FE0000003FFFFFFE
ENDCHAR
STARTCHAR 00C7
ENCODING 199
SWIDTH 630 0
DWIDTH 49 0
BBX 41 75 5 -19
BITMAP
00001FFFE000
0000FFFFFC00
0007FFFFFF80
000FFFFFFF80
003FFFFFFF80
007FFF8FFF00
00FFE0003F00
01FF80000600
03FE00000000
07FC00000000
0FF800000000
0FF000000000
1FE000000000
1FC000000000
3FC000000000
3F8000000000
3F8000000000
7F0000000000
7F0000000000
7F0000000000
FE0000000000
FE0000000000
FE0000000000
FE0000000000
FE0000000000
FE0000000000
FE0000000000
FE0000000000
FE0000000000
FE0000000000
FE0000000000
FE0000000000
FE0000000000
FE0000000000
FE0000000000
FE0000000000
FE0000000000
7F0000000000
7F0000000000
7F0000000000
7F8000000000
3F8000000000
3FC000000000
1FC000000000
1FE000000000
0FF000000000
0FF800000000
07FC00000000
03FF00000000
01FFC0000700
01FFF8007F00
007FFFFFFF00
003FFFFFFF00
001FFFFFFF00
0007FFFFFF00
0000FFFFF800
000007FE0000
000003C00000
000007C00000
000007800000
00000FC00000
00000FF00000
00001FFC0000
000001FE0000
0000007E0000
0000003E0000
0000003E0000
0000003E0000
0000003E0000
0000007E0000
0000C3FE0000
0000FFFC0000
0000FFF80000
0000FFE00000
00003F000000
ENDCHAR
STARTCHAR 00C8
ENCODING 200
SWIDTH 552 0
DWIDTH 43 0
BBX 31 74 8 0
BITMAP
03F80000
03FC0000
01FC0000
01FE0000
00FE0000
007F0000
003F8000
001F8000
000FC000
0007E000
0003F000
0001F800
0000F800
00000000
00000000
00000000
00000000
00000000
FFFFFFFE
FFFFFFFE
FFFFFFFE
FFFFFFFE
FFFFFFFE
FFFFFFFE
FC000000
FC000000
FC000000
FC000000
FC000000
FC000000
FC000000
FC000000
FC000000
FC000000
FC000000
FC000000
FC000000
FC000000
FC000000
FC000000
FC000000
FC000000
FFFFFFF8
FFFFFFF8
FFFFFFF8
FFFFFFF8
FFFFFFF8
FFFFFFF8
FC000000
FC000000
FC000000
FC000000
FC000000
FC000000
FC000000
FC000000
FC000000
FC000000
FC000000
FC000000
FC000000
FC000000
FC000000
FC000000
FC000000
FC000000
FC000000
FC000000
FFFFFFFE
FFFFFFFE
FFFFFFFE
FFFFFFFE
FFFFFFFE
FFFFFFFE
ENDCHAR
STARTCHAR 00C9
ENCODING 201
SWIDTH 552 0
DWIDTH 43 0
BBX 31 74 8 0
BITMAP
00001FE0
00001FE0
00003FC0
00007F80
00007F00
0000FE00
0001FC00
0001F800
0003F000
0007E000
0007C000
000F8000
001F0000
00000000
00000000
00000000
00000000
00000000
FFFFFFFE
FFFFFFFE
FFFFFFFE
FFFFFFFE
FFFFFFFE
FFFFFFFE
FC000000
FC000000
FC000000
FC000000
FC000000
FC000000
FC000000
FC000000
FC000000
FC000000
FC000000
FC000000
FC000000
FC000000
FC000000
FC000000
FC000000
FC000000
FFFFFFF8
FFFFFFF8
FFFFFFF8
FFFFFFF8
FFFFFFF8
FFFFFFF8
FC000000
FC000000
FC000000
FC000000
FC000000
FC000000
FC000000
FC000000
FC000000
FC000000
FC000000
FC000000
FC000000
FC000000
FC000000
FC000000
FC000000
FC000000
FC000000
FC000000
FFFFFFFE
FFFFFFFE
FFFFFFFE
FFFFFFFE
FFFFFFFE
FFFFFFFE
ENDCHAR
STARTCHAR 00CA
ENCODING 202
SWIDTH 552 0
DWIDTH 43 0
BBX 31 73 8 0
BITMAP
000FF000
001FF000
001FF800
003FFC00
007FFE00
00FE7E00
01FC3F00
03F81F80
03F00FC0
07E007E0
0F8003F0
1F0000F8
00000000
00000000
00000000
00000000
00000000
FFFFFFFE
FFFFFFFE
FFFFFFFE
FFFFFFFE
FFFFFFFE
FFFFFFFE
FC000000
FC000000
FC000000
FC000000
FC000000
FC000000
FC000000
FC000000
FC000000
FC000000
FC000000
FC000000
FC000000
FC000000
FC000000
FC000000
FC000000
FC000000
FFFFFFF8
FFFFFFF8
FFFFFFF8
FFFFFFF8
FFFFFFF8
FFFFFFF8
FC000000
FC000000
FC000000
FC000000
FC000000
FC000000
FC000000
FC000000
FC000000
FC000000
FC000000
FC000000
FC000000
FC000000
FC000000
FC000000
FC000000
FC000000
FC000000
FC000000
FFFFFFFE
FFFFFFFE
FFFFFFFE
FFFFFFFE
FFFFFFFE
FFFFFFFE
ENDCHAR
STARTCHAR 00CB
ENCODING 203
SWIDTH 552 0
DWIDTH 43 0
BBX 31 71 8 0
BITMAP
00800100
03E00FC0
07F00FC0
07F00FC0
07F00FC0
07F00FC0
03E00FC0
01C00780
00000000
00000000
00000000
00000000
00000000
00000000
00000000
FFFFFFFE
FFFFFFFE
FFFFFFFE
FFFFFFFE
FFFFFFFE
FFFFFFFE
FC000000
FC000000
FC000000
FC000000
FC000000
FC000000
FC000000
FC000000
FC000000
FC000000
FC000000
FC000000
FC000000
FC000000
FC000000
FC000000
FC000000
FC000000
FFFFFFF8
FFFFFFF8
FFFFFFF8
FFFFFFF8
FFFFFFF8
FFFFFFF8
FC000000
FC000000
FC000000
FC000000
FC000000
FC000000
FC000000
FC000000
FC000000
FC000000
FC000000
FC000000
FC000000
FC000000
FC000000
FC000000
FC000000
FC000000
FC000000
FC000000
FFFFFFFE
FFFFFFFE
FFFFFFFE
FFFFFFFE
FFFFFFFE
FFFFFFFE
ENDCHAR
STARTCHAR 00CC
ENCODING 204
SWIDTH 270 0
DWIDTH 21 0
BBX 15 74 0 0
BITMAP
FE00
FF00
FF00
7F80
3F80
1FC0
0FE0
07E0
03F0
01F8
00FC
007C
003E
0000
0000
0000
0000
0000
00FC
00FC
00FC
00FC
00FC
00FC
00FC
00FC
00FC
00FC
00FC
00FC
00FC
00FC
00FC
00FC
00FC
00FC
00FC
00FC
00FC
00FC
00FC
00FC
00FC
00FC
00FC
00FC
00FC
00FC
00FC
00FC
00FC
00FC
00FC
00FC
00FC
00FC
00FC
00FC
00FC
00FC
00FC
00FC
00FC
00FC
00FC
00FC
00FC
00FC
00FC
00FC
00FC
00FC
00FC
00FC
ENDCHAR
STARTCHAR 00CD
ENCODING 205
SWIDTH 270 0
DWIDTH 21 0
BBX 15 74 7 0
BITMAP
00FE
01FE
03FC
03F8
07F8
07F0
0FE0
1FC0
1F80
3F00
7E00
FC00
F800
0000
0000
0000
0000
0000
7E00
7E00
7E00
7E00
7E00
7E00
7E00
7E00
7E00
7E00
7E00
7E00
7E00
7E00
7E00
7E00
7E00
7E00
7E00
7E00
7E00
7E00
7E00
7E00
7E00
7E00
7E00
7E00
7E00
7E00
7E00
7E00
7E00
7E00
7E00
7E00
7E00
7E00
7E00
7E00
7E00
7E00
7E00
7E00
7E00
7E00
7E00
7E00
7E00
7E00
7E00
7E00
7E00
7E00
7E00
7E00
ENDCHAR
STARTCHAR 00CE
ENCODING 206
SWIDTH 270 0
DWIDTH 21 0
BBX 26 73 -2 0
BITMAP
007F8000
00FF8000
00FFC000
01FFE000
03FFF000
07F3F000
0FE1F800
1FC0FC00
3F807E00
3F003F00
7C001F80
F8000FC0
00000000
00000000
00000000
00000000
00000000
003F0000
003F0000
003F0000
003F0000
003F0000
003F0000
003F0000
003F0000
003F0000
003F0000
003F0000
003F0000
003F0000
003F0000
003F0000
003F0000
003F0000
003F0000
003F0000
003F0000
003F0000
003F0000
003F0000
003F0000
003F0000
003F0000
003F0000
003F0000
003F0000
003F0000
003F0000
003F0000
003F0000
003F0000
003F0000
003F0000
003F0000
003F0000
003F0000
003F0000
003F0000
003F0000
003F0000
003F0000
003F0000
003F0000
003F0000
003F0000
003F0000
003F0000
003F0000
003F0000
003F0000
003F0000
003F0000
003F0000
ENDCHAR
STARTCHAR 00CF
ENCODING 207
SWIDTH 270 0
DWIDTH 21 0
BBX 22 71 0 0
BITMAP
100000
7C00F8
FE01F8
FE01FC
FE01FC
FE01FC
7C01F8
380070
000000
000000
000000
000000
000000
000000
000000
00FC00
00FC00
00FC00
00FC00
00FC00
00FC00
00FC00
00FC00
00FC00
00FC00
00FC00
00FC00
00FC00
00FC00
00FC00
00FC00
00FC00
00FC00
00FC00
00FC00
00FC00
00FC00
00FC00
00FC00
00FC00
00FC00
00FC00
00FC00
00FC00
00FC00
00FC00
00FC00
00FC00
00FC00
00FC00
00FC00
00FC00
00FC00
00FC00
00FC00
00FC00
00FC00
00FC00
00FC00
00FC00
00FC00
00FC00
00FC00
00FC00
00FC00
00FC00
00FC00
00FC00
00FC00
00FC00
00FC00
ENDCHAR
STARTCHAR 00D0
ENCODING 208
SWIDTH 720 0
DWIDTH 56 0
BBX 50 56 2 0
BITMAP
03FFFE00000000
03FFFFFE000000
03FFFFFFE00000
03FFFFFFF80000
03FFFFFFFE0000
03FFFFFFFF0000
03F8001FFF8000
03F80001FFC000
03F800007FE000
03F800001FF000
03F800000FF800
03F8000007FC00
03F8000003FC00
03F8000001FE00
03F8000000FE00
03F8000000FF00
03F80000007F00
03F80000007F00
03F80000003F80
03F80000003F80
03F80000003F80
03F80000003F80
03F80000003F80
03F80000001F80
03F80000001FC0
03F80000001FC0
FFFFFFE0001FC0
FFFFFFE0001FC0
FFFFFFE0001FC0
FFFFFFE0001FC0
FFFFFFE0001FC0
03F80000001FC0
03F80000001F80
03F80000003F80
03F80000003F80
03F80000003F80
03F80000003F80
03F80000003F80
03F80000007F00
03F80000007F00
03F8000000FF00
03F8000000FE00
03F8000001FE00
03F8000003FC00
03F8000007FC00
03F800000FF800
03F800001FF000
03F800003FE000
03F80001FFE000
03F8000FFF8000
03FFFFFFFF0000
03FFFFFFFE0000
03FFFFFFF80000
03FFFFFFE00000
03FFFFFF000000
03FFFFE0000000
ENDCHAR
STARTCHAR 00D1
ENCODING 209
SWIDTH 745 0
DWIDTH 58 0
BBX 43 71 8 0
BITMAP
0007C001E000
001FF001E000
003FFC01E000
007FFF03E000
007FFFC7C000
00FC7FFFC000
00F01FFF8000
01F007FF0000
01E001FE0000
01E000780000
000000000000
000000000000
000000000000
000000000000
000000000000
FE00000007E0
FF00000007E0
FF00000007E0
FF80000007E0
FFC0000007E0
FFC0000007E0
FFE0000007E0
FFF0000007E0
FFF0000007E0
FFF8000007E0
FBFC000007E0
F9FC000007E0
F9FE000007E0
F8FE000007E0
F87F000007E0
F87F800007E0
F83F800007E0
F81FC00007E0
F81FE00007E0
FC0FE00007E0
FC07F00007E0
FC07F80007E0
FC03F80007E0
FC03FC0007E0
FC01FE0007E0
FC00FE0007E0
FC00FF0007E0
FC007F8007E0
FC003F8007E0
FC003FC007E0
FC001FC007E0
FC000FE007E0
FC000FF007E0
FC0007F007E0
FC0003F807E0
FC0003FC07E0
FC0001FC07E0
FC0000FE07E0
FC0000FF07E0
FC00007F07E0
FC00007F87E0
FC00003FC7E0
FC00001FC7E0
FC00001FE7E0
FC00000FF7E0
FC000007F7E0
FC000007FFE0
FC000003FFE0
FC000001FFE0
FC000001FFE0
FC000000FFE0
FC0000007FE0
FC0000007FE0
FC0000003FE0
FC0000001FE0
FC0000001FE0
ENDCHAR
STARTCHAR 00D2
ENCODING 210
SWIDTH 771 0
DWIDTH 60 0
BBX 51 75 5 -1
BITMAP
0001FE00000000
0001FE00000000
0000FF00000000
00007F00000000
00003F80000000
00001FC0000000
00000FC0000000
00000FE0000000
000007F0000000
000003F8000000
000001F8000000
0000007C000000
0000003E000000
00000000000000
00000000000000
00000000000000
00000000000000
00000000000000
00003FFF800000
0003FFFFF00000
000FFFFFFC0000
001FFFFFFF0000
007FFFFFFF8000
00FFFC0FFFC000
01FFC0007FE000
03FF00001FF000
07FC000007F800
07F8000003FC00
0FF0000001FC00
1FE0000000FE00
1FC0000000FF00
3FC00000007F00
3F800000007F00
3F800000003F80
7F000000003F80
7F000000003F80
7F000000001FC0
7E000000001FC0
FE000000001FC0
FE000000001FC0
FE000000000FC0
FE000000000FE0
FE000000000FE0
FE000000000FE0
FE000000000FE0
FE000000000FE0
FE000000000FE0
FE000000000FE0
FE000000000FE0
FE000000000FE0
FE000000000FE0
FE000000000FC0
FE000000001FC0
FE000000001FC0
FE000000001FC0
7F000000001FC0
7F000000001F80
7F000000003F80
3F800000003F80
3F800000007F80
3FC00000007F00
1FC0000000FF00
1FE0000000FE00
0FF0000001FE00
0FF0000003FC00
07FC000007F800
03FE00000FF800
01FF80003FF000
00FFF001FFE000
007FFFFFFFC000
003FFFFFFF0000
000FFFFFFE0000
0007FFFFF80000
0000FFFFC00000
000007F8000000
ENDCHAR
STARTCHAR 00D3
ENCODING 211
SWIDTH 771 0
DWIDTH 60 0
BBX 51 75 5 -1
BITMAP
00000007F00000
0000000FF00000
0000001FE00000
0000001FE00000
0000003FC00000
0000003F800000
0000007F000000
000000FE000000
000000FC000000
000001F8000000
000003F0000000
000007E0000000
000007C0000000
00000000000000
00000000000000
00000000000000
00000000000000
00000000000000
00003FFF800000
0003FFFFF00000
000FFFFFFC0000
001FFFFFFF0000
007FFFFFFF8000
00FFFC0FFFC000
01FFC0007FE000
03FF00001FF000
07FC000007F800
07F8000003FC00
0FF0000001FC00
1FE0000000FE00
1FC0000000FF00
3FC00000007F00
3F800000007F00
3F800000003F80
7F000000003F80
7F000000003F80
7F000000001FC0
7E000000001FC0
FE000000001FC0
FE000000001FC0
FE000000000FC0
FE000000000FE0
FE000000000FE0
FE000000000FE0
FE000000000FE0
FE000000000FE0
FE000000000FE0
FE000000000FE0
FE000000000FE0
FE000000000FE0
FE000000000FE0
FE000000000FC0
FE000000001FC0
FE000000001FC0
FE000000001FC0
7F000000001FC0
7F000000001F80
7F000000003F80
3F800000003F80
3F800000007F80
3FC00000007F00
1FC0000000FF00
1FE0000000FE00
0FF0000001FE00
0FF0000003FC00
07FC000007F800
03FE00000FF800
01FF80003FF000
00FFF001FFE000
007FFFFFFFC000
003FFFFFFF0000
000FFFFFFE0000
0007FFFFF80000
0000FFFFC00000
000007F8000000
ENDCHAR
STARTCHAR 00D4
ENCODING 212
SWIDTH 771 0
DWIDTH 60 0
BBX 51 74 5 -1
BITMAP
000003F8000000
000007FC000000
00000FFE000000
00001FFE000000
00001FFF000000
00003F3F800000
00007E1FC00000
0000FC0FE00000
0001F807F00000
0003F003F80000
0007E000FC0000
0007C0007C0000
00000000000000
00000000000000
00000000000000
00000000000000
00000000000000
00003FFF800000
0003FFFFF00000
000FFFFFFC0000
001FFFFFFF0000
007FFFFFFF8000
00FFFC0FFFC000
01FFC0007FE000
03FF00001FF000
07FC000007F800
07F8000003FC00
0FF0000001FC00
1FE0000000FE00
1FC0000000FF00
3FC00000007F00
3F800000007F00
3F800000003F80
7F000000003F80
7F000000003F80
7F000000001FC0
7E000000001FC0
FE000000001FC0
FE000000001FC0
FE000000000FC0
FE000000000FE0
FE000000000FE0
FE000000000FE0
FE000000000FE0
FE000000000FE0
FE000000000FE0
FE000000000FE0
FE000000000FE0
FE000000000FE0
FE000000000FE0
FE000000000FC0
FE000000001FC0
FE000000001FC0
FE000000001FC0
7F000000001FC0
7F000000001F80
7F000000003F80
3F800000003F80
3F800000007F80
3FC00000007F00
1FC0000000FF00
1FE0000000FE00
0FF0000001FE00
0FF0000003FC00
07FC000007F800
03FE00000FF800
01FF80003FF000
00FFF001FFE000
007FFFFFFFC000
003FFFFFFF0000
000FFFFFFE0000
0007FFFFF80000
0000FFFFC00000
000007F8000000
ENDCHAR
STARTCHAR 00D5
ENCODING 213
SWIDTH 771 0
DWIDTH 60 0
BBX 51 72 5 -1
BITMAP
00007C001E0000
0001FF001E0000
0003FFC01E0000
0007FFF03C0000
000FFFFCFC0000
000F87FFFC0000
000F01FFF80000
001E007FF00000
001E003FE00000
001E0007800000
00000000000000
00000000000000
00000000000000
00000000000000
00000000000000
00003FFF800000
0003FFFFF00000
000FFFFFFC0000
001FFFFFFF0000
007FFFFFFF8000
00FFFC0FFFC000
01FFC0007FE000
03FF00001FF000
07FC000007F800
07F8000003FC00
0FF0000001FC00
1FE0000000FE00
1FC0000000FF00
3FC00000007F00
3F800000007F00
3F800000003F80
7F000000003F80
7F000000003F80
7F000000001FC0
7E000000001FC0
FE000000001FC0
FE000000001FC0
FE000000000FC0
FE000000000FE0
FE000000000FE0
FE000000000FE0
FE000000000FE0
FE000000000FE0
FE000000000FE0
FE000000000FE0
FE000000000FE0
FE000000000FE0
FE000000000FE0
FE000000000FC0
FE000000001FC0
FE000000001FC0
FE000000001FC0
7F000000001FC0
7F000000001F80
7F000000003F80
3F800000003F80
3F800000007F80
3FC00000007F00
1FC0000000FF00
1FE0000000FE00
0FF0000001FE00
0FF0000003FC00
07FC000007F800
03FE00000FF800
01FF80003FF000
00FFF001FFE000
007FFFFFFFC000
003FFFFFFF0000
000FFFFFFE0000
0007FFFFF80000
0000FFFFC00000
000007F8000000
ENDCHAR
STARTCHAR 00D6
ENCODING 214
SWIDTH 771 0
DWIDTH 60 0
BBX 51 72 5 -1
BITMAP
00006000800000
0001F803E00000
0001F807F00000
0001F807F00000
0001F807F00000
0001F807F00000
0001F803E00000
0000F001C00000
00000000000000
00000000000000
00000000000000
00000000000000
00000000000000
00000000000000
00000000000000
00003FFF800000
0003FFFFF00000
000FFFFFFC0000
001FFFFFFF0000
007FFFFFFF8000
00FFFC0FFFC000
01FFC0007FE000
03FF00001FF000
07FC000007F800
07F8000003FC00
0FF0000001FC00
1FE0000000FE00
1FC0000000FF00
3FC00000007F00
3F800000007F00
3F800000003F80
7F000000003F80
7F000000003F80
7F000000001FC0
7E000000001FC0
FE000000001FC0
FE000000001FC0
FE000000000FC0
FE000000000FE0
FE000000000FE0
FE000000000FE0
FE000000000FE0
FE000000000FE0
FE000000000FE0
FE000000000FE0
FE000000000FE0
FE000000000FE0
FE000000000FE0
FE000000000FC0
FE000000001FC0
FE000000001FC0
FE000000001FC0
7F000000001FC0
7F000000001F80
7F000000003F80
3F800000003F80
3F800000007F80
3FC00000007F00
1FC0000000FF00
1FE0000000FE00
0FF0000001FE00
0FF0000003FC00
07FC000007F800
03FE00000FF800
01FF80003FF000
00FFF001FFE000
007FFFFFFFC000
003FFFFFFF0000
000FFFFFFE0000
0007FFFFF80000
0000FFFFC00000
000007F8000000
ENDCHAR
STARTCHAR 00D7
ENCODING 215
SWIDTH 565 0
DWIDTH 44 0
BBX 34 34 5 11
BITMAP
1800000300
3C00000780
7E00000FC0
FF00001FC0
7F80003F80
3FC0007F00
1FE000FE00
0FF001FC00
07F803F800
03FC07F000
01FE0FE000
00FF1FC000
007FBF8000
003FFF0000
001FFE0000
000FFC0000
0007F80000
0007FC0000
000FFE0000
001FFF0000
003FFF8000
007F3FC000
00FE1FE000
01FC0FF000
03F807F800
07F003FC00
0FE001FE00
1FC000FF00
3F80007F80
7F00003FC0
7E00001FC0
3C00000F80
1800000700
0000000200
ENDCHAR
STARTCHAR 00D8
ENCODING 216
SWIDTH 771 0
DWIDTH 60 0
BBX 51 60 5 -2
BITMAP
00000000001000
00000000003800
00003FFF807E00
0003FFFFF07E00
000FFFFFFCFC00
001FFFFFFFFC00
007FFFFFFFF800
00FFFC0FFFF000
01FFC0007FF000
03FF00001FF000
07FC00000FF800
07F800001FFC00
0FF000003FFC00
1FE000003FFE00
1FC000007EFE00
3FC00000FE7F00
3F800001FC7F00
3F800001F83F80
7F000003F83F80
7F000007F03F80
7F000007E01FC0
7E00000FC01FC0
FE00001FC01FC0
FE00001F801FC0
FE00003F000FC0
FE00007F000FE0
FE0000FE000FE0
FE0000FC000FE0
FE0001F8000FE0
FE0003F8000FE0
FE0003F0000FE0
FE0007E0000FE0
FE000FE0000FE0
FE001FC0000FE0
FE001F80000FE0
FE003F00000FC0
FE007F00001FC0
FE007E00001FC0
FE00FC00001FC0
7F01FC00001FC0
7F03F800001F80
7F03F000003F80
3F87E000003F80
3F8FE000007F80
3FCFC000007F00
1FDF800000FF00
1FFF800000FE00
0FFF000001FE00
0FFE000003FC00
07FE000007F800
03FE00000FF800
01FF80003FF000
03FFF001FFE000
07FFFFFFFFC000
07FFFFFFFF0000
0FCFFFFFFE0000
1FC3FFFFF80000
3F80FFFFC00000
0F0007F8000000
06000000000000
ENDCHAR
STARTCHAR 00D9
ENCODING 217
SWIDTH 720 0
DWIDTH 56 0
BBX 43 75 7 -1
BITMAP
001FE0000000
001FE0000000
000FF0000000
0007F8000000
0003F8000000
0001FC000000
0000FC000000
00007E000000
00007F000000
00003F800000
00000F800000
000007C00000
000003E00000
000000000000
000000000000
000000000000
000000000000
000000000000
FE0000000FE0
FE0000000FE0
FE0000000FE0
FE0000000FE0
FE0000000FE0
FE0000000FE0
FE0000000FE0
FE0000000FE0
FE0000000FE0
FE0000000FE0
FE0000000FE0
FE0000000FE0
FE0000000FE0
FE0000000FE0
FE0000000FE0
FE0000000FE0
FE0000000FE0
FE0000000FE0
FE0000000FE0
FE0000000FE0
FE0000000FE0
FE0000000FE0
FE0000000FE0
FE0000000FE0
FE0000000FE0
FE0000000FE0
FE0000000FE0
FE0000000FE0
FE0000000FE0
FE0000000FE0
FE0000000FE0
FE0000000FE0
FE0000000FE0
FE0000000FE0
FE0000000FE0
FE0000000FE0
FE0000000FE0
FE0000000FE0
FE0000000FE0
FE0000000FC0
FE0000000FC0
FE0000000FC0
7E0000001FC0
7F0000001FC0
7F0000003F80
3F8000003F80
3F8000007F00
1FC00000FF00
1FF00001FE00
0FF80007FE00
07FF001FFC00
03FFFFFFF800
01FFFFFFF000
00FFFFFFC000
003FFFFF0000
000FFFFC0000
00007FC00000
ENDCHAR
STARTCHAR 00DA
ENCODING 218
SWIDTH 720 0
DWIDTH 56 0
BBX 43 75 7 -1
BITMAP
0000007F0000
000000FF0000
000000FE0000
000001FE0000
000003FC0000
000003F80000
000007F00000
00000FE00000
00000FC00000
00001F800000
00003F000000
00007E000000
00007C000000
000000000000
000000000000
000000000000
000000000000
000000000000
FE0000000FE0
FE0000000FE0
FE0000000FE0
FE0000000FE0
FE0000000FE0
FE0000000FE0
FE0000000FE0
FE0000000FE0
FE0000000FE0
FE0000000FE0
FE0000000FE0
FE0000000FE0
FE0000000FE0
FE0000000FE0
FE0000000FE0
FE0000000FE0
FE0000000FE0
FE0000000FE0
FE0000000FE0
FE0000000FE0
FE0000000FE0
FE0000000FE0
FE0000000FE0
FE0000000FE0
FE0000000FE0
FE0000000FE0
FE0000000FE0
FE0000000FE0
FE0000000FE0
FE0000000FE0
FE0000000FE0
FE0000000FE0
FE0000000FE0
FE0000000FE0
FE0000000FE0
FE0000000FE0
FE0000000FE0
FE0000000FE0
FE0000000FE0
FE0000000FC0
FE0000000FC0
FE0000000FC0
7E0000001FC0
7F0000001FC0
7F0000003F80
3F8000003F80
3F8000007F00
1FC00000FF00
1FF00001FE00
0FF80007FE00
07FF001FFC00
03FFFFFFF800
01FFFFFFF000
00FFFFFFC000
003FFFFF0000
000FFFFC0000
00007FC00000
ENDCHAR
STARTCHAR 00DB
ENCODING 219
SWIDTH 720 0
DWIDTH 56 0
BBX 43 74 7 -1
BITMAP
00003F800000
00007FC00000
0000FFE00000
0001FFE00000
0001FFF00000
0003FBF80000
0007F1FC0000
000FE0FE0000
001F807F0000
003F001F8000
007E000FC000
007C0007C000
000000000000
000000000000
000000000000
000000000000
000000000000
FE0000000FE0
FE0000000FE0
FE0000000FE0
FE0000000FE0
FE0000000FE0
FE0000000FE0
FE0000000FE0
FE0000000FE0
FE0000000FE0
FE0000000FE0
FE0000000FE0
FE0000000FE0
FE0000000FE0
FE0000000FE0
FE0000000FE0
FE0000000FE0
FE0000000FE0
FE0000000FE0
FE0000000FE0
FE0000000FE0
FE0000000FE0
FE0000000FE0
FE0000000FE0
FE0000000FE0
FE0000000FE0
FE0000000FE0
FE0000000FE0
FE0000000FE0
FE0000000FE0
FE0000000FE0
FE0000000FE0
FE0000000FE0
FE0000000FE0
FE0000000FE0
FE0000000FE0
FE0000000FE0
FE0000000FE0
FE0000000FE0
FE0000000FE0
FE0000000FC0
FE0000000FC0
FE0000000FC0
7E0000001FC0
7F0000001FC0
7F0000003F80
3F8000003F80
3F8000007F00
1FC00000FF00
1FF00001FE00
0FF80007FE00
07FF001FFC00
03FFFFFFF800
01FFFFFFF000
00FFFFFFC000
003FFFFF0000
000FFFFC0000
00007FC00000
ENDCHAR
STARTCHAR 00DC
ENCODING 220
SWIDTH 720 0
DWIDTH 56 0
BBX 43 72 7 -1
BITMAP
000000080000
001F803E0000
001F807F0000
001FC07F0000
001FC07F0000
001F807F0000
001F803E0000
000F001C0000
000000000000
000000000000
000000000000
000000000000
000000000000
000000000000
000000000000
FE0000000FE0
FE0000000FE0
FE0000000FE0
FE0000000FE0
FE0000000FE0
FE0000000FE0
FE0000000FE0
FE0000000FE0
FE0000000FE0
FE0000000FE0
FE0000000FE0
FE0000000FE0
FE0000000FE0
FE0000000FE0
FE0000000FE0
FE0000000FE0
FE0000000FE0
FE0000000FE0
FE0000000FE0
FE0000000FE0
FE0000000FE0
FE0000000FE0
FE0000000FE0
FE0000000FE0
FE0000000FE0
FE0000000FE0
FE0000000FE0
FE0000000FE0
FE0000000FE0
FE0000000FE0
FE0000000FE0
FE0000000FE0
FE0000000FE0
FE0000000FE0
FE0000000FE0
FE0000000FE0
FE0000000FE0
FE0000000FE0
FE0000000FE0
FE0000000FC0
FE0000000FC0
FE0000000FC0
7E0000001FC0
7F0000001FC0
7F0000003F80
3F8000003F80
3F8000007F00
1FC00000FF00
1FF00001FE00
0FF80007FE00
07FF001FFC00
03FFFFFFF800
01FFFFFFF000
00FFFFFFC000
003FFFFF0000
000FFFFC0000
00007FC00000
ENDCHAR
STARTCHAR 00DD
ENCODING 221
SWIDTH 552 0
DWIDTH 43 0
BBX 43 74 0 0
BITMAP
0000007F8000
0000007F8000
000000FF0000
000001FE0000
000001FC0000
000003F80000
000007F00000
000007E00000
00000FC00000
00001F800000
00001F000000
00003E000000
00007C000000
000000000000
000000000000
000000000000
000000000000
000000000000
FE00000007E0
7F0000000FE0
7F0000001FC0
3F8000001FC0
3F8000003F80
1FC000003F80
1FC000007F00
0FE000007F00
0FE00000FE00
07F00000FE00
07F00001FC00
03F80001F800
03F80003F800
01FC0003F000
00FC0007F000
00FE0007E000
007F000FE000
007F001FC000
003F801FC000
003F803F8000
001FC03F8000
001FC07F0000
000FE07F0000
000FE0FE0000
0007F0FC0000
0003F1FC0000
0003F9F80000
0001FBF80000
0001FFF00000
0000FFF00000
0000FFE00000
00007FE00000
00007FC00000
00003FC00000
00003F800000
00001F800000
00001F800000
00001F800000
00001F800000
00001F800000
00001F800000
00001F800000
00001F800000
00001F800000
00001F800000
00001F800000
00001F800000
00001F800000
00001F800000
00001F800000
00001F800000
00001F800000
00001F800000
00001F800000
00001F800000
00001F800000
ENDCHAR
STARTCHAR 00DE
ENCODING 222
SWIDTH 591 0
DWIDTH 46 0
BBX 35 56 8 0
BITMAP
FC00000000
FC00000000
FC00000000
FC00000000
FC00000000
FC00000000
FC00000000
FC00000000
FC00000000
FC00000000
FFFFE00000
FFFFFF0000
FFFFFFE000
FFFFFFF800
FFFFFFFC00
FFFFFFFE00
FC0007FF00
FC0001FF80
FC00007F80
FC00003FC0
FC00001FC0
FC00001FC0
FC00000FC0
FC00000FE0
FC00000FE0
FC00000FE0
FC00000FE0
FC00000FE0
FC00000FE0
FC00000FE0
FC00000FC0
FC00001FC0
FC00001FC0
FC00003F80
FC00007F80
FC0000FF00
FC0001FF00
FC000FFE00
FFFFFFFC00
FFFFFFF800
FFFFFFE000
FFFFFFC000
FFFFFE0000
FFFFC00000
FC00000000
FC00000000
FC00000000
FC00000000
FC00000000
FC00000000
FC00000000
FC00000000
FC00000000
FC00000000
FC00000000
FC00000000
ENDCHAR
STARTCHAR 00DF
ENCODING 223
SWIDTH 617 0
DWIDTH 48 0
BBX 38 61 7 -1
BITMAP
0000C00000
007FFF0000
03FFFFE000
07FFFFF800
0FFFFFFC00
1FFFFFFE00
3FF003FE00
7F8000FF00
7F00007F00
FE00003F80
FE00003F80
FC00003F80
FC00003F80
FC00003F80
FC00003F80
FC00003F00
FC00007F00
FC0000FE00
FC0001FC00
FC0003F800
FC000FF000
FC001FE000
FC003FC000
FC007F8000
FC007F0000
FC00FE0000
FC00FC0000
FC00FC0000
FC00FC0000
FC00FC0000
FC00FE0000
FC00FF0000
FC007F8000
FC003FE000
FC003FF000
FC001FFC00
FC0007FE00
FC0003FF00
FC0001FF80
FC00007FC0
FC00003FE0
FC00000FF0
FC000007F8
FC000003F8
FC000001F8
FC000001FC
FC000001FC
FC000000FC
FC000000FC
FC000000FC
FC000001FC
FC000001FC
FC000001F8
FC0C0003F8
FC0F8007F8
FC0FFCFFF0
FC0FFFFFE0
FC0FFFFFC0
FC07FFFF80
FC01FFFE00
00001FE000
ENDCHAR
STARTCHAR 00E0
ENCODING 224
SWIDTH 552 0
DWIDTH 43 0
BBX 33 61 4 -1
BITMAP
01FE000000
00FF000000
00FF000000
007F800000
003F800000
001FC00000
000FE00000
0007E00000
0003F00000
0001F80000
0000FC0000
00007C0000
00003E0000
0000000000
0000000000
0000000000
0000000000
0000000000
001FFF8000
00FFFFE000
03FFFFF800
0FFFFFFC00
07FFFFFE00
07F003FE00
078000FF00
0200007F00
0000003F00
0000003F80
0000003F80
0000003F80
0000001F80
0000001F80
0000001F80
0000001F80
0000001F80
00007FFF80
003FFFFF80
01FFFFFF80
07FFFFFF80
0FFFFFDF80
1FFC001F80
3FE0001F80
7F80001F80
7F00001F80
FE00001F80
FE00001F80
FC00003F80
FC00003F80
FC00003F80
FC00007F80
FC00007F80
FE0000FF80
FE0001FF80
FF0003FF80
7F800FDF80
7FF8FF9F80
3FFFFF0F80
1FFFFE0F80
0FFFFC0F80
03FFF00F80
003F800000
ENDCHAR
STARTCHAR 00E1
ENCODING 225
SWIDTH 552 0
DWIDTH 43 0
BBX 33 61 4 -1
BITMAP
000007F800
00000FF000
00000FF000
00001FE000
00001FC000
00003F8000
00007F0000
00007E0000
0000FC0000
0001F80000
0003F00000
0003E00000
0007C00000
0000000000
0000000000
0000000000
0000000000
0000000000
001FFF8000
00FFFFE000
03FFFFF800
0FFFFFFC00
07FFFFFE00
07F003FE00
078000FF00
0200007F00
0000003F00
0000003F80
0000003F80
0000003F80
0000001F80
0000001F80
0000001F80
0000001F80
0000001F80
00007FFF80
003FFFFF80
01FFFFFF80
07FFFFFF80
0FFFFFDF80
1FFC001F80
3FE0001F80
7F80001F80
7F00001F80
FE00001F80
FE00001F80
FC00003F80
FC00003F80
FC00003F80
FC00007F80
FC00007F80
FE0000FF80
FE0001FF80
FF0003FF80
7F800FDF80
7FF8FF9F80
3FFFFF0F80
1FFFFE0F80
0FFFFC0F80
03FFF00F80
003F800000
ENDCHAR
STARTCHAR 00E2
ENCODING 226
SWIDTH 552 0
DWIDTH 43 0
BBX 33 61 4 -1
BITMAP
0003F80000
0003FC0000
0007FC0000
000FFE0000
000FFF0000
001FFF8000
003FBF8000
007F0FC000
00FE07E000
01FC03F000
03F001F800
07E000FC00
07C0007E00
0000000000
0000000000
0000000000
0000000000
0000000000
001FFF8000
00FFFFE000
03FFFFF800
0FFFFFFC00
07FFFFFE00
07F003FE00
078000FF00
0200007F00
0000003F00
0000003F80
0000003F80
0000003F80
0000001F80
0000001F80
0000001F80
0000001F80
0000001F80
00007FFF80
003FFFFF80
01FFFFFF80
07FFFFFF80
0FFFFFDF80
1FFC001F80
3FE0001F80
7F80001F80
7F00001F80
FE00001F80
FE00001F80
FC00003F80
FC00003F80
FC00003F80
FC00007F80
FC00007F80
FE0000FF80
FE0001FF80
FF0003FF80
7F800FDF80
7FF8FF9F80
3FFFFF0F80
1FFFFE0F80
0FFFFC0F80
03FFF00F80
003F800000
ENDCHAR
STARTCHAR 00E3
ENCODING 227
SWIDTH 552 0
DWIDTH 43 0
BBX 33 58 4 -1
BITMAP
007C000E00
01FF001E00
03FFC01E00
07FFF03E00
07FFFCFC00
0FC7FFFC00
0F01FFF800
0F007FF800
1E001FE000
1E00078000
0000000000
0000000000
0000000000
0000000000
0000000000
001FFF8000
00FFFFE000
03FFFFF800
0FFFFFFC00
07FFFFFE00
07F003FE00
078000FF00
0200007F00
0000003F00
0000003F80
0000003F80
0000003F80
0000001F80
0000001F80
0000001F80
0000001F80
0000001F80
00007FFF80
003FFFFF80
01FFFFFF80
07FFFFFF80
0FFFFFDF80
1FFC001F80
3FE0001F80
7F80001F80
7F00001F80
FE00001F80
FE00001F80
FC00003F80
FC00003F80
FC00003F80
FC00007F80
FC00007F80
FE0000FF80
FE0001FF80
FF0003FF80
7F800FDF80
7FF8FF9F80
3FFFFF0F80
1FFFFE0F80
0FFFFC0F80
03FFF00F80
003F800000
ENDCHAR
STARTCHAR 00E4
ENCODING 228
SWIDTH 552 0
DWIDTH 43 0
BBX 33 58 4 -1
BITMAP
0020008000
00F803F000
01FC03F000
01FC07F000
01FC07F000
01FC03F000
00F803F000
007001C000
0000000000
0000000000
0000000000
0000000000
0000000000
0000000000
0000000000
001FFF8000
00FFFFE000
03FFFFF800
0FFFFFFC00
07FFFFFE00
07F003FE00
078000FF00
0200007F00
0000003F00
0000003F80
0000003F80
0000003F80
0000001F80
0000001F80
0000001F80
0000001F80
0000001F80
00007FFF80
003FFFFF80
01FFFFFF80
07FFFFFF80
0FFFFFDF80
1FFC001F80
3FE0001F80
7F80001F80
7F00001F80
FE00001F80
FE00001F80
FC00003F80
FC00003F80
FC00003F80
FC00007F80
FC00007F80
FE0000FF80
FE0001FF80
FF0003FF80
7F800FDF80
7FF8FF9F80
3FFFFF0F80
1FFFFE0F80
0FFFFC0F80
03FFF00F80
003F800000
ENDCHAR
STARTCHAR 00E5
ENCODING 229
SWIDTH 552 0
DWIDTH 43 0
BBX 33 64 4 0
BITMAP
0007FC0000
000FFE0000
001FFF8000
003F0F8000
003C07C000
007C03C000
007803C000
007803C000
007803C000
007803C000
003C07C000
003E0F8000
001FFF8000
001FFF0000
0007FE0000
0001F00000
0000000000
0000000000
0000000000
0000000000
0000000000
001FFF8000
00FFFFE000
03FFFFF800
0FFFFFFC00
07FFFFFE00
07F003FE00
078000FF00
0200007F00
0000003F00
0000003F80
0000003F80
0000003F80
0000001F80
0000001F80
0000001F80
0000001F80
0000001F80
00007FFF80
003FFFFF80
01FFFFFF80
07FFFFFF80
0FFFFFDF80
1FFC001F80
3FE0001F80
7F80001F80
7F00001F80
FE00001F80
FE00001F80
FC00003F80
FC00003F80
FC00003F80
FC00007F80
FC00007F80
FE0000FF80
FE0001FF80
FF0003FF80
7F800FDF80
7FF8FF9F80
3FFFFF0F80
1FFFFE0F80
0FFFFC0F80
03FFF00F80
003F800000
ENDCHAR
STARTCHAR 00E6
ENCODING 230
SWIDTH 861 0
DWIDTH 67 0
BBX 59 43 4 -1
BITMAP
001FFE0007FF8000
01FFFF801FFFE000
07FFFFE03FFFF000
1FFFFFF07FFFFC00
0FFFFFF8FFFFFE00
0FF007F9FE01FE00
0F8001FFF800FF00
040000FFF0007F80
000000FFE0003F80
0000007FC0001FC0
0000007FC0001FC0
0000007F80000FC0
0000003F80000FC0
0000003F80000FE0
0000003F80000FE0
0000003F00000FE0
0000003F00000FE0
0000FFFFFFFFFFE0
003FFFFFFFFFFFE0
01FFFFFFFFFFFFE0
07FFFFFFFFFFFFE0
0FFFFFBFFFFFFFE0
1FFC003F00000000
3FE0003F00000000
7F80003F00000000
7F00007F00000000
FE00007F00000000
FE00007F80000000
FC00007F80000000
FC00007F80000000
FC00007FC0000000
FC0000FFC0000000
FC0000FFE0000000
FE0001FFE0000000
FE0003F7F0000000
FF0007E3FC000180
7F801FE3FE000F80
7FF9FFC1FFFFFF80
3FFFFF80FFFFFF80
1FFFFE007FFFFF80
0FFFFC001FFFFF00
03FFF00007FFF800
003F0000007F8000
ENDCHAR
STARTCHAR 00E7
ENCODING 231
SWIDTH 475 0
DWIDTH 37 0
BBX 30 61 4 -19
BITMAP
0007FFE0
001FFFFC
007FFFFC
01FFFFFC
03FFFFFC
07FF81F8
0FF80018
0FF00000
1FE00000
1FC00000
3F800000
3F800000
7F000000
7F000000
7F000000
7E000000
7E000000
FE000000
FE000000
FE000000
FE000000
FE000000
FE000000
FE000000
FE000000
7E000000
7E000000
7E000000
7F000000
7F000000
3F000000
3F800000
3FC00000
1FC00000
1FE00000
0FF80004
07FC003C
03FFFFFC
01FFFFFC
00FFFFFC
007FFFFC
000FFFF0
0001FE00
0000F000
0001F000
0001E000
0003F000
0003FC00
0007FF00
00007F80
00001F80
00000F80
00000FC0
00000FC0
00000F80
00001F80
0030FF80
003FFF00
003FFE00
003FF800
000FC000
ENDCHAR
STARTCHAR 00E8
ENCODING 232
SWIDTH 552 0
DWIDTH 43 0
BBX 36 61 4 -1
BITMAP
00FF000000
00FF000000
007F800000
003F800000
001FC00000
001FE00000
000FE00000
0007F00000
0003F80000
0001F80000
0000FC0000
00007E0000
00001E0000
0000000000
0000000000
0000000000
0000000000
0000000000
0007FF8000
003FFFE000
007FFFF800
01FFFFFC00
03FFFFFE00
07FC01FF00
07F0007F00
0FE0003F80
1FC0001FC0
1F80001FC0
3F80000FC0
3F00000FE0
3F00000FE0
7F000007E0
7E000007E0
7E000007E0
7E000007F0
7FFFFFFFF0
FFFFFFFFF0
FFFFFFFFF0
FFFFFFFFF0
FFFFFFFFF0
FE00000000
FE00000000
FE00000000
7E00000000
7E00000000
7E00000000
7F00000000
7F00000000
3F00000000
3F80000000
3FC0000000
1FC0000000
0FF0000000
0FF80001C0
07FE000FC0
03FFFFFFC0
01FFFFFFC0
00FFFFFFC0
003FFFFF80
000FFFFC00
00007F8000
ENDCHAR
STARTCHAR 00E9
ENCODING 233
SWIDTH 552 0
DWIDTH 43 0
BBX 36 61 4 -1
BITMAP
000007F800
000007F800
00000FF000
00000FE000
00001FC000
00003FC000
00003F8000
00007F0000
0000FE0000
0000FC0000
0001F80000
0003F00000
0003C00000
0000000000
0000000000
0000000000
0000000000
0000000000
0007FF8000
003FFFE000
007FFFF800
01FFFFFC00
03FFFFFE00
07FC01FF00
07F0007F00
0FE0003F80
1FC0001FC0
1F80001FC0
3F80000FC0
3F00000FE0
3F00000FE0
7F000007E0
7E000007E0
7E000007E0
7E000007F0
7FFFFFFFF0
FFFFFFFFF0
FFFFFFFFF0
FFFFFFFFF0
FFFFFFFFF0
FE00000000
FE00000000
FE00000000
7E00000000
7E00000000
7E00000000
7F00000000
7F00000000
3F00000000
3F80000000
3FC0000000
1FC0000000
0FF0000000
0FF80001C0
07FE000FC0
03FFFFFFC0
01FFFFFFC0
00FFFFFFC0
003FFFFF80
000FFFFC00
00007F8000
ENDCHAR
STARTCHAR 00EA
ENCODING 234
SWIDTH 552 0
DWIDTH 43 0
BBX 36 61 4 -1
BITMAP
0001F80000
0003FC0000
0003FE0000
0007FE0000
000FFF0000
001FFF8000
003F9FC000
003F0FE000
007E07F000
00FC03F800
01F801FC00
03F0007E00
07C0003E00
0000000000
0000000000
0000000000
0000000000
0000000000
0007FF8000
003FFFE000
007FFFF800
01FFFFFC00
03FFFFFE00
07FC01FF00
07F0007F00
0FE0003F80
1FC0001FC0
1F80001FC0
3F80000FC0
3F00000FE0
3F00000FE0
7F000007E0
7E000007E0
7E000007E0
7E000007F0
7FFFFFFFF0
FFFFFFFFF0
FFFFFFFFF0
FFFFFFFFF0
FFFFFFFFF0
FE00000000
FE00000000
FE00000000
7E00000000
7E00000000
7E00000000
7F00000000
7F00000000
3F00000000
3F80000000
3FC0000000
1FC0000000
0FF0000000
0FF80001C0
07FE000FC0
03FFFFFFC0
01FFFFFFC0
00FFFFFFC0
003FFFFF80
000FFFFC00
00007F8000
ENDCHAR
STARTCHAR 00EB
ENCODING 235
SWIDTH 552 0
DWIDTH 43 0
BBX 36 58 4 -1
BITMAP
0020004000
00FC01F000
00FC03F800
01FC03F800
01FC03F800
00FC03F800
00FC01F000
007000E000
0000000000
0000000000
0000000000
0000000000
0000000000
0000000000
0000000000
0007FF8000
003FFFE000
007FFFF800
01FFFFFC00
03FFFFFE00
07FC01FF00
07F0007F00
0FE0003F80
1FC0001FC0
1F80001FC0
3F80000FC0
3F00000FE0
3F00000FE0
7F000007E0
7E000007E0
7E000007E0
7E000007F0
7FFFFFFFF0
FFFFFFFFF0
FFFFFFFFF0
FFFFFFFFF0
FFFFFFFFF0
FE00000000
FE00000000
FE00000000
7E00000000
7E00000000
7E00000000
7F00000000
7F00000000
3F00000000
3F80000000
3FC0000000
1FC0000000
0FF0000000
0FF80001C0
07FE000FC0
03FFFFFFC0
01FFFFFFC0
00FFFFFFC0
003FFFFF80
000FFFFC00
00007F8000
ENDCHAR
STARTCHAR 00EC
ENCODING 236
SWIDTH 244 0
DWIDTH 19 0
BBX 15 60 0 0
BITMAP
FE00
FF00
7F00
7F80
3FC0
1FC0
0FE0
07F0
03F0
01F8
00FC
007E
003E
0000
0000
0000
0000
0000
01F8
01F8
01F8
01F8
01F8
01F8
01F8
01F8
01F8
01F8
01F8
01F8
01F8
01F8
01F8
01F8
01F8
01F8
01F8
01F8
01F8
01F8
01F8
01F8
01F8
01F8
01F8
01F8
01F8
01F8
01F8
01F8
01F8
01F8
01F8
01F8
01F8
01F8
01F8
01F8
01F8
01F8
ENDCHAR
STARTCHAR 00ED
ENCODING 237
SWIDTH 244 0
DWIDTH 19 0
BBX 16 60 5 0
BITMAP
00FF
00FF
01FE
03FC
03F8
07F0
0FE0
0FC0
1F80
3F00
3E00
7C00
F800
0000
0000
0000
0000
0000
3F00
3F00
3F00
3F00
3F00
3F00
3F00
3F00
3F00
3F00
3F00
3F00
3F00
3F00
3F00
3F00
3F00
3F00
3F00
3F00
3F00
3F00
3F00
3F00
3F00
3F00
3F00
3F00
3F00
3F00
3F00
3F00
3F00
3F00
3F00
3F00
3F00
3F00
3F00
3F00
3F00
3F00
ENDCHAR
STARTCHAR 00EE
ENCODING 238
SWIDTH 244 0
DWIDTH 19 0
BBX 26 60 -3 0
BITMAP
003F0000
007F8000
00FF8000
00FFC000
01FFE000
03FFF000
07F3F800
0FE1F800
1FC0FC00
3F807E00
3F003F00
7C001F80
F80007C0
00000000
00000000
00000000
00000000
00000000
003F0000
003F0000
003F0000
003F0000
003F0000
003F0000
003F0000
003F0000
003F0000
003F0000
003F0000
003F0000
003F0000
003F0000
003F0000
003F0000
003F0000
003F0000
003F0000
003F0000
003F0000
003F0000
003F0000
003F0000
003F0000
003F0000
003F0000
003F0000
003F0000
003F0000
003F0000
003F0000
003F0000
003F0000
003F0000
003F0000
003F0000
003F0000
003F0000
003F0000
003F0000
003F0000
ENDCHAR
STARTCHAR 00EF
ENCODING 239
SWIDTH 244 0
DWIDTH 19 0
BBX 21 57 -1 0
BITMAP
100060
7C01F8
FE01F8
FE01F8
FE01F8
FE01F8
7C01F8
380070
000000
000000
000000
000000
000000
000000
000000
00FC00
00FC00
00FC00
00FC00
00FC00
00FC00
00FC00
00FC00
00FC00
00FC00
00FC00
00FC00
00FC00
00FC00
00FC00
00FC00
00FC00
00FC00
00FC00
00FC00
00FC00
00FC00
00FC00
00FC00
00FC00
00FC00
00FC00
00FC00
00FC00
00FC00
00FC00
00FC00
00FC00
00FC00
00FC00
00FC00
00FC00
00FC00
00FC00
00FC00
00FC00
00FC00
ENDCHAR
STARTCHAR 00F0
ENCODING 240
SWIDTH 591 0
DWIDTH 46 0
BBX 38 60 4 -1
BITMAP
000E000300
000F800700
001FC01F80
003FF07FC0
001FF8FF80
0007FFFE00
0001FFFC00
0000FFF000
00007FC000
0001FFE000
0007FFF000
001FFFF800
003FE1FC00
007F81FE00
007F00FF00
003C007F00
0010003F80
0000001F80
0000001FC0
0000000FC0
00000007E0
00000007E0
0001FC03F0
001FFFC3F0
007FFFF3F0
01FFFFF9F8
03FFFFFDF8
07FFC7FFF8
0FF8007FF8
1FE0001FFC
1FC0000FFC
3F800007FC
3F800003FC
7F000001FC
7F000001FC
7E000001FC
7E000000FC
FE000000FC
FE000000FC
FE000000FC
FE000000FC
FE000000FC
FE000000FC
FE000000FC
7E000001FC
7E000001FC
7E000001F8
7F000001F8
3F000003F8
3F800003F0
3F800007F0
1FC0000FE0
0FF0001FE0
0FF8007FC0
07FFC7FF80
03FFFFFF00
00FFFFFE00
007FFFF800
000FFFE000
0000FE0000
ENDCHAR
STARTCHAR 00F1
ENCODING 241
SWIDTH 604 0
DWIDTH 47 0
BBX 34 57 7 0
BITMAP
00FC001E00
03FF001E00
07FFC03C00
07FFE03C00
0FFFFCFC00
0F87FFF800
1F01FFF800
1E00FFF000
1E003FE000
1C00078000
0000000000
0000000000
0000000000
0000000000
0000000000
F803FFC000
F81FFFF000
F83FFFFC00
F8FFFFFE00
F9FFFFFF00
FDFC03FF00
FFE0007F80
FFC0003F80
FF80003FC0
FF00001FC0
FF00001FC0
FE00000FC0
FE00000FC0
FE00000FC0
FC00000FC0
FC00000FC0
FC00000FC0
FC00000FC0
FC00000FC0
FC00000FC0
FC00000FC0
FC00000FC0
FC00000FC0
FC00000FC0
FC00000FC0
FC00000FC0
FC00000FC0
FC00000FC0
FC00000FC0
FC00000FC0
FC00000FC0
FC00000FC0
FC00000FC0
FC00000FC0
FC00000FC0
FC00000FC0
FC00000FC0
FC00000FC0
FC00000FC0
FC00000FC0
FC00000FC0
FC00000FC0
ENDCHAR
STARTCHAR 00F2
ENCODING 242
SWIDTH 591 0
DWIDTH 46 0
BBX 39 61 4 -1
BITMAP
007F800000
007F800000
003FC00000
001FE00000
000FE00000
0007F00000
0003F00000
0001F80000
0000FC0000
00007E0000
00003E0000
00001F0000
00000F8000
0000000000
0000000000
0000000000
0000000000
0000000000
0007FFC000
003FFFF000
007FFFFC00
01FFFFFE00
03FFFFFF80
07FE00FFC0
0FF8003FC0
0FE0001FE0
1FC0000FF0
1FC00007F0
3F800003F8
3F800003F8
7F000001F8
7F000001FC
7F000001FC
7E000001FC
7E000000FC
FE000000FC
FE000000FC
FE000000FC
FE000000FE
FE000000FE
FE000000FE
FE000000FC
FE000000FC
7E000000FC
7E000000FC
7F000001FC
7F000001FC
7F000001F8
3F000003F8
3F800003F8
1F800007F0
1FC00007F0
0FE0000FE0
0FF0001FE0
07FC007FC0
03FFEFFF80
01FFFFFF00
00FFFFFE00
003FFFF800
000FFFE000
0000FC0000
ENDCHAR
STARTCHAR 00F3
ENCODING 243
SWIDTH 591 0
DWIDTH 46 0
BBX 39 61 4 -1
BITMAP
000001FC00
000003FC00
000003F800
000007F800
00000FF000
00000FE000
00001FC000
00003F8000
00003F0000
00007E0000
0000FC0000
0001F80000
0001F00000
0000000000
0000000000
0000000000
0000000000
0000000000
0007FFC000
003FFFF000
007FFFFC00
01FFFFFE00
03FFFFFF80
07FE00FFC0
0FF8003FC0
0FE0001FE0
1FC0000FF0
1FC00007F0
3F800003F8
3F800003F8
7F000001F8
7F000001FC
7F000001FC
7E000001FC
7E000000FC
FE000000FC
FE000000FC
FE000000FC
FE000000FE
FE000000FE
FE000000FE
FE000000FC
FE000000FC
7E000000FC
7E000000FC
7F000001FC
7F000001FC
7F000001F8
3F000003F8
3F800003F8
1F800007F0
1FC00007F0
0FE0000FE0
0FF0001FE0
07FC007FC0
03FFEFFF80
01FFFFFF00
00FFFFFE00
003FFFF800
000FFFE000
0000FC0000
ENDCHAR
STARTCHAR 00F4
ENCODING 244
SWIDTH 591 0
DWIDTH 46 0
BBX 39 61 4 -1
BITMAP
0000FE0000
0000FE0000
0001FF0000
0003FF8000
0007FFC000
0007FFC000
000FEFE000
001F87F000
003F03F800
007E01FC00
00FC007E00
01F8003F00
01F0001F00
0000000000
0000000000
0000000000
0000000000
0000000000
0007FFC000
003FFFF000
007FFFFC00
01FFFFFE00
03FFFFFF80
07FE00FFC0
0FF8003FC0
0FE0001FE0
1FC0000FF0
1FC00007F0
3F800003F8
3F800003F8
7F000001F8
7F000001FC
7F000001FC
7E000001FC
7E000000FC
FE000000FC
FE000000FC
FE000000FC
FE000000FE
FE000000FE
FE000000FE
FE000000FC
FE000000FC
7E000000FC
7E000000FC
7F000001FC
7F000001FC
7F000001F8
3F000003F8
3F800003F8
1F800007F0
1FC00007F0
0FE0000FE0
0FF0001FE0
07FC007FC0
03FFEFFF80
01FFFFFF00
00FFFFFE00
003FFFF800
000FFFE000
0000FC0000
ENDCHAR
STARTCHAR 00F5
ENCODING 245
SWIDTH 591 0
DWIDTH 46 0
BBX 39 58 4 -1
BITMAP
001F000780
007FC00780
00FFF00780
01FFFC0F80
03FFFF3F00
03E1FFFF00
03C07FFE00
07C01FFC00
078007F800
078001E000
0000000000
0000000000
0000000000
0000000000
0000000000
0007FFC000
003FFFF000
007FFFFC00
01FFFFFE00
03FFFFFF80
07FE00FFC0
0FF8003FC0
0FE0001FE0
1FC0000FF0
1FC00007F0
3F800003F8
3F800003F8
7F000001F8
7F000001FC
7F000001FC
7E000001FC
7E000000FC
FE000000FC
FE000000FC
FE000000FC
FE000000FE
FE000000FE
FE000000FE
FE000000FC
FE000000FC
7E000000FC
7E000000FC
7F000001FC
7F000001FC
7F000001F8
3F000003F8
3F800003F8
1F800007F0
1FC00007F0
0FE0000FE0
0FF0001FE0
07FC007FC0
03FFEFFF80
01FFFFFF00
00FFFFFE00
003FFFF800
000FFFE000
0000FC0000
ENDCHAR
STARTCHAR 00F6
ENCODING 246
SWIDTH 591 0
DWIDTH 46 0
BBX 39 58 4 -1
BITMAP
0008003000
007E00F800
007E01FC00
007F01FC00
007F01FC00
007E01FC00
007E00F800
001C007000
0000000000
0000000000
0000000000
0000000000
0000000000
0000000000
0000000000
0007FFC000
003FFFF000
007FFFFC00
01FFFFFE00
03FFFFFF80
07FE00FFC0
0FF8003FC0
0FE0001FE0
1FC0000FF0
1FC00007F0
3F800003F8
3F800003F8
7F000001F8
7F000001FC
7F000001FC
7E000001FC
7E000000FC
FE000000FC
FE000000FC
FE000000FC
FE000000FE
FE000000FE
FE000000FE
FE000000FC
FE000000FC
7E000000FC
7E000000FC
7F000001FC
7F000001FC
7F000001F8
3F000003F8
3F800003F8
1F800007F0
1FC00007F0
0FE0000FE0
0FF0001FE0
07FC007FC0
03FFEFFF80
01FFFFFF00
00FFFFFE00
003FFFF800
000FFFE000
0000FC0000
ENDCHAR
STARTCHAR 00F7
ENCODING 247
SWIDTH 565 0
DWIDTH 44 0
BBX 36 35 4 10
BITMAP
0000F80000
0001FC0000
0003FC0000
0003FC0000
0003FC0000
0003FC0000
0003FC0000
0001F80000
0000600000
0000000000
0000000000
0000000000
0000000000
0000000000
0000000000
FFFFFFFFF0
FFFFFFFFF0
FFFFFFFFF0
FFFFFFFFF0
FFFFFFFFF0
0000000000
0000000000
0000000000
0000000000
0000000000
0000000000
0000000000
0001F80000
0003FC0000
0003FC0000
0003FC0000
0003FC0000
0003FC0000
0001FC0000
0001F80000
ENDCHAR
STARTCHAR 00F8
ENCODING 248
SWIDTH 591 0
DWIDTH 46 0
BBX 39 46 4 -3
BITMAP
0000000040
00000000E0
0007FFC1F8
003FFFF1F8
007FFFFFF0
01FFFFFFE0
03FFFFFFE0
07FE01FFC0
0FF8003FC0
0FE0003FE0
1FC0003FE0
1FC0007FF0
3F8000FFF0
3F8001FFF8
7F0001F9F8
7F0003F1FC
7F0007F1FC
7E000FE1FC
7E000FC0FC
FE001F80FC
FE003F80FC
FE003F00FC
FE007E00FE
FE00FC00FE
FE01FC00FE
FE01F800FC
FE03F000FC
7E07F000FC
7E0FE000FC
7E0FC001FC
7F1F8001FC
7F3F8001F8
3F3F0003F8
3FFE0003F8
1FFC0007F0
1FFC0007F0
0FF8000FE0
0FF0001FE0
07FC007FC0
07FFEFFF80
0FFFFFFF00
1FFFFFFE00
3FBFFFF800
3F0FFFE000
1E00FE0000
0C00000000
ENDCHAR
STARTCHAR 00F9
ENCODING 249
SWIDTH 604 0
DWIDTH 47 0
BBX 35 61 6 -1
BITMAP
00FE000000
00FF000000
007F000000
007F800000
003FC00000
001FC00000
000FE00000
0007F00000
0003F00000
0001F80000
0000FC0000
00007E0000
00003E0000
0000000000
0000000000
0000000000
0000000000
0000000000
FE000007E0
FE000007E0
FE000007E0
FE000007E0
FE000007E0
FE000007E0
FE000007E0
FE000007E0
FE000007E0
FE000007E0
FE000007E0
FE000007E0
FE000007E0
FE000007E0
FE000007E0
FE000007E0
FE000007E0
FE000007E0
FE000007E0
FE000007E0
FE000007E0
FE000007E0
FE000007E0
FE000007E0
FE000007E0
FE00000FE0
FE00000FE0
FE00000FE0
FE00000FE0
FE00000FE0
FE00001FE0
FE00001FE0
7E00001FE0
7F00003FE0
7F80007FE0
3F8000FFE0
3FE003F7E0
1FFFFFF7E0
1FFFFFE7E0
0FFFFFC7E0
03FFFF03E0
00FFFC03E0
000FC00000
ENDCHAR
STARTCHAR 00FA
ENCODING 250
SWIDTH 604 0
DWIDTH 47 0
BBX 35 61 6 -1
BITMAP
000007F800
000007F800
00000FF000
00001FE000
00001FC000
00003F8000
00003F0000
00007E0000
0000FE0000
0001FC0000
0001F00000
0003E00000
0007C00000
0000000000
0000000000
0000000000
0000000000
0000000000
FE000007E0
FE000007E0
FE000007E0
FE000007E0
FE000007E0
FE000007E0
FE000007E0
FE000007E0
FE000007E0
FE000007E0
FE000007E0
FE000007E0
FE000007E0
FE000007E0
FE000007E0
FE000007E0
FE000007E0
FE000007E0
FE000007E0
FE000007E0
FE000007E0
FE000007E0
FE000007E0
FE000007E0
FE000007E0
FE00000FE0
FE00000FE0
FE00000FE0
FE00000FE0
FE00000FE0
FE00001FE0
FE00001FE0
7E00001FE0
7F00003FE0
7F80007FE0
3F8000FFE0
3FE003F7E0
1FFFFFF7E0
1FFFFFE7E0
0FFFFFC7E0
03FFFF03E0
00FFFC03E0
000FC00000
ENDCHAR
STARTCHAR 00FB
ENCODING 251
SWIDTH 604 0
DWIDTH 47 0
BBX 35 61 6 -1
BITMAP
0001F80000
0003FC0000
0007FC0000
0007FE0000
000FFF0000
001FFF8000
003F9FC000
007F0FC000
00FE07E000
00FC03F000
01F801F800
03E000FC00
07C0003E00
0000000000
0000000000
0000000000
0000000000
0000000000
FE000007E0
FE000007E0
FE000007E0
FE000007E0
FE000007E0
FE000007E0
FE000007E0
FE000007E0
FE000007E0
FE000007E0
FE000007E0
FE000007E0
FE000007E0
FE000007E0
FE000007E0
FE000007E0
FE000007E0
FE000007E0
FE000007E0
FE000007E0
FE000007E0
FE000007E0
FE000007E0
FE000007E0
FE000007E0
FE00000FE0
FE00000FE0
FE00000FE0
FE00000FE0
FE00000FE0
FE00001FE0
FE00001FE0
7E00001FE0
7F00003FE0
7F80007FE0
3F8000FFE0
3FE003F7E0
1FFFFFF7E0
1FFFFFE7E0
0FFFFFC7E0
03FFFF03E0
00FFFC03E0
000FC00000
ENDCHAR
STARTCHAR 00FC
ENCODING 252
SWIDTH 604 0
DWIDTH 47 0
BBX 35 58 6 -1
BITMAP
002000C000
00F803F000
01FC03F000
01FC03F800
01FC03F800
01FC03F000
00F803F000
007000E000
0000000000
0000000000
0000000000
0000000000
0000000000
0000000000
0000000000
FE000007E0
FE000007E0
FE000007E0
FE000007E0
FE000007E0
FE000007E0
FE000007E0
FE000007E0
FE000007E0
FE000007E0
FE000007E0
FE000007E0
FE000007E0
FE000007E0
FE000007E0
FE000007E0
FE000007E0
FE000007E0
FE000007E0
FE000007E0
FE000007E0
FE000007E0
FE000007E0
FE000007E0
FE000007E0
FE00000FE0
FE00000FE0
FE00000FE0
FE00000FE0
FE00000FE0
FE00001FE0
FE00001FE0
7E00001FE0
7F00003FE0
7F80007FE0
3F8000FFE0
3FE003F7E0
1FFFFFF7E0
1FFFFFE7E0
0FFFFFC7E0
03FFFF03E0
00FFFC03E0
000FC00000
ENDCHAR
STARTCHAR 00FD
ENCODING 253
SWIDTH 488 0
DWIDTH 38 0
BBX 39 79 0 -19
BITMAP
000001FC00
000003FC00
000003F800
000007F800
00000FF000
00000FE000
00001FC000
00003F8000
00003F0000
00007E0000
0000FC0000
0001F80000
0001F00000
0000000000
0000000000
0000000000
0000000000
0000000000
FE000000FE
7E000000FE
7F000001FC
7F000001FC
3F000001F8
3F800003F8
1F800003F8
1FC00003F0
1FC00007F0
0FC00007F0
0FE00007E0
07E0000FE0
07E0000FC0
07F0001FC0
03F0001FC0
03F8001F80
01F8003F80
01F8003F00
01FC003F00
00FC007F00
00FC007E00
007E007E00
007E00FE00
007F00FC00
003F01FC00
003F01F800
001F81F800
001F83F800
001F83F000
000FC3F000
000FC7F000
0007C7E000
0007E7E000
0007EFC000
0003EFC000
0003EFC000
0001FF8000
0001FF8000
0001FF8000
0000FF0000
0000FF0000
00007E0000
00007E0000
0000FE0000
0000FC0000
0001FC0000
0001F80000
0001F80000
0003F80000
0003F00000
0007F00000
0007E00000
000FE00000
001FC00000
007FC00000
7FFF800000
7FFF000000
7FFE000000
7FFC000000
7FF0000000
1F00000000
ENDCHAR
STARTCHAR 00FE
ENCODING 254
SWIDTH 604 0
DWIDTH 47 0
BBX 36 78 7 -19
BITMAP
FC00000000
FC00000000
FC00000000
FC00000000
FC00000000
FC00000000
FC00000000
FC00000000
FC00000000
FC00000000
FC00000000
FC00000000
FC00000000
FC00000000
FC00000000
FC00000000
FC00000000
FC07FF8000
FC1FFFE000
FC3FFFF800
FCFFFFFC00
FDFFFFFE00
FDFC03FF00
FFE000FF80
FFC0003F80
FF80001FC0
FF00001FC0
FF00000FE0
FE00000FE0
FE000007E0
FE000007F0
FC000007F0
FC000007F0
FC000007F0
FC000003F0
FC000003F0
FC000003F0
FC000003F0
FC000003F0
FC000003F0
FC000003F0
FC000003F0
FC000007F0
FC000007F0
FE000007F0
FE000007F0
FE000007E0
FE00000FE0
FF00000FE0
FF00001FC0
FF80001FC0
FFC0003F80
FFE0007F80
FFF801FF00
FDFFFFFE00
FCFFFFFC00
FC7FFFF800
FC3FFFF000
FC0FFFC000
FC00FE0000
FC00000000
FC00000000
FC00000000
FC00000000
FC00000000
FC00000000
FC00000000
FC00000000
FC00000000
FC00000000
FC00000000
FC00000000
FC00000000
FC00000000
FC00000000
FC00000000
FC00000000
FC00000000
ENDCHAR
STARTCHAR 00FF
ENCODING 255
SWIDTH 488 0
DWIDTH 38 0
BBX 39 76 0 -19
BITMAP
0008002000
007E00F800
007E01FC00
007F01FC00
007F01FC00
007E01FC00
007E00F800
001C007000
0000000000
0000000000
0000000000
0000000000
0000000000
0000000000
0000000000
FE000000FE
7E000000FE
7F000001FC
7F000001FC
3F000001F8
3F800003F8
1F800003F8
1FC00003F0
1FC00007F0
0FC00007F0
0FE00007E0
07E0000FE0
07E0000FC0
07F0001FC0
03F0001FC0
03F8001F80
01F8003F80
01F8003F00
01FC003F00
00FC007F00
00FC007E00
007E007E00
007E00FE00
007F00FC00
003F01FC00
003F01F800
001F81F800
001F83F800
001F83F000
000FC3F000
000FC7F000
0007C7E000
0007E7E000
0007EFC000
0003EFC000
0003EFC000
0001FF8000
0001FF8000
0001FF8000
0000FF0000
0000FF0000
00007E0000
00007E0000
0000FE0000
0000FC0000
0001FC0000
0001F80000
0001F80000
0003F80000
0003F00000
0007F00000
0007E00000
000FE00000
001FC00000
007FC00000
7FFF800000
7FFF000000
7FFE000000
7FFC000000
7FF0000000
1F00000000
ENDCHAR
STARTCHAR 0100
ENCODING 256
SWIDTH 630 0
DWIDTH 49 0
BBX 49 66 0 0
BITMAP
0007FFFFF00000
0007FFFFF00000
0007FFFFF00000
0007FFFFF00000
0007FFFFF00000
00000000000000
00000000000000
00000000000000
00000000000000
00000000000000
000003F0000000
000007F0000000
000007F0000000
00000FF8000000
00000FF8000000
00000FFC000000
00001FFC000000
00001F7C000000
00003F7E000000
00003F7E000000
00003F3F000000
00007E3F000000
00007E3F000000
00007E1F800000
0000FC1F800000
0000FC1F800000
0001FC0FC00000
0001F80FC00000
0001F80FE00000
0003F007E00000
0003F007E00000
0007F003F00000
0007E003F00000
0007E003F80000
000FE001F80000
000FC001F80000
001FC001FC0000
001F8000FC0000
001F8000FC0000
003F8000FE0000
003F00007E0000
003F00007F0000
007F00003F0000
007FFFFFFF0000
00FFFFFFFF8000
00FFFFFFFF8000
00FFFFFFFFC000
01FFFFFFFFC000
01F800000FC000
03F800000FE000
03F800000FE000
03F0000007F000
07F0000007F000
07E0000003F000
0FE0000003F800
0FE0000003F800
0FC0000001F800
1FC0000001FC00
1F80000000FC00
1F80000000FE00
3F80000000FE00
3F000000007E00
7F000000007F00
7F000000007F00
7E000000003F80
FE000000003F80
ENDCHAR
STARTCHAR 0101
ENCODING 257
SWIDTH 552 0
DWIDTH 43 0
BBX 33 53 4 -1
BITMAP
03FFFFF800
03FFFFF800
03FFFFF800
03FFFFF800
03FFFFF800
0000000000
0000000000
0000000000
0000000000
0000000000
001FFF8000
00FFFFE000
03FFFFF800
0FFFFFFC00
07FFFFFE00
07F003FE00
078000FF00
0200007F00
0000003F00
0000003F80
0000003F80
0000003F80
0000001F80
0000001F80
0000001F80
0000001F80
0000001F80
00007FFF80
003FFFFF80
01FFFFFF80
07FFFFFF80
0FFFFFDF80
1FFC001F80
3FE0001F80
7F80001F80
7F00001F80
FE00001F80
FE00001F80
FC00003F80
FC00003F80
FC00003F80
FC00007F80
FC00007F80
FE0000FF80
FE0001FF80
FF0003FF80
7F800FDF80
7FF8FF9F80
3FFFFF0F80
1FFFFE0F80
0FFFFC0F80
03FFF00F80
003F800000
ENDCHAR
STARTCHAR 0102
ENCODING 258
SWIDTH 630 0
DWIDTH 49 0
BBX 49 71 0 0
BITMAP
00078000F80000
00078000F00000
0007C001F00000
0003E003F00000
0003FC1FE00000
0001FFFFE00000
0000FFFFC00000
0000FFFF800000
00003FFE000000
00000FF0000000
00000000000000
00000000000000
00000000000000
00000000000000
00000000000000
000003F0000000
000007F0000000
000007F0000000
00000FF8000000
00000FF8000000
00000FFC000000
00001FFC000000
00001F7C000000
00003F7E000000
00003F7E000000
00003F3F000000
00007E3F000000
00007E3F000000
00007E1F800000
0000FC1F800000
0000FC1F800000
0001FC0FC00000
0001F80FC00000
0001F80FE00000
0003F007E00000
0003F007E00000
0007F003F00000
0007E003F00000
0007E003F80000
000FE001F80000
000FC001F80000
001FC001FC0000
001F8000FC0000
001F8000FC0000
003F8000FE0000
003F00007E0000
003F00007F0000
007F00003F0000
007FFFFFFF0000
00FFFFFFFF8000
00FFFFFFFF8000
00FFFFFFFFC000
01FFFFFFFFC000
01F800000FC000
03F800000FE000
03F800000FE000
03F0000007F000
07F0000007F000
07E0000003F000
0FE0000003F800
0FE0000003F800
0FC0000001F800
1FC0000001FC00
1F80000000FC00
1F80000000FE00
3F80000000FE00
3F000000007E00
7F000000007F00
7F000000007F00
7E000000003F80
FE000000003F80
ENDCHAR
STARTCHAR 0103
ENCODING 259
SWIDTH 552 0
DWIDTH 43 0
BBX 33 58 4 -1
BITMAP
03C0007C00
03C0007800
01E0007800
01F001F800
01FE0FF000
00FFFFF000
007FFFE000
003FFFC000
001FFF0000
0003F80000
0000000000
0000000000
0000000000
0000000000
0000000000
001FFF8000
00FFFFE000
03FFFFF800
0FFFFFFC00
07FFFFFE00
07F003FE00
078000FF00
0200007F00
0000003F00
0000003F80
0000003F80
0000003F80
0000001F80
0000001F80
0000001F80
0000001F80
0000001F80
00007FFF80
003FFFFF80
01FFFFFF80
07FFFFFF80
0FFFFFDF80
1FFC001F80
3FE0001F80
7F80001F80
7F00001F80
FE00001F80
FE00001F80
FC00003F80
FC00003F80
FC00003F80
FC00007F80
FC00007F80
FE0000FF80
FE0001FF80
FF0003FF80
7F800FDF80
7FF8FF9F80
3FFFFF0F80
1FFFFE0F80
0FFFFC0F80
03FFF00F80
003F800000
ENDCHAR
STARTCHAR 0104
ENCODING 260
SWIDTH 630 0
DWIDTH 49 0
BBX 49 73 0 -17
BITMAP
000003F0000000
000007F0000000
000007F0000000
00000FF8000000
00000FF8000000
00000FFC000000
00001FFC000000
00001F7C000000
00003F7E000000
00003F7E000000
00003F3F000000
00007E3F000000
00007E3F000000
00007E1F800000
0000FC1F800000
0000FC1F800000
0001FC0FC00000
0001F80FC00000
0001F80FE00000
0003F007E00000
0003F007E00000
0007F003F00000
0007E003F00000
0007E003F80000
000FE001F80000
000FC001F80000
001FC001FC0000
001F8000FC0000
001F8000FC0000
003F8000FE0000
003F00007E0000
003F00007F0000
007F00003F0000
007FFFFFFF0000
00FFFFFFFF8000
00FFFFFFFF8000
00FFFFFFFFC000
01FFFFFFFFC000
01F800000FC000
03F800000FE000
03F800000FE000
03F0000007F000
07F0000007F000
07E0000003F000
0FE0000003F800
0FE0000003F800
0FC0000001F800
1FC0000001FC00
1F80000000FC00
1F80000000FE00
3F80000000FE00
3F000000007E00
7F000000007F00
7F000000007F00
7E000000003F80
FE000000003F80
00000000003E00
00000000007C00
0000000000F800
0000000001F000
0000000003E000
0000000003E000
0000000007C000
0000000007C000
0000000007C000
0000000007C000
0000000007C000
0000000007C000
0000000007F080
0000000007FF80
0000000003FF80
0000000001FF80
0000000000FF80
ENDCHAR
STARTCHAR 0105
ENCODING 261
SWIDTH 552 0
DWIDTH 43 0
BBX 35 59 4 -17
BITMAP
001FFF8000
00FFFFE000
03FFFFF800
0FFFFFFC00
07FFFFFE00
07F003FE00
078000FF00
0200007F00
0000003F00
0000003F80
0000003F80
0000003F80
0000001F80
0000001F80
0000001F80
0000001F80
0000001F80
00007FFF80
003FFFFF80
01FFFFFF80
07FFFFFF80
0FFFFFDF80
1FFC001F80
3FE0001F80
7F80001F80
7F00001F80
FE00001F80
FE00001F80
FC00003F80
FC00003F80
FC00003F80
FC00007F80
FC00007F80
FE0000FF80
FE0001FF80
FF0003FF80
7F800FDF80
7FF8FF9F80
3FFFFF0F80
1FFFFE0F80
0FFFFC0F80
03FFF00F80
003F801F00
0000003E00
0000007C00
0000007C00
000000F800
000001F000
000001F000
000001F000
000003E000
000003E000
000003F000
000003F000
000001F820
000001FFE0
000000FFE0
000000FFE0
0000003FC0
ENDCHAR
STARTCHAR 0106
ENCODING 262
SWIDTH 630 0
DWIDTH 49 0
BBX 41 75 5 -1
BITMAP
0000000FE000
0000001FE000
0000001FE000
0000003FC000
0000007F8000
0000007F0000
000000FE0000
000001FC0000
000001F80000
000003F00000
000007E00000
000007C00000
00000F800000
000000000000
000000000000
000000000000
000000000000
000000000000
00001FFFE000
0000FFFFFC00
0007FFFFFF80
000FFFFFFF80
003FFFFFFF80
007FFF8FFF00
00FFE0003F00
01FF80000600
03FE00000000
07FC00000000
0FF800000000
0FF000000000
1FE000000000
1FC000000000
3FC000000000
3F8000000000
3F8000000000
7F0000000000
7F0000000000
7F0000000000
FE0000000000
FE0000000000
FE0000000000
FE0000000000
FE0000000000
FE0000000000
FE0000000000
FE0000000000
FE0000000000
FE0000000000
FE0000000000
FE0000000000
FE0000000000
FE0000000000
FE0000000000
FE0000000000
FE0000000000
7F0000000000
7F0000000000
7F0000000000
7F8000000000
3F8000000000
3FC000000000
1FC000000000
1FE000000000
0FF000000000
0FF800000000
07FC00000000
03FF00000000
01FFC0000700
01FFF8007F00
007FFFFFFF00
003FFFFFFF00
001FFFFFFF00
0007FFFFFF00
0000FFFFF800
000007FE0000
ENDCHAR
STARTCHAR 0107
ENCODING 263
SWIDTH 475 0
DWIDTH 37 0
BBX 30 61 4 -1
BITMAP
000007F8
000007F8
00000FF0
00000FE0
00001FC0
00003FC0
00003F80
00007F00
0000FE00
0000FC00
0001F800
0003F000
0003C000
00000000
00000000
00000000
00000000
00000000
0007FFE0
001FFFFC
007FFFFC
01FFFFFC
03FFFFFC
07FF81F8
0FF80018
0FF00000
1FE00000
1FC00000
3F800000
3F800000
7F000000
7F000000
7F000000
7E000000
7E000000
FE000000
FE000000
FE000000
FE000000
FE000000
FE000000
FE000000
FE000000
7E000000
7E000000
7E000000
7F000000
7F000000
3F000000
3F800000
3FC00000
1FC00000
1FE00000
0FF80004
07FC003C
03FFFFFC
01FFFFFC
00FFFFFC
007FFFFC
000FFFF0
0001FE00
ENDCHAR
STARTCHAR 0108
ENCODING 264
SWIDTH 630 0
DWIDTH 49 0
BBX 41 74 5 -1
BITMAP
000007F00000
00000FF80000
00001FFC0000
00003FFC0000
00003FFE0000
00007F7F0000
0000FE3F8000
0001FC1FC000
0003F00FE000
0007E003F000
000FC001F800
000F8000F800
000000000000
000000000000
000000000000
000000000000
000000000000
00001FFFE000
0000FFFFFC00
0007FFFFFF80
000FFFFFFF80
003FFFFFFF80
007FFF8FFF00
00FFE0003F00
01FF80000600
03FE00000000
07FC00000000
0FF800000000
0FF000000000
1FE000000000
1FC000000000
3FC000000000
3F8000000000
3F8000000000
7F0000000000
7F0000000000
7F0000000000
FE0000000000
FE0000000000
FE0000000000
FE0000000000
FE0000000000
FE0000000000
FE0000000000
FE0000000000
FE0000000000
FE0000000000
FE0000000000
FE0000000000
FE0000000000
FE0000000000
FE0000000000
FE0000000000
FE0000000000
7F0000000000
7F0000000000
7F0000000000
7F8000000000
3F8000000000
3FC000000000
1FC000000000
1FE000000000
0FF000000000
0FF800000000
07FC00000000
03FF00000000
01FFC0000700
01FFF8007F00
007FFFFFFF00
003FFFFFFF00
001FFFFFFF00
0007FFFFFF00
0000FFFFF800
000007FE0000
ENDCHAR
STARTCHAR 0109
ENCODING 265
SWIDTH 475 0
DWIDTH 37 0
BBX 31 61 4 -1
BITMAP
0001F800
0003FC00
0003FE00
0007FE00
000FFF00
001FFF80
003F9FC0
003F0FE0
007E07F0
00FC03F8
01F801FC
03F0007C
07C0003E
00000000
00000000
00000000
00000000
00000000
0007FFE0
001FFFFC
007FFFFC
01FFFFFC
03FFFFFC
07FF81F8
0FF80018
0FF00000
1FE00000
1FC00000
3F800000
3F800000
7F000000
7F000000
7F000000
7E000000
7E000000
FE000000
FE000000
FE000000
FE000000
FE000000
FE000000
FE000000
FE000000
7E000000
7E000000
7E000000
7F000000
7F000000
3F000000
3F800000
3FC00000
1FC00000
1FE00000
0FF80004
07FC003C
03FFFFFC
01FFFFFC
00FFFFFC
007FFFFC
000FFFF0
0001FE00
ENDCHAR
STARTCHAR 010A
ENCODING 266
SWIDTH 630 0
DWIDTH 49 0
BBX 41 72 5 -1
BITMAP
000003E00000
000007F00000
000007F00000
000007F00000
000007F00000
000007F00000
000007F00000
000003E00000
000000000000
000000000000
000000000000
000000000000
000000000000
000000000000
000000000000
00001FFFE000
0000FFFFFC00
0007FFFFFF80
000FFFFFFF80
003FFFFFFF80
007FFF8FFF00
00FFE0003F00
01FF80000600
03FE00000000
07FC00000000
0FF800000000
0FF000000000
1FE000000000
1FC000000000
3FC000000000
3F8000000000
3F8000000000
7F0000000000
7F0000000000
7F0000000000
FE0000000000
FE0000000000
FE0000000000
FE0000000000
FE0000000000
FE0000000000
FE0000000000
FE0000000000
FE0000000000
FE0000000000
FE0000000000
FE0000000000
FE0000000000
FE0000000000
FE0000000000
FE0000000000
FE0000000000
7F0000000000
7F0000000000
7F0000000000
7F8000000000
3F8000000000
3FC000000000
1FC000000000
1FE000000000
0FF000000000
0FF800000000
07FC00000000
03FF00000000
01FFC0000700
01FFF8007F00
007FFFFFFF00
003FFFFFFF00
001FFFFFFF00
0007FFFFFF00
0000FFFFF800
000007FE0000
ENDCHAR
STARTCHAR 010B
ENCODING 267
SWIDTH 475 0
DWIDTH 37 0
BBX 30 58 4 -1
BITMAP
0000F000
0001F800
0001FC00
0003FC00
0003FC00
0001FC00
0001F800
0000F000
00000000
00000000
00000000
00000000
00000000
00000000
00000000
0007FFE0
001FFFFC
007FFFFC
01FFFFFC
03FFFFFC
07FF81F8
0FF80018
0FF00000
1FE00000
1FC00000
3F800000
3F800000
7F000000
7F000000
7F000000
7E000000
7E000000
FE000000
FE000000
FE000000
FE000000
FE000000
FE000000
FE000000
FE000000
7E000000
7E000000
7E000000
7F000000
7F000000
3F000000
3F800000
3FC00000
1FC00000
1FE00000
0FF80004
07FC003C
03FFFFFC
01FFFFFC
00FFFFFC
007FFFFC
000FFFF0
0001FE00
ENDCHAR
STARTCHAR 010C
ENCODING 268
SWIDTH 630 0
DWIDTH 49 0
BBX 41 74 5 -1
BITMAP
000F8001F800
0007E003F000
0003F007E000
0003F80FC000
0001FC1F8000
0000FE3F0000
00007F7F0000
00003FFE0000
00001FFC0000
00000FF80000
00000FF00000
000007F00000
000000000000
000000000000
000000000000
000000000000
000000000000
00001FFFE000
0000FFFFFC00
0007FFFFFF80
000FFFFFFF80
003FFFFFFF80
007FFF8FFF00
00FFE0003F00
01FF80000600
03FE00000000
07FC00000000
0FF800000000
0FF000000000
1FE000000000
1FC000000000
3FC000000000
3F8000000000
3F8000000000
7F0000000000
7F0000000000
7F0000000000
FE0000000000
FE0000000000
FE0000000000
FE0000000000
FE0000000000
FE0000000000
FE0000000000
FE0000000000
FE0000000000
FE0000000000
FE0000000000
FE0000000000
FE0000000000
FE0000000000
FE0000000000
FE0000000000
FE0000000000
7F0000000000
7F0000000000
7F0000000000
7F8000000000
3F8000000000
3FC000000000
1FC000000000
1FE000000000
0FF000000000
0FF800000000
07FC00000000
03FF00000000
01FFC0000700
01FFF8007F00
007FFFFFFF00
003FFFFFFF00
001FFFFFFF00
0007FFFFFF00
0000FFFFF800
000007FE0000
ENDCHAR
STARTCHAR 010D
ENCODING 269
SWIDTH 475 0
DWIDTH 37 0
BBX 31 61 4 -1
BITMAP
07C0003E
07E0007E
03F000FC
01FC03F8
00FE07F0
007F0FE0
003F9FC0
001FFF80
000FFF00
000FFE00
0007FE00
0003FC00
0001F800
00000000
00000000
00000000
00000000
00000000
0007FFE0
001FFFFC
007FFFFC
01FFFFFC
03FFFFFC
07FF81F8
0FF80018
0FF00000
1FE00000
1FC00000
3F800000
3F800000
7F000000
7F000000
7F000000
7E000000
7E000000
FE000000
FE000000
FE000000
FE000000
FE000000
FE000000
FE000000
FE000000
7E000000
7E000000
7E000000
7F000000
7F000000
3F000000
3F800000
3FC00000
1FC00000
1FE00000
0FF80004
07FC003C
03FFFFFC
01FFFFFC
00FFFFFC
007FFFFC
000FFFF0
0001FE00
ENDCHAR
STARTCHAR 010E
ENCODING 270
SWIDTH 720 0
DWIDTH 56 0
BBX 44 73 8 0
BITMAP
01F8001F8000
00FC003F0000
007E00FE0000
003F01FC0000
001F83F80000
000FC7F00000
0007EFE00000
0007FFC00000
0003FF800000
0001FF800000
0000FF000000
0000FE000000
000000000000
000000000000
000000000000
000000000000
000000000000
FFFF80000000
FFFFFF800000
FFFFFFF80000
FFFFFFFE0000
FFFFFFFF8000
FFFFFFFFC000
FC0007FFE000
FC00007FF000
FC00001FF800
FC000007FC00
FC000003FE00
FC000001FF00
FC000000FF00
FC0000007F80
FC0000003F80
FC0000003FC0
FC0000001FC0
FC0000001FC0
FC0000000FE0
FC0000000FE0
FC0000000FE0
FC0000000FE0
FC0000000FE0
FC00000007E0
FC00000007F0
FC00000007F0
FC00000007F0
FC00000007F0
FC00000007F0
FC00000007F0
FC00000007F0
FC00000007F0
FC00000007E0
FC0000000FE0
FC0000000FE0
FC0000000FE0
FC0000000FE0
FC0000000FE0
FC0000001FC0
FC0000001FC0
FC0000003FC0
FC0000003F80
FC0000007F80
FC000000FF00
FC000001FF00
FC000003FE00
FC000007FC00
FC00000FF800
FC00007FF800
FC0003FFE000
FFFFFFFFC000
FFFFFFFF8000
FFFFFFFE0000
FFFFFFF80000
FFFFFFC00000
FFFFF8000000
ENDCHAR
STARTCHAR 010F
ENCODING 271
SWIDTH 604 0
DWIDTH 47 0
BBX 49 60 4 -1
BITMAP
00000001F81F80
00000001F83F80
00000001F83F00
00000001F83F00
00000001F83F00
00000001F83E00
00000001F87E00
00000001F87C00
00000001F87C00
00000001F87800
00000001F8F800
00000001F8F000
00000001F80000
00000001F80000
00000001F80000
00000001F80000
00000001F80000
000FFE01F80000
007FFFC1F80000
00FFFFE1F80000
01FFFFF1F80000
03FFFFF9F80000
07FE01FDF80000
0FF0007FF80000
1FE0001FF80000
1FC0000FF80000
3FC0000FF80000
3F800007F80000
3F800007F80000
7F000003F80000
7F000003F80000
7F000003F80000
7E000003F80000
7E000003F80000
FE000003F80000
FE000001F80000
FE000001F80000
FE000001F80000
FE000001F80000
FE000001F80000
FE000001F80000
FE000001F80000
7E000001F80000
7E000003F80000
7E000003F80000
7F000003F80000
7F000003F80000
7F000003F80000
3F800007F80000
3F800007F80000
3FC0000FF80000
1FE0001FF80000
0FF0003FF80000
0FF800FDF80000
07FFDFFDF80000
03FFFFF9F80000
01FFFFF1F80000
007FFFC0F80000
001FFF00F80000
0003F800000000
ENDCHAR
STARTCHAR 0110
ENCODING 272
SWIDTH 720 0
DWIDTH 56 0
BBX 50 56 2 0
BITMAP
03FFFE00000000
03FFFFFE000000
03FFFFFFE00000
03FFFFFFF80000
03FFFFFFFE0000
03FFFFFFFF0000
03F8001FFF8000
03F80001FFC000
03F800007FE000
03F800001FF000
03F800000FF800
03F8000007FC00
03F8000003FC00
03F8000001FE00
03F8000000FE00
03F8000000FF00
03F80000007F00
03F80000007F00
03F80000003F80
03F80000003F80
03F80000003F80
03F80000003F80
03F80000003F80
03F80000001F80
03F80000001FC0
03F80000001FC0
FFFFFFE0001FC0
FFFFFFE0001FC0
FFFFFFE0001FC0
FFFFFFE0001FC0
FFFFFFE0001FC0
03F80000001FC0
03F80000001F80
03F80000003F80
03F80000003F80
03F80000003F80
03F80000003F80
03F80000003F80
03F80000007F00
03F80000007F00
03F8000000FF00
03F8000000FE00
03F8000001FE00
03F8000003FC00
03F8000007FC00
03F800000FF800
03F800001FF000
03F800003FE000
03F80001FFE000
03F8000FFF8000
03FFFFFFFF0000
03FFFFFFFE0000
03FFFFFFF80000
03FFFFFFE00000
03FFFFFF000000
03FFFFE0000000
ENDCHAR
STARTCHAR 0111
ENCODING 273
SWIDTH 604 0
DWIDTH 47 0
BBX 43 60 4 -1
BITMAP
00000001F800
00000001F800
00000001F800
00000001F800
00000001F800
00000001F800
00000001F800
0003FFFFFFE0
0003FFFFFFE0
0003FFFFFFE0
0003FFFFFFE0
0003FFFFFFE0
00000001F800
00000001F800
00000001F800
00000001F800
00000001F800
000FFE01F800
003FFF81F800
00FFFFE1F800
01FFFFF1F800
03FFFFF9F800
07FE03FDF800
0FF8007FF800
1FE0001FF800
1FC0001FF800
3FC0000FF800
3F800007F800
3F800007F800
7F000007F800
7F000003F800
7F000003F800
7E000003F800
7E000003F800
FE000003F800
FE000001F800
FE000001F800
FE000001F800
FE000001F800
FE000001F800
FE000001F800
FE000001F800
FE000003F800
7E000003F800
7E000003F800
7F000003F800
7F000003F800
7F000003F800
3F800007F800
3F800007F800
3FC0000FF800
1FE0001FF800
0FF0003FF800
0FF800FDF800
07FFDFF9F800
03FFFFF9F800
01FFFFF1F800
007FFFC0F800
001FFF00F800
0003F8000000
ENDCHAR
STARTCHAR 0112
ENCODING 274
SWIDTH 552 0
DWIDTH 43 0
BBX 31 66 8 0
BITMAP
0FFFFFE0
0FFFFFE0
0FFFFFE0
0FFFFFE0
0FFFFFE0
00000000
00000000
00000000
00000000
00000000
FFFFFFFE
FFFFFFFE
FFFFFFFE
FFFFFFFE
FFFFFFFE
FFFFFFFE
FC000000
FC000000
FC000000
FC000000
FC000000
FC000000
FC000000
FC000000
FC000000
FC000000
FC000000
FC000000
FC000000
FC000000
FC000000
FC000000
FC000000
FC000000
FFFFFFF8
FFFFFFF8
FFFFFFF8
FFFFFFF8
FFFFFFF8
FFFFFFF8
FC000000
FC000000
FC000000
FC000000
FC000000
FC000000
FC000000
FC000000
FC000000
FC000000
FC000000
FC000000
FC000000
FC000000
FC000000
FC000000
FC000000
FC000000
FC000000
FC000000
FFFFFFFE
FFFFFFFE
FFFFFFFE
FFFFFFFE
FFFFFFFE
FFFFFFFE
ENDCHAR
STARTCHAR 0113
ENCODING 275
SWIDTH 552 0
DWIDTH 43 0
BBX 36 53 4 -1
BITMAP
01FFFFFC00
01FFFFFC00
01FFFFFC00
01FFFFFC00
01FFFFFC00
0000000000
0000000000
0000000000
0000000000
0000000000
0007FF8000
003FFFE000
007FFFF800
01FFFFFC00
03FFFFFE00
07FC01FF00
07F0007F00
0FE0003F80
1FC0001FC0
1F80001FC0
3F80000FC0
3F00000FE0
3F00000FE0
7F000007E0
7E000007E0
7E000007E0
7E000007F0
7FFFFFFFF0
FFFFFFFFF0
FFFFFFFFF0
FFFFFFFFF0
FFFFFFFFF0
FE00000000
FE00000000
FE00000000
7E00000000
7E00000000
7E00000000
7F00000000
7F00000000
3F00000000
3F80000000
3FC0000000
1FC0000000
0FF0000000
0FF80001C0
07FE000FC0
03FFFFFFC0
01FFFFFFC0
00FFFFFFC0
003FFFFF80
000FFFFC00
00007F8000
ENDCHAR
STARTCHAR 0114
ENCODING 276
SWIDTH 552 0
DWIDTH 43 0
BBX 31 71 8 0
BITMAP
0F0000F0
0F8001F0
078001E0
07C003E0
07F81FC0
03FFFFC0
01FFFF80
00FFFF00
007FFC00
000FF000
00000000
00000000
00000000
00000000
00000000
FFFFFFFE
FFFFFFFE
FFFFFFFE
FFFFFFFE
FFFFFFFE
FFFFFFFE
FC000000
FC000000
FC000000
FC000000
FC000000
FC000000
FC000000
FC000000
FC000000
FC000000
FC000000
FC000000
FC000000
FC000000
FC000000
FC000000
FC000000
FC000000
FFFFFFF8
FFFFFFF8
FFFFFFF8
FFFFFFF8
FFFFFFF8
FFFFFFF8
FC000000
FC000000
FC000000
FC000000
FC000000
FC000000
FC000000
FC000000
FC000000
FC000000
FC000000
FC000000
FC000000
FC000000
FC000000
FC000000
FC000000
FC000000
FC000000
FC000000
FFFFFFFE
FFFFFFFE
FFFFFFFE
FFFFFFFE
FFFFFFFE
FFFFFFFE
ENDCHAR
STARTCHAR 0115
ENCODING 277
SWIDTH 552 0
DWIDTH 43 0
BBX 36 58 4 -1
BITMAP
01E0003C00
01E0003C00
01E0007C00
01F000F800
00FF0FF800
00FFFFF000
007FFFE000
003FFFC000
000FFF8000
0003FC0000
0000000000
0000000000
0000000000
0000000000
0000000000
0007FF8000
003FFFE000
007FFFF800
01FFFFFC00
03FFFFFE00
07FC01FF00
07F0007F00
0FE0003F80
1FC0001FC0
1F80001FC0
3F80000FC0
3F00000FE0
3F00000FE0
7F000007E0
7E000007E0
7E000007E0
7E000007F0
7FFFFFFFF0
FFFFFFFFF0
FFFFFFFFF0
FFFFFFFFF0
FFFFFFFFF0
FE00000000
FE00000000
FE00000000
7E00000000
7E00000000
7E00000000
7F00000000
7F00000000
3F00000000
3F80000000
3FC0000000
1FC0000000
0FF0000000
0FF80001C0
07FE000FC0
03FFFFFFC0
01FFFFFFC0
00FFFFFFC0
003FFFFF80
000FFFFC00
00007F8000
ENDCHAR
STARTCHAR 0116
ENCODING 278
SWIDTH 552 0
DWIDTH 43 0
BBX 31 71 8 0
BITMAP
0003C000
0007E000
000FE000
000FF000
000FF000
000FE000
0007E000
0003C000
00000000
00000000
00000000
00000000
00000000
00000000
00000000
FFFFFFFE
FFFFFFFE
FFFFFFFE
FFFFFFFE
FFFFFFFE
FFFFFFFE
FC000000
FC000000
FC000000
FC000000
FC000000
FC000000
FC000000
FC000000
FC000000
FC000000
FC000000
FC000000
FC000000
FC000000
FC000000
FC000000
FC000000
FC000000
FFFFFFF8
FFFFFFF8
FFFFFFF8
FFFFFFF8
FFFFFFF8
FFFFFFF8
FC000000
FC000000
FC000000
FC000000
FC000000
FC000000
FC000000
FC000000
FC000000
FC000000
FC000000
FC000000
FC000000
FC000000
FC000000
FC000000
FC000000
FC000000
FC000000
FC000000
FFFFFFFE
FFFFFFFE
FFFFFFFE
FFFFFFFE
FFFFFFFE
FFFFFFFE
ENDCHAR
STARTCHAR 0117
ENCODING 279
SWIDTH 552 0
DWIDTH 43 0
BBX 36 58 4 -1
BITMAP
0000F80000
0001F80000
0001FC0000
0003FC0000
0003FC0000
0001FC0000
0001F80000
0000F00000
0000000000
0000000000
0000000000
0000000000
0000000000
0000000000
0000000000
0007FF8000
003FFFE000
007FFFF800
01FFFFFC00
03FFFFFE00
07FC01FF00
07F0007F00
0FE0003F80
1FC0001FC0
1F80001FC0
3F80000FC0
3F00000FE0
3F00000FE0
7F000007E0
7E000007E0
7E000007E0
7E000007F0
7FFFFFFFF0
FFFFFFFFF0
FFFFFFFFF0
FFFFFFFFF0
FFFFFFFFF0
FE00000000
FE00000000
FE00000000
7E00000000
7E00000000
7E00000000
7F00000000
7F00000000
3F00000000
3F80000000
3FC0000000
1FC0000000
0FF0000000
0FF80001C0
07FE000FC0
03FFFFFFC0
01FFFFFFC0
00FFFFFFC0
003FFFFF80
000FFFFC00
00007F8000
ENDCHAR
STARTCHAR 0118
ENCODING 280
SWIDTH 552 0
DWIDTH 43 0
BBX 31 73 8 -17
BITMAP
FFFFFFFE
FFFFFFFE
FFFFFFFE
FFFFFFFE
FFFFFFFE
FFFFFFFE
FC000000
FC000000
FC000000
FC000000
FC000000
FC000000
FC000000
FC000000
FC000000
FC000000
FC000000
FC000000
FC000000
FC000000
FC000000
FC000000
FC000000
FC000000
FFFFFFF8
FFFFFFF8
FFFFFFF8
FFFFFFF8
FFFFFFF8
FFFFFFF8
FC000000
FC000000
FC000000
FC000000
FC000000
FC000000
FC000000
FC000000
FC000000
FC000000
FC000000
FC000000
FC000000
FC000000
FC000000
FC000000
FC000000
FC000000
FC000000
FC000000
FFFFFFFE
FFFFFFFE
FFFFFFFE
FFFFFFFE
FFFFFFFE
FFFFFFFE
000001F0
000003E0
000007C0
00000F80
00001F00
00001F00
00003E00
00003E00
00003E00
00003E00
00003E00
00003E00
00003F84
00003FFC
00001FFC
00000FFC
000007FC
ENDCHAR
STARTCHAR 0119
ENCODING 281
SWIDTH 552 0
DWIDTH 43 0
BBX 36 59 4 -17
BITMAP
0007FF8000
003FFFE000
007FFFF800
01FFFFFC00
03FFFFFE00
07FC01FF00
07F0007F00
0FE0003F80
1FC0001FC0
1F80001FC0
3F80000FC0
3F00000FE0
3F00000FE0
7F000007E0
7E000007E0
7E000007E0
7E000007F0
7FFFFFFFF0
FFFFFFFFF0
FFFFFFFFF0
FFFFFFFFF0
FFFFFFFFF0
FE00000000
FE00000000
FE00000000
7E00000000
7E00000000
7E00000000
7F00000000
7F00000000
3F00000000
3F80000000
3FC0000000
1FC0000000
0FF0000000
0FF80001C0
07FE000FC0
03FFFFFFC0
01FFFFFFC0
00FFFFFFC0
003FFFFF80
000FFFFF00
00007FBE00
0000007C00
000000F800
000001F000
000003E000
000003E000
000007C000
000007C000
000007C000
000007C000
000007C000
000007E000
000007F080
000007FF80
000003FF80
000001FF80
0000007F80
ENDCHAR
STARTCHAR 011A
ENCODING 282
SWIDTH 552 0
DWIDTH 43 0
BBX 31 73 8 0
BITMAP
1F8001F8
0FC007F0
07E00FE0
03F01FC0
01F83F80
00FC7F00
00FEFE00
007FFC00
003FF800
001FF000
000FF000
000FE000
00000000
00000000
00000000
00000000
00000000
FFFFFFFE
FFFFFFFE
FFFFFFFE
FFFFFFFE
FFFFFFFE
FFFFFFFE
FC000000
FC000000
FC000000
FC000000
FC000000
FC000000
FC000000
FC000000
FC000000
FC000000
FC000000
FC000000
FC000000
FC000000
FC000000
FC000000
FC000000
FC000000
FFFFFFF8
FFFFFFF8
FFFFFFF8
FFFFFFF8
FFFFFFF8
FFFFFFF8
FC000000
FC000000
FC000000
FC000000
FC000000
FC000000
FC000000
FC000000
FC000000
FC000000
FC000000
FC000000
FC000000
FC000000
FC000000
FC000000
FC000000
FC000000
FC000000
FC000000
FFFFFFFE
FFFFFFFE
FFFFFFFE
FFFFFFFE
FFFFFFFE
FFFFFFFE
ENDCHAR
STARTCHAR 011B
ENCODING 283
SWIDTH 552 0
DWIDTH 43 0
BBX 36 61 4 -1
BITMAP
07C0003E00
07E0007E00
03F000FC00
01FC01F800
00FE07F000
007F0FE000
003F9FC000
001FFF8000
000FFF0000
000FFF0000
0007FE0000
0003FC0000
0001F80000
0000000000
0000000000
0000000000
0000000000
0000000000
0007FF8000
003FFFE000
007FFFF800
01FFFFFC00
03FFFFFE00
07FC01FF00
07F0007F00
0FE0003F80
1FC0001FC0
1F80001FC0
3F80000FC0
3F00000FE0
3F00000FE0
7F000007E0
7E000007E0
7E000007E0
7E000007F0
7FFFFFFFF0
FFFFFFFFF0
FFFFFFFFF0
FFFFFFFFF0
FFFFFFFFF0
FE00000000
FE00000000
FE00000000
7E00000000
7E00000000
7E00000000
7F00000000
7F00000000
3F00000000
3F80000000
3FC0000000
1FC0000000
0FF0000000
0FF80001C0
07FE000FC0
03FFFFFFC0
01FFFFFFC0
00FFFFFFC0
003FFFFF80
000FFFFC00
00007F8000
ENDCHAR
STARTCHAR 011C
ENCODING 284
SWIDTH 720 0
DWIDTH 56 0
BBX 46 74 5 -1
BITMAP
000001FC0000
000003FE0000
000007FF0000
00000FFF0000
00000FFF8000
00001FDFC000
00003F8FE000
00007F07F000
0000FC03F800
0001F800FC00
0003F0007E00
0003E0003E00
000000000000
000000000000
000000000000
000000000000
000000000000
00000FFFF800
00007FFFFF80
0003FFFFFFF0
0007FFFFFFF8
001FFFFFFFF0
003FFF81FFF0
00FFF0000FE0
01FFC00000E0
03FF00000020
03FC00000000
07F800000000
0FF000000000
0FE000000000
1FE000000000
3FC000000000
3F8000000000
3F8000000000
7F0000000000
7F0000000000
7F0000000000
7E0000000000
FE0000000000
FE0000000000
FE0000000000
FE0000000000
FE0000000000
FE0000000000
FC00003FFFFC
FC00003FFFFC
FC00003FFFFC
FE00003FFFFC
FE00003FFFFC
FE00003FFFFC
FE00000001FC
FE00000001FC
FE00000001FC
7E00000001FC
7F00000001FC
7F00000001FC
7F00000001FC
3F80000001FC
3F80000001FC
3FC0000001FC
1FC0000001FC
1FE0000001FC
0FF0000001FC
07F8000001FC
07FC000001FC
03FF000001FC
01FFC00001FC
00FFF8000FFC
007FFFFFFFFC
001FFFFFFFFC
000FFFFFFFFC
0003FFFFFFF0
00007FFFFF00
000003FF8000
ENDCHAR
STARTCHAR 011D
ENCODING 285
SWIDTH 540 0
DWIDTH 42 0
BBX 40 79 1 -19
BITMAP
0000FC0000
0001FE0000
0003FF0000
0003FF0000
0007FF8000
000FFFC000
001FCFE000
003F87F000
003F03F000
007E01F800
00FC00FC00
01F8007E00
03E0001F00
0000000000
0000000000
0000000000
0000000000
0000000000
0007FFFFFF
003FFFFFFF
007FFFFFFF
01FFFFFFFF
03FF03FFFE
03FC00FF00
07F0003F80
07F0001F80
0FE0001FC0
0FE0000FC0
0FC0000FC0
0FC0000FE0
1FC0000FE0
1FC0000FE0
1FC0000FE0
0FC0000FE0
0FC0000FC0
0FE0000FC0
0FE0001FC0
07F0003F80
07F8003F80
03FC00FF00
03FFFFFE00
01FFFFFC00
007FFFF800
001FFFE000
007FFF0000
00FC000000
01F8000000
03F0000000
03F0000000
03F0000000
03F0000000
03F0000000
03F8000000
03FFFFF800
01FFFFFF80
00FFFFFFE0
007FFFFFF0
01FFFFFFF8
07FFFFFFFC
0FF0000FFC
1FC00001FE
3F000000FE
7F000000FE
7E0000007E
FE0000007E
FE0000007E
FE0000007E
FE000000FE
FE000000FE
FE000001FC
7F000003FC
7F800007F8
3FC0001FF0
3FFE03FFE0
1FFFFFFFC0
0FFFFFFF80
03FFFFFE00
00FFFFF000
0007F80000
ENDCHAR
STARTCHAR 011E
ENCODING 286
SWIDTH 720 0
DWIDTH 56 0
BBX 46 72 5 -1
BITMAP
0001E0003C00
0001E0003C00
0001F0007C00
0000F800FC00
0000FF07F800
00007FFFF000
00007FFFF000
00003FFFE000
00000FFF8000
000003FC0000
000000000000
000000000000
000000000000
000000000000
000000000000
00000FFFF800
00007FFFFF80
0003FFFFFFF0
0007FFFFFFF8
001FFFFFFFF0
003FFF81FFF0
00FFF0000FE0
01FFC00000E0
03FF00000020
03FC00000000
07F800000000
0FF000000000
0FE000000000
1FE000000000
3FC000000000
3F8000000000
3F8000000000
7F0000000000
7F0000000000
7F0000000000
7E0000000000
FE0000000000
FE0000000000
FE0000000000
FE0000000000
FE0000000000
FE0000000000
FC00003FFFFC
FC00003FFFFC
FC00003FFFFC
FE00003FFFFC
FE00003FFFFC
FE00003FFFFC
FE00000001FC
FE00000001FC
FE00000001FC
7E00000001FC
7F00000001FC
7F00000001FC
7F00000001FC
3F80000001FC
3F80000001FC
3FC0000001FC
1FC0000001FC
1FE0000001FC
0FF0000001FC
07F8000001FC
07FC000001FC
03FF000001FC
01FFC00001FC
00FFF8000FFC
007FFFFFFFFC
001FFFFFFFFC
000FFFFFFFFC
0003FFFFFFF0
00007FFFFF00
000003FF8000
ENDCHAR
STARTCHAR 011F
ENCODING 287
SWIDTH 540 0
DWIDTH 42 0
BBX 40 76 1 -19
BITMAP
01E0001E00
01F0003E00
00F0003C00
00F8007C00
00FF87F800
007FFFF800
003FFFF000
001FFFE000
000FFF8000
0001FE0000
0000000000
0000000000
0000000000
0000000000
0000000000
0007FFFFFF
003FFFFFFF
007FFFFFFF
01FFFFFFFF
03FF03FFFE
03FC00FF00
07F0003F80
07F0001F80
0FE0001FC0
0FE0000FC0
0FC0000FC0
0FC0000FE0
1FC0000FE0
1FC0000FE0
1FC0000FE0
0FC0000FE0
0FC0000FC0
0FE0000FC0
0FE0001FC0
07F0003F80
07F8003F80
03FC00FF00
03FFFFFE00
01FFFFFC00
007FFFF800
001FFFE000
007FFF0000
00FC000000
01F8000000
03F0000000
03F0000000
03F0000000
03F0000000
03F0000000
03F8000000
03FFFFF800
01FFFFFF80
00FFFFFFE0
007FFFFFF0
01FFFFFFF8
07FFFFFFFC
0FF0000FFC
1FC00001FE
3F000000FE
7F000000FE
7E0000007E
FE0000007E
FE0000007E
FE0000007E
FE000000FE
FE000000FE
FE000001FC
7F000003FC
7F800007F8
3FC0001FF0
3FFE03FFE0
1FFFFFFFC0
0FFFFFFF80
03FFFFFE00
00FFFFF000
0007F80000
ENDCHAR
STARTCHAR 0120
ENCODING 288
SWIDTH 720 0
DWIDTH 56 0
BBX 46 72 5 -1
BITMAP
000000F80000
000001FC0000
000001FC0000
000001FC0000
000001FC0000
000001FC0000
000001FC0000
000000F80000
000000000000
000000000000
000000000000
000000000000
000000000000
000000000000
000000000000
00000FFFF800
00007FFFFF80
0003FFFFFFF0
0007FFFFFFF8
001FFFFFFFF0
003FFF81FFF0
00FFF0000FE0
01FFC00000E0
03FF00000020
03FC00000000
07F800000000
0FF000000000
0FE000000000
1FE000000000
3FC000000000
3F8000000000
3F8000000000
7F0000000000
7F0000000000
7F0000000000
7E0000000000
FE0000000000
FE0000000000
FE0000000000
FE0000000000
FE0000000000
FE0000000000
FC00003FFFFC
FC00003FFFFC
FC00003FFFFC
FE00003FFFFC
FE00003FFFFC
FE00003FFFFC
FE00000001FC
FE00000001FC
FE00000001FC
7E00000001FC
7F00000001FC
7F00000001FC
7F00000001FC
3F80000001FC
3F80000001FC
3FC0000001FC
1FC0000001FC
1FE0000001FC
0FF0000001FC
07F8000001FC
07FC000001FC
03FF000001FC
01FFC00001FC
00FFF8000FFC
007FFFFFFFFC
001FFFFFFFFC
000FFFFFFFFC
0003FFFFFFF0
00007FFFFF00
000003FF8000
ENDCHAR
STARTCHAR 0121
ENCODING 289
SWIDTH 540 0
DWIDTH 42 0
BBX 40 76 1 -19
BITMAP
0000780000
0000FC0000
0001FE0000
0001FE0000
0001FE0000
0000FE0000
0000FC0000
0000780000
0000000000
0000000000
0000000000
0000000000
0000000000
0000000000
0000000000
0007FFFFFF
003FFFFFFF
007FFFFFFF
01FFFFFFFF
03FF03FFFE
03FC00FF00
07F0003F80
07F0001F80
0FE0001FC0
0FE0000FC0
0FC0000FC0
0FC0000FE0
1FC0000FE0
1FC0000FE0
1FC0000FE0
0FC0000FE0
0FC0000FC0
0FE0000FC0
0FE0001FC0
07F0003F80
07F8003F80
03FC00FF00
03FFFFFE00
01FFFFFC00
007FFFF800
001FFFE000
007FFF0000
00FC000000
01F8000000
03F0000000
03F0000000
03F0000000
03F0000000
03F0000000
03F8000000
03FFFFF800
01FFFFFF80
00FFFFFFE0
007FFFFFF0
01FFFFFFF8
07FFFFFFFC
0FF0000FFC
1FC00001FE
3F000000FE
7F000000FE
7E0000007E
FE0000007E
FE0000007E
FE0000007E
FE000000FE
FE000000FE
FE000001FC
7F000003FC
7F800007F8
3FC0001FF0
3FFE03FFE0
1FFFFFFFC0
0FFFFFFF80
03FFFFFE00
00FFFFF000
0007F80000
ENDCHAR
STARTCHAR 0122
ENCODING 290
SWIDTH 720 0
DWIDTH 56 0
BBX 46 73 5 -17
BITMAP
00000FFFF800
00007FFFFF80
0003FFFFFFF0
0007FFFFFFF8
001FFFFFFFF0
003FFF81FFF0
00FFF0000FE0
01FFC00000E0
03FF00000020
03FC00000000
07F800000000
0FF000000000
0FE000000000
1FE000000000
3FC000000000
3F8000000000
3F8000000000
7F0000000000
7F0000000000
7F0000000000
7E0000000000
FE0000000000
FE0000000000
FE0000000000
FE0000000000
FE0000000000
FE0000000000
FC00003FFFFC
FC00003FFFFC
FC00003FFFFC
FE00003FFFFC
FE00003FFFFC
FE00003FFFFC
FE00000001FC
FE00000001FC
FE00000001FC
7E00000001FC
7F00000001FC
7F00000001FC
7F00000001FC
3F80000001FC
3F80000001FC
3FC0000001FC
1FC0000001FC
1FE0000001FC
0FF0000001FC
07F8000001FC
07FC000001FC
03FF000001FC
01FFC00001FC
00FFF8000FFC
007FFFFFFFFC
001FFFFFFFFC
000FFFFFFFFC
0003FFFFFFF0
00007FFFFF00
000003FF8000
000000000000
000000000000
000000000000
000000000000
000000FE0000
000000FE0000
000000FC0000
000000FC0000
000000F80000
000001F80000
000001F00000
000001F00000
000003E00000
000003E00000
000003C00000
000007800000
ENDCHAR
STARTCHAR 0123
ENCODING 291
SWIDTH 540 0
DWIDTH 42 0
BBX 40 79 1 -19
BITMAP
0000070000
00000F0000
00001F0000
00001E0000
00003E0000
00003E0000
00007C0000
00007C0000
0000FC0000
0000FC0000
0001F80000
0001F80000
0001F80000
0000000000
0000000000
0000000000
0000000000
0000000000
0007FFFFFF
003FFFFFFF
007FFFFFFF
01FFFFFFFF
03FF03FFFE
03FC00FF00
07F0003F80
07F0001F80
0FE0001FC0
0FE0000FC0
0FC0000FC0
0FC0000FE0
1FC0000FE0
1FC0000FE0
1FC0000FE0
0FC0000FE0
0FC0000FC0
0FE0000FC0
0FE0001FC0
07F0003F80
07F8003F80
03FC00FF00
03FFFFFE00
01FFFFFC00
007FFFF800
001FFFE000
007FFF0000
00FC000000
01F8000000
03F0000000
03F0000000
03F0000000
03F0000000
03F0000000
03F8000000
03FFFFF800
01FFFFFF80
00FFFFFFE0
007FFFFFF0
01FFFFFFF8
07FFFFFFFC
0FF0000FFC
1FC00001FE
3F000000FE
7F000000FE
7E0000007E
FE0000007E
FE0000007E
FE0000007E
FE000000FE
FE000000FE
FE000001FC
7F000003FC
7F800007F8
3FC0001FF0
3FFE03FFE0
1FFFFFFFC0
0FFFFFFF80
03FFFFFE00
00FFFFF000
0007F80000
ENDCHAR
STARTCHAR 0124
ENCODING 292
SWIDTH 732 0
DWIDTH 57 0
BBX 42 73 8 0
BITMAP
00007F800000
0000FF800000
0000FFC00000
0001FFE00000
0003FFF00000
0007F3F00000
000FE1F80000
001FC0FC0000
003F807E0000
003F003F0000
007C001F8000
00F8000FC000
000000000000
000000000000
000000000000
000000000000
000000000000
FC0000001FC0
FC0000001FC0
FC0000001FC0
FC0000001FC0
FC0000001FC0
FC0000001FC0
FC0000001FC0
FC0000001FC0
FC0000001FC0
FC0000001FC0
FC0000001FC0
FC0000001FC0
FC0000001FC0
FC0000001FC0
FC0000001FC0
FC0000001FC0
FC0000001FC0
FC0000001FC0
FC0000001FC0
FC0000001FC0
FC0000001FC0
FC0000001FC0
FC0000001FC0
FC0000001FC0
FFFFFFFFFFC0
FFFFFFFFFFC0
FFFFFFFFFFC0
FFFFFFFFFFC0
FFFFFFFFFFC0
FFFFFFFFFFC0
FC0000001FC0
FC0000001FC0
FC0000001FC0
FC0000001FC0
FC0000001FC0
FC0000001FC0
FC0000001FC0
FC0000001FC0
FC0000001FC0
FC0000001FC0
FC0000001FC0
FC0000001FC0
FC0000001FC0
FC0000001FC0
FC0000001FC0
FC0000001FC0
FC0000001FC0
FC0000001FC0
FC0000001FC0
FC0000001FC0
FC0000001FC0
FC0000001FC0
FC0000001FC0
FC0000001FC0
FC0000001FC0
FC0000001FC0
ENDCHAR
STARTCHAR 0125
ENCODING 293
SWIDTH 604 0
DWIDTH 47 0
BBX 44 77 -3 0
BITMAP
007F00000000
007F80000000
00FFC0000000
01FFE0000000
03FFE0000000
03F7F0000000
07E3F8000000
0FC1FC000000
1F80FE000000
3F003F000000
7E001F800000
FC000FC00000
000000000000
000000000000
000000000000
000000000000
000000000000
000000000000
003F00000000
003F00000000
003F00000000
003F00000000
003F00000000
003F00000000
003F00000000
003F00000000
003F00000000
003F00000000
003F00000000
003F00000000
003F00000000
003F00000000
003F00000000
003F00000000
003F00000000
003F00FFF000
003F07FFFC00
003F0FFFFF00
003F3FFFFF80
003F7FFFFFC0
003F7F00FFC0
003FF8001FE0
003FF0000FE0
003FE0000FF0
003FC00007F0
003FC00007F0
003F800003F0
003F800003F0
003F800003F0
003F000003F0
003F000003F0
003F000003F0
003F000003F0
003F000003F0
003F000003F0
003F000003F0
003F000003F0
003F000003F0
003F000003F0
003F000003F0
003F000003F0
003F000003F0
003F000003F0
003F000003F0
003F000003F0
003F000003F0
003F000003F0
003F000003F0
003F000003F0
003F000003F0
003F000003F0
003F000003F0
003F000003F0
003F000003F0
003F000003F0
003F000003F0
003F000003F0
ENDCHAR
STARTCHAR 0126
ENCODING 294
SWIDTH 732 0
DWIDTH 57 0
BBX 57 56 0 0
BITMAP
00FC0000001FC000
00FC0000001FC000
00FC0000001FC000
00FC0000001FC000
00FC0000001FC000
00FC0000001FC000
00FC0000001FC000
00FC0000001FC000
00FC0000001FC000
00FC0000001FC000
FFFFFFFFFFFFFF80
FFFFFFFFFFFFFF80
FFFFFFFFFFFFFF80
FFFFFFFFFFFFFF80
FFFFFFFFFFFFFF80
00FC0000001FC000
00FC0000001FC000
00FC0000001FC000
00FC0000001FC000
00FC0000001FC000
00FC0000001FC000
00FC0000001FC000
00FC0000001FC000
00FC0000001FC000
00FFFFFFFFFFC000
00FFFFFFFFFFC000
00FFFFFFFFFFC000
00FFFFFFFFFFC000
00FFFFFFFFFFC000
00FFFFFFFFFFC000
00FC0000001FC000
00FC0000001FC000
00FC0000001FC000
00FC0000001FC000
00FC0000001FC000
00FC0000001FC000
00FC0000001FC000
00FC0000001FC000
00FC0000001FC000
00FC0000001FC000
00FC0000001FC000
00FC0000001FC000
00FC0000001FC000
00FC0000001FC000
00FC0000001FC000
00FC0000001FC000
00FC0000001FC000
00FC0000001FC000
00FC0000001FC000
00FC0000001FC000
00FC0000001FC000
00FC0000001FC000
00FC0000001FC000
00FC0000001FC000
00FC0000001FC000
00FC0000001FC000
ENDCHAR
STARTCHAR 0127
ENCODING 295
SWIDTH 604 0
DWIDTH 47 0
BBX 40 59 1 0
BITMAP
03F0000000
03F0000000
03F0000000
03F0000000
03F0000000
03F0000000
03F0000000
FFFFFFF800
FFFFFFF800
FFFFFFF800
FFFFFFF800
FFFFFFF800
03F0000000
03F0000000
03F0000000
03F0000000
03F0000000
03F0000000
03F007FC00
03F03FFF80
03F0FFFFE0
03F1FFFFF0
03F3FFFFF8
03F7FE1FFC
03FFC003FE
03FF8001FE
03FE0000FE
03FE00007F
03FC00007F
03F800003F
03F800003F
03F800003F
03F800003F
03F000003F
03F000003F
03F000003F
03F000003F
03F000003F
03F000003F
03F000003F
03F000003F
03F000003F
03F000003F
03F000003F
03F000003F
03F000003F
03F000003F
03F000003F
03F000003F
03F000003F
03F000003F
03F000003F
03F000003F
03F000003F
03F000003F
03F000003F
03F000003F
03F000003F
03F000003F
ENDCHAR
STARTCHAR 0128
ENCODING 296
SWIDTH 270 0
DWIDTH 21 0
BBX 28 71 -3 0
BITMAP
03E000F0
0FF800F0
1FFE00F0
3FFF01E0
7FFFE7E0
7C3FFFE0
F80FFFC0
F007FF80
F001FF00
F0003C00
00000000
00000000
00000000
00000000
00000000
001F8000
001F8000
001F8000
001F8000
001F8000
001F8000
001F8000
001F8000
001F8000
001F8000
001F8000
001F8000
001F8000
001F8000
001F8000
001F8000
001F8000
001F8000
001F8000
001F8000
001F8000
001F8000
001F8000
001F8000
001F8000
001F8000
001F8000
001F8000
001F8000
001F8000
001F8000
001F8000
001F8000
001F8000
001F8000
001F8000
001F8000
001F8000
001F8000
001F8000
001F8000
001F8000
001F8000
001F8000
001F8000
001F8000
001F8000
001F8000
001F8000
001F8000
001F8000
001F8000
001F8000
001F8000
001F8000
001F8000
ENDCHAR
STARTCHAR 0129
ENCODING 297
SWIDTH 244 0
DWIDTH 19 0
BBX 29 57 -5 0
BITMAP
03E00078
0FFC0070
1FFE00F0
3FFF81F0
3FFFE3F0
7E3FFFE0
7C07FFC0
7803FFC0
7800FF80
F0003C00
00000000
00000000
00000000
00000000
00000000
000FC000
000FC000
000FC000
000FC000
000FC000
000FC000
000FC000
000FC000
000FC000
000FC000
000FC000
000FC000
000FC000
000FC000
000FC000
000FC000
000FC000
000FC000
000FC000
000FC000
000FC000
000FC000
000FC000
000FC000
000FC000
000FC000
000FC000
000FC000
000FC000
000FC000
000FC000
000FC000
000FC000
000FC000
000FC000
000FC000
000FC000
000FC000
000FC000
000FC000
000FC000
000FC000
ENDCHAR
STARTCHAR 012A
ENCODING 298
SWIDTH 270 0
DWIDTH 21 0
BBX 23 66 -1 0
BITMAP
FFFFFE
FFFFFE
FFFFFE
FFFFFE
FFFFFE
000000
000000
000000
000000
000000
007E00
007E00
007E00
007E00
007E00
007E00
007E00
007E00
007E00
007E00
007E00
007E00
007E00
007E00
007E00
007E00
007E00
007E00
007E00
007E00
007E00
007E00
007E00
007E00
007E00
007E00
007E00
007E00
007E00
007E00
007E00
007E00
007E00
007E00
007E00
007E00
007E00
007E00
007E00
007E00
007E00
007E00
007E00
007E00
007E00
007E00
007E00
007E00
007E00
007E00
007E00
007E00
007E00
007E00
007E00
007E00
ENDCHAR
STARTCHAR 012B
ENCODING 299
SWIDTH 244 0
DWIDTH 19 0
BBX 23 52 -2 0
BITMAP
FFFFFE
FFFFFE
FFFFFE
FFFFFE
FFFFFE
000000
000000
000000
000000
000000
007E00
007E00
007E00
007E00
007E00
007E00
007E00
007E00
007E00
007E00
007E00
007E00
007E00
007E00
007E00
007E00
007E00
007E00
007E00
007E00
007E00
007E00
007E00
007E00
007E00
007E00
007E00
007E00
007E00
007E00
007E00
007E00
007E00
007E00
007E00
007E00
007E00
007E00
007E00
007E00
007E00
007E00
ENDCHAR
STARTCHAR 012C
ENCODING 300
SWIDTH 270 0
DWIDTH 21 0
BBX 24 71 -1 0
BITMAP
F0001F
F0001E
F8001E
7C007E
7F83FC
3FFFFC
1FFFF8
0FFFF0
07FFC0
00FE00
000000
000000
000000
000000
000000
007E00
007E00
007E00
007E00
007E00
007E00
007E00
007E00
007E00
007E00
007E00
007E00
007E00
007E00
007E00
007E00
007E00
007E00
007E00
007E00
007E00
007E00
007E00
007E00
007E00
007E00
007E00
007E00
007E00
007E00
007E00
007E00
007E00
007E00
007E00
007E00
007E00
007E00
007E00
007E00
007E00
007E00
007E00
007E00
007E00
007E00
007E00
007E00
007E00
007E00
007E00
007E00
007E00
007E00
007E00
007E00
ENDCHAR
STARTCHAR 012D
ENCODING 301
SWIDTH 244 0
DWIDTH 19 0
BBX 24 57 -2 0
BITMAP
F0000F
78001F
78001E
7C003E
3FC3FC
3FFFFC
1FFFF8
0FFFF0
07FFC0
00FE00
000000
000000
000000
000000
000000
007E00
007E00
007E00
007E00
007E00
007E00
007E00
007E00
007E00
007E00
007E00
007E00
007E00
007E00
007E00
007E00
007E00
007E00
007E00
007E00
007E00
007E00
007E00
007E00
007E00
007E00
007E00
007E00
007E00
007E00
007E00
007E00
007E00
007E00
007E00
007E00
007E00
007E00
007E00
007E00
007E00
007E00
ENDCHAR
STARTCHAR 012E
ENCODING 302
SWIDTH 270 0
DWIDTH 21 0
BBX 13 73 3 -17
BITMAP
07E0
07E0
07E0
07E0
07E0
07E0
07E0
07E0
07E0
07E0
07E0
07E0
07E0
07E0
07E0
07E0
07E0
07E0
07E0
07E0
07E0
07E0
07E0
07E0
07E0
07E0
07E0
07E0
07E0
07E0
07E0
07E0
07E0
07E0
07E0
07E0
07E0
07E0
07E0
07E0
07E0
07E0
07E0
07E0
07E0
07E0
07E0
07E0
07E0
07E0
07E0
07E0
07E0
07E0
07E0
07E0
03E0
0F80
0F80
1F00
3E00
7C00
7C00
7C00
FC00
FC00
FC00
FC00
7F08
7FF8
3FF8
1FF8
0FF8
ENDCHAR
STARTCHAR 012F
ENCODING 303
SWIDTH 244 0
DWIDTH 19 0
BBX 12 74 2 -17
BITMAP
03C0
07E0
0FF0
0FF0
0FF0
0FE0
07E0
03C0
0000
0000
0000
0000
0000
0000
0000
07E0
07E0
07E0
07E0
07E0
07E0
07E0
07E0
07E0
07E0
07E0
07E0
07E0
07E0
07E0
07E0
07E0
07E0
07E0
07E0
07E0
07E0
07E0
07E0
07E0
07E0
07E0
07E0
07E0
07E0
07E0
07E0
07E0
07E0
07E0
07E0
07E0
07E0
07E0
07E0
07E0
07E0
07C0
0F80
1F00
3E00
3E00
7C00
7800
F800
F800
F800
F800
FC00
FE10
7FF0
7FF0
3FF0
0FF0
ENDCHAR
STARTCHAR 0130
ENCODING 304
SWIDTH 270 0
DWIDTH 21 0
BBX 8 71 7 0
BITMAP
3C
7E
FF
FF
FF
FF
7E
3C
00
00
00
00
00
00
00
7E
7E
7E
7E
7E
7E
7E
7E
7E
7E
7E
7E
7E
7E
7E
7E
7E
7E
7E
7E
7E
7E
7E
7E
7E
7E
7E
7E
7E
7E
7E
7E
7E
7E
7E
7E
7E
7E
7E
7E
7E
7E
7E
7E
7E
7E
7E
7E
7E
7E
7E
7E
7E
7E
7E
7E
ENDCHAR
STARTCHAR 0131
ENCODING 305
SWIDTH 244 0
DWIDTH 19 0
BBX 6 42 7 0
BITMAP
FC
FC
FC
FC
FC
FC
FC
FC
FC
FC
FC
FC
FC
FC
FC
FC
FC
FC
FC
FC
FC
FC
FC
FC
FC
FC
FC
FC
FC
FC
FC
FC
FC
FC
FC
FC
FC
FC
FC
FC
FC
FC
ENDCHAR
STARTCHAR 0132
ENCODING 306
SWIDTH 540 0
DWIDTH 42 0
BBX 27 71 8 -15
BITMAP
FC0007E0
FC0007E0
FC0007E0
FC0007E0
FC0007E0
FC0007E0
FC0007E0
FC0007E0
FC0007E0
FC0007E0
FC0007E0
FC0007E0
FC0007E0
FC0007E0
FC0007E0
FC0007E0
FC0007E0
FC0007E0
FC0007E0
FC0007E0
FC0007E0
FC0007E0
FC0007E0
FC0007E0
FC0007E0
FC0007E0
FC0007E0
FC0007E0
FC0007E0
FC0007E0
FC0007E0
FC0007E0
FC0007E0
FC0007E0
FC0007E0
FC0007E0
FC0007E0
FC0007E0
FC0007E0
FC0007E0
FC0007E0
FC0007E0
FC0007E0
FC0007E0
FC0007E0
FC0007E0
FC0007E0
FC0007E0
FC0007E0
FC0007E0
FC0007E0
FC0007E0
FC0007E0
FC0007E0
FC0007E0
FC0007E0
000007E0
000007E0
000007E0
000007E0
00000FE0
00000FE0
00001FC0
00003FC0
0180FF80
01FFFF80
01FFFF00
01FFFE00
01FFFC00
01FFF000
000E0000
ENDCHAR
STARTCHAR 0133
ENCODING 307
SWIDTH 501 0
DWIDTH 39 0
BBX 27 76 6 -19
BITMAP
3C0007C0
7E000FE0
FF000FE0
FF000FE0
FF000FE0
FE000FE0
7E000FE0
3C0007C0
00000000
00000000
00000000
00000000
00000000
00000000
00000000
7E000FE0
7E000FE0
7E000FE0
7E000FE0
7E000FE0
7E000FE0
7E000FE0
7E000FE0
7E000FE0
7E000FE0
7E000FE0
7E000FE0
7E000FE0
7E000FE0
7E000FE0
7E000FE0
7E000FE0
7E000FE0
7E000FE0
7E000FE0
7E000FE0
7E000FE0
7E000FE0
7E000FE0
7E000FE0
7E000FE0
7E000FE0
7E000FE0
7E000FE0
7E000FE0
7E000FE0
7E000FE0
7E000FE0
7E000FE0
7E000FE0
7E000FE0
7E000FE0
7E000FE0
7E000FE0
7E000FE0
7E000FE0
7E000FE0
00000FE0
00000FE0
00000FE0
00000FE0
00000FE0
00000FE0
00000FE0
00000FE0
00000FE0
00000FC0
00000FC0
00001FC0
00003FC0
007FFF80
007FFF80
007FFF00
007FFE00
007FF800
00078000
ENDCHAR
STARTCHAR 0134
ENCODING 308
SWIDTH 257 0
DWIDTH 20 0
BBX 29 88 -6 -15
BITMAP
0007F000
000FF800
001FFC00
001FFE00
003FFE00
007F7F00
00FE3F80
01FC1FC0
03F807E0
07E003F0
0FC001F8
0F8000F8
00000000
00000000
00000000
00000000
00000000
0007F000
0007F000
0007F000
0007F000
0007F000
0007F000
0007F000
0007F000
0007F000
0007F000
0007F000
0007F000
0007F000
0007F000
0007F000
0007F000
0007F000
0007F000
0007F000
0007F000
0007F000
0007F000
0007F000
0007F000
0007F000
0007F000
0007F000
0007F000
0007F000
0007F000
0007F000
0007F000
0007F000
0007F000
0007F000
0007F000
0007F000
0007F000
0007F000
0007F000
0007F000
0007F000
0007F000
0007F000
0007F000
0007F000
0007F000
0007F000
0007F000
0007F000
0007F000
0007F000
0007F000
0007F000
0007F000
0007F000
0007F000
0007F000
0007F000
0007E000
000FE000
000FE000
001FE000
003FC000
80FFC000
FFFF8000
FFFF0000
FFFE0000
FFFC0000
FFF00000
0E000000
ENDCHAR
STARTCHAR 0135
ENCODING 309
SWIDTH 244 0
DWIDTH 19 0
BBX 27 79 -4 -19
BITMAP
001F8000
003FC000
007FC000
007FE000
00FFF000
01FFF800
03F9FC00
07F0FC00
0FE07E00
1FC03F00
1F801F80
3E000FC0
7C0003E0
00000000
00000000
00000000
00000000
00000000
001F8000
001F8000
001F8000
001F8000
001F8000
001F8000
001F8000
001F8000
001F8000
001F8000
001F8000
001F8000
001F8000
001F8000
001F8000
001F8000
001F8000
001F8000
001F8000
001F8000
001F8000
001F8000
001F8000
001F8000
001F8000
001F8000
001F8000
001F8000
001F8000
001F8000
001F8000
001F8000
001F8000
001F8000
001F8000
001F8000
001F8000
001F8000
001F8000
001F8000
001F8000
001F8000
001F8000
001F8000
001F8000
001F8000
001F8000
001F8000
001F8000
001F8000
001F8000
003F8000
003F8000
007F0000
00FF0000
FFFF0000
FFFE0000
FFFC0000
FFF80000
FFF00000
1E000000
ENDCHAR
STARTCHAR 0136
ENCODING 310
SWIDTH 604 0
DWIDTH 47 0
BBX 39 73 8 -17
BITMAP
FC000001FE
FC000003FC
FC000007F8
FC00000FF0
FC00000FE0
FC00001FC0
FC00003F80
FC00007F00
FC0000FE00
FC0001FE00
FC0003FC00
FC0007F800
FC000FF000
FC001FE000
FC003FC000
FC003F8000
FC007F0000
FC00FE0000
FC01FC0000
FC03F80000
FC07F00000
FC0FE00000
FC1FE00000
FC3FC00000
FC7F800000
FCFF800000
FCFFC00000
FDFFE00000
FFFFF00000
FFEFF00000
FFC7F80000
FF83FC0000
FF01FE0000
FE01FE0000
FC00FF0000
FC007F8000
FC003F8000
FC003FC000
FC001FE000
FC000FF000
FC000FF000
FC0007F800
FC0003FC00
FC0001FE00
FC0001FE00
FC0000FF00
FC00007F80
FC00003F80
FC00003FC0
FC00001FE0
FC00000FF0
FC000007F0
FC000007F8
FC000003FC
FC000001FE
FC000000FE
0000000000
0000000000
0000000000
0000000000
0000000000
0000FC0000
0000FC0000
0001F80000
0001F80000
0001F80000
0001F00000
0003F00000
0003E00000
0003E00000
0007C00000
0007800000
0007800000
ENDCHAR
STARTCHAR 0137
ENCODING 311
SWIDTH 514 0
DWIDTH 40 0
BBX 33 76 7 -17
BITMAP
FC00000000
FC00000000
FC00000000
FC00000000
FC00000000
FC00000000
FC00000000
FC00000000
FC00000000
FC00000000
FC00000000
FC00000000
FC00000000
FC00000000
FC00000000
FC00000000
FC00000000
FC00007F00
FC0000FE00
FC0001FC00
FC0003F800
FC0007F000
FC000FE000
FC001FC000
FC003F8000
FC007F0000
FC00FE0000
FC01FE0000
FC03FC0000
FC07F80000
FC0FF00000
FC1FE00000
FC3FC00000
FC3F800000
FC7F000000
FCFF000000
FDFF000000
FFFF800000
FFFFC00000
FFFFE00000
FFCFE00000
FF87F00000
FE07F80000
FC03FC0000
FC01FC0000
FC00FE0000
FC00FF0000
FC007F8000
FC003F8000
FC001FC000
FC001FE000
FC000FF000
FC0007F000
FC0003F800
FC0003FC00
FC0001FE00
FC0000FE00
FC00007F00
FC00007F80
0000000000
0000000000
0000000000
0000000000
0000000000
000FC00000
000FC00000
001FC00000
001F800000
001F800000
001F000000
003F000000
003E000000
003E000000
007C000000
0078000000
0078000000
ENDCHAR
STARTCHAR 0138
ENCODING 312
SWIDTH 514 0
DWIDTH 40 0
BBX 33 42 7 0
BITMAP
FC0000FF00
FC0001FE00
FC0003FC00
FC0003F800
FC0007F000
FC000FF000
FC001FE000
FC003FC000
FC007F8000
FC007F0000
FC00FE0000
FC01FC0000
FC03FC0000
FC07F80000
FC0FF00000
FC1FE00000
FC1FC00000
FC3F800000
FC7F000000
FCFF800000
FDFF800000
FDFFC00000
FFFFE00000
FFEFF00000
FFC7F00000
FF83F80000
FF03FC0000
FC01FE0000
FC00FE0000
FC007F0000
FC007F8000
FC003FC000
FC001FC000
FC000FE000
FC000FF000
FC0007F800
FC0003F800
FC0003FC00
FC0001FE00
FC0000FE00
FC00007F00
FC00007F80
ENDCHAR
STARTCHAR 0139
ENCODING 313
SWIDTH 514 0
DWIDTH 40 0
BBX 33 74 6 0
BITMAP
00FF000000
00FF000000
01FE000000
03FC000000
03F8000000
07F0000000
0FE0000000
0FC0000000
1F80000000
3F00000000
3E00000000
7C00000000
F800000000
0000000000
0000000000
0000000000
0000000000
0000000000
3F00000000
3F00000000
3F00000000
3F00000000
3F00000000
3F00000000
3F00000000
3F00000000
3F00000000
3F00000000
3F00000000
3F00000000
3F00000000
3F00000000
3F00000000
3F00000000
3F00000000
3F00000000
3F00000000
3F00000000
3F00000000
3F00000000
3F00000000
3F00000000
3F00000000
3F00000000
3F00000000
3F00000000
3F00000000
3F00000000
3F00000000
3F00000000
3F00000000
3F00000000
3F00000000
3F00000000
3F00000000
3F00000000
3F00000000
3F00000000
3F00000000
3F00000000
3F00000000
3F00000000
3F00000000
3F00000000
3F00000000
3F00000000
3F00000000
3F00000000
3FFFFFFF80
3FFFFFFF80
3FFFFFFF80
3FFFFFFF80
3FFFFFFF80
3FFFFFFF80
ENDCHAR
STARTCHAR 013A
ENCODING 314
SWIDTH 244 0
DWIDTH 19 0
BBX 16 77 5 0
BITMAP
00FF
01FE
01FC
03FC
07F8
07F0
0FE0
1FC0
1F80
3F00
7E00
FC00
0000
0000
0000
0000
0000
0000
3F00
3F00
3F00
3F00
3F00
3F00
3F00
3F00
3F00
3F00
3F00
3F00
3F00
3F00
3F00
3F00
3F00
3F00
3F00
3F00
3F00
3F00
3F00
3F00
3F00
3F00
3F00
3F00
3F00
3F00
3F00
3F00
3F00
3F00
3F00
3F00
3F00
3F00
3F00
3F00
3F00
3F00
3F00
3F00
3F00
3F00
3F00
3F00
3F00
3F00
3F00
3F00
3F00
3F00
3F00
3F00
3F00
3F00
3F00
ENDCHAR
STARTCHAR 013B
ENCODING 315
SWIDTH 514 0
DWIDTH 40 0
BBX 31 73 8 -17
BITMAP
FC000000
FC000000
FC000000
FC000000
FC000000
FC000000
FC000000
FC000000
FC000000
FC000000
FC000000
FC000000
FC000000
FC000000
FC000000
FC000000
FC000000
FC000000
FC000000
FC000000
FC000000
FC000000
FC000000
FC000000
FC000000
FC000000
FC000000
FC000000
FC000000
FC000000
FC000000
FC000000
FC000000
FC000000
FC000000
FC000000
FC000000
FC000000
FC000000
FC000000
FC000000
FC000000
FC000000
FC000000
FC000000
FC000000
FC000000
FC000000
FC000000
FC000000
FFFFFFFE
FFFFFFFE
FFFFFFFE
FFFFFFFE
FFFFFFFE
FFFFFFFE
00000000
00000000
00000000
00000000
00000000
0007F000
0007F000
0007E000
0007E000
0007C000
000FC000
000F8000
000F8000
001F0000
001F0000
001E0000
003C0000
ENDCHAR
STARTCHAR 013C
ENCODING 316
SWIDTH 244 0
DWIDTH 19 0
BBX 9 76 5 -17
BITMAP
3F00
3F00
3F00
3F00
3F00
3F00
3F00
3F00
3F00
3F00
3F00
3F00
3F00
3F00
3F00
3F00
3F00
3F00
3F00
3F00
3F00
3F00
3F00
3F00
3F00
3F00
3F00
3F00
3F00
3F00
3F00
3F00
3F00
3F00
3F00
3F00
3F00
3F00
3F00
3F00
3F00
3F00
3F00
3F00
3F00
3F00
3F00
3F00
3F00
3F00
3F00
3F00
3F00
3F00
3F00
3F00
3F00
3F00
3F00
0000
0000
0000
0000
0000
1F80
1F80
1F80
3F00
3F00
3F00
3E00
7C00
7C00
7800
F800
F000
ENDCHAR
STARTCHAR 013D
ENCODING 317
SWIDTH 514 0
DWIDTH 40 0
BBX 31 56 8 0
BITMAP
FC0000FE
FC0000FC
FC0000FC
FC0000FC
FC0000F8
FC0001F8
FC0001F8
FC0001F0
FC0001F0
FC0003E0
FC0003E0
FC0003C0
FC000380
FC000000
FC000000
FC000000
FC000000
FC000000
FC000000
FC000000
FC000000
FC000000
FC000000
FC000000
FC000000
FC000000
FC000000
FC000000
FC000000
FC000000
FC000000
FC000000
FC000000
FC000000
FC000000
FC000000
FC000000
FC000000
FC000000
FC000000
FC000000
FC000000
FC000000
FC000000
FC000000
FC000000
FC000000
FC000000
FC000000
FC000000
FFFFFFFE
FFFFFFFE
FFFFFFFE
FFFFFFFE
FFFFFFFE
FFFFFFFE
ENDCHAR
STARTCHAR 013E
ENCODING 318
SWIDTH 244 0
DWIDTH 19 0
BBX 18 59 7 0
BITMAP
FC0FC0
FC0FC0
FC0FC0
FC1F80
FC1F80
FC1F00
FC1F00
FC3F00
FC3E00
FC3C00
FC3C00
FC7800
FC0000
FC0000
FC0000
FC0000
FC0000
FC0000
FC0000
FC0000
FC0000
FC0000
FC0000
FC0000
FC0000
FC0000
FC0000
FC0000
FC0000
FC0000
FC0000
FC0000
FC0000
FC0000
FC0000
FC0000
FC0000
FC0000
FC0000
FC0000
FC0000
FC0000
FC0000
FC0000
FC0000
FC0000
FC0000
FC0000
FC0000
FC0000
FC0000
FC0000
FC0000
FC0000
FC0000
FC0000
FC0000
FC0000
FC0000
ENDCHAR
STARTCHAR 013F
ENCODING 319
SWIDTH 514 0
DWIDTH 40 0
BBX 31 56 8 0
BITMAP
FC000000
FC000000
FC000000
FC000000
FC000000
FC000000
FC000000
FC000000
FC000000
FC000000
FC000000
FC000000
FC000000
FC000000
FC000000
FC000000
FC000000
FC000000
FC000000
FC000000
FC000000
FC000000
FC000000
FC000000
FC001F00
FC003F80
FC003F80
FC003F80
FC003F80
FC003F80
FC003F80
FC001F00
FC000000
FC000000
FC000000
FC000000
FC000000
FC000000
FC000000
FC000000
FC000000
FC000000
FC000000
FC000000
FC000000
FC000000
FC000000
FC000000
FC000000
FC000000
FFFFFFFE
FFFFFFFE
FFFFFFFE
FFFFFFFE
FFFFFFFE
FFFFFFFE
ENDCHAR
STARTCHAR 0140
ENCODING 320
SWIDTH 257 0
DWIDTH 20 0
BBX 17 59 7 0
BITMAP
FC0000
FC0000
FC0000
FC0000
FC0000
FC0000
FC0000
FC0000
FC0000
FC0000
FC0000
FC0000
FC0000
FC0000
FC0000
FC0000
FC0000
FC0000
FC0000
FC0000
FC0000
FC0000
FC0000
FC0000
FC0000
FC0C00
FC3F00
FC7F00
FC7F80
FC7F80
FC7F80
FC3F00
FC3F00
FC0400
FC0000
FC0000
FC0000
FC0000
FC0000
FC0000
FC0000
FC0000
FC0000
FC0000
FC0000
FC0000
FC0000
FC0000
FC0000
FC0000
FC0000
FC0000
FC0000
FC0000
FC0000
FC0000
FC0000
FC0000
FC0000
ENDCHAR
STARTCHAR 0141
ENCODING 321
SWIDTH 514 0
DWIDTH 40 0
BBX 38 56 1 0
BITMAP
01F8000000
01F8000000
01F8000000
01F8000000
01F8000000
01F8000000
01F8000000
01F8000000
01F8000000
01F8000000
01F8000000
01F8000000
01F8000000
01F8000000
01F8000000
01F8000000
01F8000000
01F8000000
01F8000000
01F8000000
01F8010000
01F8038000
01F80F8000
01F83FC000
01F87FC000
01F9FF8000
01FFFF0000
01FFFC0000
01FFF00000
01FFE00000
01FF800000
07FE000000
1FF8000000
3FF8000000
FFF8000000
7FF8000000
7FF8000000
39F8000000
21F8000000
01F8000000
01F8000000
01F8000000
01F8000000
01F8000000
01F8000000
01F8000000
01F8000000
01F8000000
01F8000000
01F8000000
01FFFFFFFC
01FFFFFFFC
01FFFFFFFC
01FFFFFFFC
01FFFFFFFC
01FFFFFFFC
ENDCHAR
STARTCHAR 0142
ENCODING 322
SWIDTH 244 0
DWIDTH 19 0
BBX 20 59 0 0
BITMAP
03F800
03F800
03F800
03F800
03F800
03F800
03F800
03F800
03F800
03F800
03F800
03F800
03F800
03F800
03F800
03F800
03F800
03F800
03F800
03F800
03F800
03F800
03F800
03F840
03F9E0
03FBE0
03FFF0
03FFF0
03FFC0
03FF80
03FE00
0FFC00
1FF800
7FF800
FFF800
FFF800
7FF800
73F800
23F800
03F800
03F800
03F800
03F800
03F800
03F800
03F800
03F800
03F800
03F800
03F800
03F800
03F800
03F800
03F800
03F800
03F800
03F800
03F800
03F800
ENDCHAR
STARTCHAR 0143
ENCODING 323
SWIDTH 745 0
DWIDTH 58 0
BBX 43 74 8 0
BITMAP
0000007F0000
000000FF0000
000000FE0000
000001FE0000
000003FC0000
000003F80000
000007F00000
00000FE00000
00000FC00000
00001F800000
00003F000000
00007E000000
00007C000000
000000000000
000000000000
000000000000
000000000000
000000000000
FE00000007E0
FF00000007E0
FF00000007E0
FF80000007E0
FFC0000007E0
FFC0000007E0
FFE0000007E0
FFF0000007E0
FFF0000007E0
FFF8000007E0
FBFC000007E0
F9FC000007E0
F9FE000007E0
F8FE000007E0
F87F000007E0
F87F800007E0
F83F800007E0
F81FC00007E0
F81FE00007E0
FC0FE00007E0
FC07F00007E0
FC07F80007E0
FC03F80007E0
FC03FC0007E0
FC01FE0007E0
FC00FE0007E0
FC00FF0007E0
FC007F8007E0
FC003F8007E0
FC003FC007E0
FC001FC007E0
FC000FE007E0
FC000FF007E0
FC0007F007E0
FC0003F807E0
FC0003FC07E0
FC0001FC07E0
FC0000FE07E0
FC0000FF07E0
FC00007F07E0
FC00007F87E0
FC00003FC7E0
FC00001FC7E0
FC00001FE7E0
FC00000FF7E0
FC000007F7E0
FC000007FFE0
FC000003FFE0
FC000001FFE0
FC000001FFE0
FC000000FFE0
FC0000007FE0
FC0000007FE0
FC0000003FE0
FC0000001FE0
FC0000001FE0
ENDCHAR
STARTCHAR 0144
ENCODING 324
SWIDTH 604 0
DWIDTH 47 0
BBX 34 60 7 0
BITMAP
00000FF000
00000FF000
00001FE000
00001FC000
00003F8000
00007F0000
00007E0000
0000FE0000
0001FC0000
0003F80000
0003F00000
0007C00000
0007800000
0000000000
0000000000
0000000000
0000000000
0000000000
F803FFC000
F81FFFF000
F83FFFFC00
F8FFFFFE00
F9FFFFFF00
FDFC03FF00
FFE0007F80
FFC0003F80
FF80003FC0
FF00001FC0
FF00001FC0
FE00000FC0
FE00000FC0
FE00000FC0
FC00000FC0
FC00000FC0
FC00000FC0
FC00000FC0
FC00000FC0
FC00000FC0
FC00000FC0
FC00000FC0
FC00000FC0
FC00000FC0
FC00000FC0
FC00000FC0
FC00000FC0
FC00000FC0
FC00000FC0
FC00000FC0
FC00000FC0
FC00000FC0
FC00000FC0
FC00000FC0
FC00000FC0
FC00000FC0
FC00000FC0
FC00000FC0
FC00000FC0
FC00000FC0
FC00000FC0
FC00000FC0
ENDCHAR
STARTCHAR 0145
ENCODING 325
SWIDTH 745 0
DWIDTH 58 0
BBX 43 73 8 -17
BITMAP
FE00000007E0
FF00000007E0
FF00000007E0
FF80000007E0
FFC0000007E0
FFC0000007E0
FFE0000007E0
FFF0000007E0
FFF0000007E0
FFF8000007E0
FBFC000007E0
F9FC000007E0
F9FE000007E0
F8FE000007E0
F87F000007E0
F87F800007E0
F83F800007E0
F81FC00007E0
F81FE00007E0
FC0FE00007E0
FC07F00007E0
FC07F80007E0
FC03F80007E0
FC03FC0007E0
FC01FE0007E0
FC00FE0007E0
FC00FF0007E0
FC007F8007E0
FC003F8007E0
FC003FC007E0
FC001FC007E0
FC000FE007E0
FC000FF007E0
FC0007F007E0
FC0003F807E0
FC0003FC07E0
FC0001FC07E0
FC0000FE07E0
FC0000FF07E0
FC00007F07E0
FC00007F87E0
FC00003FC7E0
FC00001FC7E0
FC00001FE7E0
FC00000FF7E0
FC000007F7E0
FC000007FFE0
FC000003FFE0
FC000001FFE0
FC000001FFE0
FC000000FFE0
FC0000007FE0
FC0000007FE0
FC0000003FE0
FC0000001FE0
FC0000001FE0
000000000000
000000000000
000000000000
000000000000
000000000000
00000FC00000
00001FC00000
00001F800000
00001F800000
00001F000000
00003F000000
00003E000000
00003E000000
00007C000000
00007C000000
000078000000
0000F0000000
ENDCHAR
STARTCHAR 0146
ENCODING 326
SWIDTH 604 0
DWIDTH 47 0
BBX 34 59 7 -17
BITMAP
F803FFC000
F81FFFF000
F83FFFFC00
F8FFFFFE00
F9FFFFFF00
FDFC03FF00
FFE0007F80
FFC0003F80
FF80003FC0
FF00001FC0
FF00001FC0
FE00000FC0
FE00000FC0
FE00000FC0
FC00000FC0
FC00000FC0
FC00000FC0
FC00000FC0
FC00000FC0
FC00000FC0
FC00000FC0
FC00000FC0
FC00000FC0
FC00000FC0
FC00000FC0
FC00000FC0
FC00000FC0
FC00000FC0
FC00000FC0
FC00000FC0
FC00000FC0
FC00000FC0
FC00000FC0
FC00000FC0
FC00000FC0
FC00000FC0
FC00000FC0
FC00000FC0
FC00000FC0
FC00000FC0
FC00000FC0
FC00000FC0
0000000000
0000000000
0000000000
0000000000
0000000000
0001FC0000
0001F80000
0001F80000
0001F00000
0003F00000
0003F00000
0003E00000
0007E00000
0007C00000
0007800000
000F800000
000F000000
ENDCHAR
STARTCHAR 0147
ENCODING 327
SWIDTH 745 0
DWIDTH 58 0
BBX 43 73 8 0
BITMAP
007C000FC000
007E001F8000
003F803F0000
001FC07E0000
000FE0FC0000
0007F1F80000
0003FBF00000
0001FFF00000
0000FFE00000
0000FFC00000
00007F800000
00003F800000
000000000000
000000000000
000000000000
000000000000
000000000000
FE00000007E0
FF00000007E0
FF00000007E0
FF80000007E0
FFC0000007E0
FFC0000007E0
FFE0000007E0
FFF0000007E0
FFF0000007E0
FFF8000007E0
FBFC000007E0
F9FC000007E0
F9FE000007E0
F8FE000007E0
F87F000007E0
F87F800007E0
F83F800007E0
F81FC00007E0
F81FE00007E0
FC0FE00007E0
FC07F00007E0
FC07F80007E0
FC03F80007E0
FC03FC0007E0
FC01FE0007E0
FC00FE0007E0
FC00FF0007E0
FC007F8007E0
FC003F8007E0
FC003FC007E0
FC001FC007E0
FC000FE007E0
FC000FF007E0
FC0007F007E0
FC0003F807E0
FC0003FC07E0
FC0001FC07E0
FC0000FE07E0
FC0000FF07E0
FC00007F07E0
FC00007F87E0
FC00003FC7E0
FC00001FC7E0
FC00001FE7E0
FC00000FF7E0
FC000007F7E0
FC000007FFE0
FC000003FFE0
FC000001FFE0
FC000001FFE0
FC000000FFE0
FC0000007FE0
FC0000007FE0
FC0000003FE0
FC0000001FE0
FC0000001FE0
ENDCHAR
STARTCHAR 0148
ENCODING 328
SWIDTH 604 0
DWIDTH 47 0
BBX 34 60 7 0
BITMAP
0F80007C00
0FC000FC00
07E001F800
03F007F000
01FC0FE000
00FE1FC000
007F3F8000
003F7F0000
001FFE0000
001FFC0000
000FFC0000
0007F80000
0007F00000
0000000000
0000000000
0000000000
0000000000
0000000000
F803FFC000
F81FFFF000
F83FFFFC00
F8FFFFFE00
F9FFFFFF00
FDFC03FF00
FFE0007F80
FFC0003F80
FF80003FC0
FF00001FC0
FF00001FC0
FE00000FC0
FE00000FC0
FE00000FC0
FC00000FC0
FC00000FC0
FC00000FC0
FC00000FC0
FC00000FC0
FC00000FC0
FC00000FC0
FC00000FC0
FC00000FC0
FC00000FC0
FC00000FC0
FC00000FC0
FC00000FC0
FC00000FC0
FC00000FC0
FC00000FC0
FC00000FC0
FC00000FC0
FC00000FC0
FC00000FC0
FC00000FC0
FC00000FC0
FC00000FC0
FC00000FC0
FC00000FC0
FC00000FC0
FC00000FC0
FC00000FC0
ENDCHAR
STARTCHAR 0149
ENCODING 329
SWIDTH 668 0
DWIDTH 52 0
BBX 46 56 0 0
BITMAP
0FE000000000
0FE000000000
0FE000000000
0FE000000000
1FC000000000
1FC000000000
1FC000000000
1F8000000000
1F8000000000
3F8000000000
3F0000000000
3F0000000000
3F0000000000
3E0000000000
7E0F803FFC00
7C0F81FFFF00
7C0F83FFFFC0
7C0F8FFFFFE0
F80F9FFFFFF0
F80F9FC03FF0
000FFE000FF8
000FFC0003F8
000FF80003F8
000FF00001FC
000FF00001FC
000FE00000FC
000FE00000FC
000FE00000FC
000FC00000FC
000FC00000FC
000FC00000FC
000FC00000FC
000FC00000FC
000FC00000FC
000FC00000FC
000FC00000FC
000FC00000FC
000FC00000FC
000FC00000FC
000FC00000FC
000FC00000FC
000FC00000FC
000FC00000FC
000FC00000FC
000FC00000FC
000FC00000FC
000FC00000FC
000FC00000FC
000FC00000FC
000FC00000FC
000FC00000FC
000FC00000FC
000FC00000FC
000FC00000FC
000FC00000FC
000FC00000FC
ENDCHAR
STARTCHAR 014A
ENCODING 330
SWIDTH 745 0
DWIDTH 58 0
BBX 43 71 8 -15
BITMAP
FE00000007E0
FF00000007E0
FF00000007E0
FF80000007E0
FFC0000007E0
FFC0000007E0
FFE0000007E0
FFF0000007E0
FFF0000007E0
FFF8000007E0
FBFC000007E0
F9FC000007E0
F9FE000007E0
F8FF000007E0
F87F000007E0
F87F800007E0
F83FC00007E0
F81FC00007E0
F81FE00007E0
FC0FF00007E0
FC07F00007E0
FC03F80007E0
FC03FC0007E0
FC01FC0007E0
FC00FE0007E0
FC00FF0007E0
FC007F0007E0
FC003F8007E0
FC003FC007E0
FC001FC007E0
FC000FE007E0
FC000FF007E0
FC0007F007E0
FC0003F807E0
FC0003FC07E0
FC0001FC07E0
FC0000FE07E0
FC0000FF07E0
FC00007F07E0
FC00003F87E0
FC00003FC7E0
FC00001FC7E0
FC00000FE7E0
FC00000FF7E0
FC000007F7E0
FC000003FFE0
FC000001FFE0
FC000001FFE0
FC000000FFE0
FC0000007FE0
FC0000007FE0
FC0000003FE0
FC0000001FE0
FC0000001FE0
FC0000000FE0
FC00000007E0
0000000007E0
0000000007E0
0000000007E0
000000000FE0
000000000FE0
000000000FC0
000000001FC0
000000003FC0
00000100FF80
000001FFFF00
000001FFFF00
000001FFFE00
000001FFF800
000001FFE000
0000001C0000
ENDCHAR
STARTCHAR 014B
ENCODING 331
SWIDTH 604 0
DWIDTH 47 0
BBX 34 61 7 -19
BITMAP
F803FFC000
F81FFFF000
F83FFFFC00
F8FFFFFE00
F9FFFFFF00
FDFC03FF00
FFF0007F80
FFC0003F80
FF80001FC0
FF00001FC0
FF00001FC0
FE00000FC0
FE00000FC0
FE00000FC0
FC00000FC0
FC00000FC0
FC00000FC0
FC00000FC0
FC00000FC0
FC00000FC0
FC00000FC0
FC00000FC0
FC00000FC0
FC00000FC0
FC00000FC0
FC00000FC0
FC00000FC0
FC00000FC0
FC00000FC0
FC00000FC0
FC00000FC0
FC00000FC0
FC00000FC0
FC00000FC0
FC00000FC0
FC00000FC0
FC00000FC0
FC00000FC0
FC00000FC0
FC00000FC0
FC00000FC0
FC00000FC0
0000000FC0
0000000FC0
0000000FC0
0000000FC0
0000000FC0
0000000FC0
0000000FC0
0000000FC0
0000000FC0
0000000FC0
0000000FC0
0000001FC0
0000003F80
00003FFF80
00003FFF00
00003FFF00
00003FFE00
00003FF800
0000078000
ENDCHAR
STARTCHAR 014C
ENCODING 332
SWIDTH 771 0
DWIDTH 60 0
BBX 51 67 5 -1
BITMAP
0003FFFFF80000
0003FFFFF80000
0003FFFFF80000
0003FFFFF80000
0003FFFFF80000
00000000000000
00000000000000
00000000000000
00000000000000
00000000000000
00003FFF800000
0003FFFFF00000
000FFFFFFC0000
001FFFFFFF0000
007FFFFFFF8000
00FFFC0FFFC000
01FFC0007FE000
03FF00001FF000
07FC000007F800
07F8000003FC00
0FF0000001FC00
1FE0000000FE00
1FC0000000FF00
3FC00000007F00
3F800000007F00
3F800000003F80
7F000000003F80
7F000000003F80
7F000000001FC0
7E000000001FC0
FE000000001FC0
FE000000001FC0
FE000000000FC0
FE000000000FE0
FE000000000FE0
FE000000000FE0
FE000000000FE0
FE000000000FE0
FE000000000FE0
FE000000000FE0
FE000000000FE0
FE000000000FE0
FE000000000FE0
FE000000000FC0
FE000000001FC0
FE000000001FC0
FE000000001FC0
7F000000001FC0
7F000000001F80
7F000000003F80
3F800000003F80
3F800000007F80
3FC00000007F00
1FC0000000FF00
1FE0000000FE00
0FF0000001FE00
0FF0000003FC00
07FC000007F800
03FE00000FF800
01FF80003FF000
00FFF001FFE000
007FFFFFFFC000
003FFFFFFF0000
000FFFFFFE0000
0007FFFFF80000
0000FFFFC00000
000007F8000000
ENDCHAR
STARTCHAR 014D
ENCODING 333
SWIDTH 591 0
DWIDTH 46 0
BBX 39 53 4 -1
BITMAP
00FFFFFE00
00FFFFFE00
00FFFFFE00
00FFFFFE00
00FFFFFE00
0000000000
0000000000
0000000000
0000000000
0000000000
0007FFC000
003FFFF000
007FFFFC00
01FFFFFE00
03FFFFFF80
07FE00FFC0
0FF8003FC0
0FE0001FE0
1FC0000FF0
1FC00007F0
3F800003F8
3F800003F8
7F000001F8
7F000001FC
7F000001FC
7E000001FC
7E000000FC
FE000000FC
FE000000FC
FE000000FC
FE000000FE
FE000000FE
FE000000FE
FE000000FC
FE000000FC
7E000000FC
7E000000FC
7F000001FC
7F000001FC
7F000001F8
3F000003F8
3F800003F8
1F800007F0
1FC00007F0
0FE0000FE0
0FF0001FE0
07FC007FC0
03FFEFFF80
01FFFFFF00
00FFFFFE00
003FFFF800
000FFFE000
0000FC0000
ENDCHAR
STARTCHAR 014E
ENCODING 334
SWIDTH 771 0
DWIDTH 60 0
BBX 51 72 5 -1
BITMAP
0003C000780000
0003C000780000
0003E000F80000
0001F001F00000
0001FC0FF00000
0000FFFFE00000
0000FFFFC00000
00007FFF800000
00001FFF000000
000007F8000000
00000000000000
00000000000000
00000000000000
00000000000000
00000000000000
00003FFF800000
0003FFFFF00000
000FFFFFFC0000
001FFFFFFF0000
007FFFFFFF8000
00FFFC0FFFC000
01FFC0007FE000
03FF00001FF000
07FC000007F800
07F8000003FC00
0FF0000001FC00
1FE0000000FE00
1FC0000000FF00
3FC00000007F00
3F800000007F00
3F800000003F80
7F000000003F80
7F000000003F80
7F000000001FC0
7E000000001FC0
FE000000001FC0
FE000000001FC0
FE000000000FC0
FE000000000FE0
FE000000000FE0
FE000000000FE0
FE000000000FE0
FE000000000FE0
FE000000000FE0
FE000000000FE0
FE000000000FE0
FE000000000FE0
FE000000000FE0
FE000000000FC0
FE000000001FC0
FE000000001FC0
FE000000001FC0
7F000000001FC0
7F000000001F80
7F000000003F80
3F800000003F80
3F800000007F80
3FC00000007F00
1FC0000000FF00
1FE0000000FE00
0FF0000001FE00
0FF0000003FC00
07FC000007F800
03FE00000FF800
01FF80003FF000
00FFF001FFE000
007FFFFFFFC000
003FFFFFFF0000
000FFFFFFE0000
0007FFFFF80000
0000FFFFC00000
000007F8000000
ENDCHAR
STARTCHAR 014F
ENCODING 335
SWIDTH 591 0
DWIDTH 46 0
BBX 39 58 4 -1
BITMAP
00F0001E00
00F0001E00
00F8003E00
007C007E00
007F83FC00
003FFFF800
003FFFF800
001FFFE000
0007FFC000
0000FE0000
0000000000
0000000000
0000000000
0000000000
0000000000
0007FFC000
003FFFF000
007FFFFC00
01FFFFFE00
03FFFFFF80
07FE00FFC0
0FF8003FC0
0FE0001FE0
1FC0000FF0
1FC00007F0
3F800003F8
3F800003F8
7F000001F8
7F000001FC
7F000001FC
7E000001FC
7E000000FC
FE000000FC
FE000000FC
FE000000FC
FE000000FE
FE000000FE
FE000000FE
FE000000FC
FE000000FC
7E000000FC
7E000000FC
7F000001FC
7F000001FC
7F000001F8
3F000003F8
3F800003F8
1F800007F0
1FC00007F0
0FE0000FE0
0FF0001FE0
07FC007FC0
03FFEFFF80
01FFFFFF00
00FFFFFE00
003FFFF800
000FFFE000
0000FC0000
ENDCHAR
STARTCHAR 0150
ENCODING 336
SWIDTH 771 0
DWIDTH 60 0
BBX 51 75 5 -1
BITMAP
000001FC0FE000
000003FC0FE000
000003F81FC000
000007F01FC000
000007E03F8000
00000FE03F0000
00001FC07E0000
00001F80FC0000
00003F00F80000
00003E01F80000
00007C03F00000
0000F803E00000
0000F007C00000
00000000000000
00000000000000
00000000000000
00000000000000
00000000000000
00003FFF800000
0003FFFFF00000
000FFFFFFC0000
001FFFFFFF0000
007FFFFFFF8000
00FFFC0FFFC000
01FFC0007FE000
03FF00001FF000
07FC000007F800
07F8000003FC00
0FF0000001FC00
1FE0000000FE00
1FC0000000FF00
3FC00000007F00
3F800000007F00
3F800000003F80
7F000000003F80
7F000000003F80
7F000000001FC0
7E000000001FC0
FE000000001FC0
FE000000001FC0
FE000000000FC0
FE000000000FE0
FE000000000FE0
FE000000000FE0
FE000000000FE0
FE000000000FE0
FE000000000FE0
FE000000000FE0
FE000000000FE0
FE000000000FE0
FE000000000FE0
FE000000000FC0
FE000000001FC0
FE000000001FC0
FE000000001FC0
7F000000001FC0
7F000000001F80
7F000000003F80
3F800000003F80
3F800000007F80
3FC00000007F00
1FC0000000FF00
1FE0000000FE00
0FF0000001FE00
0FF0000003FC00
07FC000007F800
03FE00000FF800
01FF80003FF000
00FFF001FFE000
007FFFFFFFC000
003FFFFFFF0000
000FFFFFFE0000
0007FFFFF80000
0000FFFFC00000
000007F8000000
ENDCHAR
STARTCHAR 0151
ENCODING 337
SWIDTH 591 0
DWIDTH 46 0
BBX 39 61 4 -1
BITMAP
00007F03F8
0000FF03F8
0000FE07F0
0001FC07F0
0001F80FE0
0003F80FC0
0003F01F80
0007E03F00
000FC03F00
000F807E00
001F007C00
003E00F800
003C01F000
0000000000
0000000000
0000000000
0000000000
0000000000
0007FFC000
003FFFF000
007FFFFC00
01FFFFFE00
03FFFFFF80
07FE00FFC0
0FF8003FC0
0FE0001FE0
1FC0000FF0
1FC00007F0
3F800003F8
3F800003F8
7F000001F8
7F000001FC
7F000001FC
7E000001FC
7E000000FC
FE000000FC
FE000000FC
FE000000FC
FE000000FE
FE000000FE
FE000000FE
FE000000FC
FE000000FC
7E000000FC
7E000000FC
7F000001FC
7F000001FC
7F000001F8
3F000003F8
3F800003F8
1F800007F0
1FC00007F0
0FE0000FE0
0FF0001FE0
07FC007FC0
03FFEFFF80
01FFFFFF00
00FFFFFE00
003FFFF800
000FFFE000
0000FC0000
ENDCHAR
STARTCHAR 0152
ENCODING 338
SWIDTH 912 0
DWIDTH 71 0
BBX 62 57 5 -1
BITMAP
00003FFFFFFFFFFC
0003FFFFFFFFFFFC
000FFFFFFFFFFFFC
003FFFFFFFFFFFFC
007FFFFFFFFFFFFC
00FFFF1FFFFFFFFC
01FFC0007E000000
03FF00007E000000
07FC00007E000000
0FF800007E000000
0FF000007E000000
1FE000007E000000
1FC000007E000000
3FC000007E000000
3F8000007E000000
3F8000007E000000
7F0000007E000000
7F0000007E000000
7F0000007E000000
7E0000007E000000
FE0000007E000000
FE0000007E000000
FE0000007E000000
FE0000007E000000
FE0000007FFFFFF8
FE0000007FFFFFF8
FE0000007FFFFFF8
FC0000007FFFFFF8
FC0000007FFFFFF8
FC0000007FFFFFF8
FE0000007E000000
FE0000007E000000
FE0000007E000000
FE0000007E000000
FE0000007E000000
FE0000007E000000
FE0000007E000000
7F0000007E000000
7F0000007E000000
7F0000007E000000
3F8000007E000000
3F8000007E000000
3F8000007E000000
1FC000007E000000
1FE000007E000000
0FF000007E000000
0FF800007E000000
07FC00007E000000
03FE00007E000000
01FF80007E000000
00FFF001FFFFFFFC
007FFFFFFFFFFFFC
003FFFFFFFFFFFFC
000FFFFFFFFFFFFC
0003FFFFFFFFFFFC
0000FFFFFFFFFFFC
000003F800000000
ENDCHAR
STARTCHAR 0153
ENCODING 339
SWIDTH 938 0
DWIDTH 73 0
BBX 66 43 4 -1
BITMAP
0007FF80000FFE0000
003FFFE0007FFF8000
007FFFF800FFFFE000
01FFFFFC03FFFFF000
03FFFFFE07FFFFF800
07FE01FF0FF807FC00
0FF0007F8FE001FC00
0FE0001FDFC000FE00
1FC0000FDF80007F00
1F80000FFF00007F00
3F800007FE00003F00
3F000007FE00003F80
7F000003FE00003F80
7F000003FC00001F80
7E000003FC00001F80
7E000001FC00001FC0
7E000001FC00001FC0
FE000001FFFFFFFFC0
FE000001FFFFFFFFC0
FE000001FFFFFFFFC0
FE000001FFFFFFFFC0
FE000001FFFFFFFFC0
FE000001FC00000000
FE000001FC00000000
FE000001FC00000000
7E000001FC00000000
7E000001FC00000000
7E000001FC00000000
7F000003FC00000000
7F000003FE00000000
3F000003FE00000000
3F800007FF00000000
3F800007FF00000000
1FC0000FFF80000000
0FE0001FDFC0000000
0FF0003F8FE0000700
07FC00FF8FF8003F00
03FFFFFF07FFFFFF00
01FFFFFE03FFFFFF00
00FFFFFC01FFFFFF00
003FFFF0007FFFFE00
000FFFC0001FFFF000
0000FE000001FF0000
ENDCHAR
STARTCHAR 0154
ENCODING 340
SWIDTH 617 0
DWIDTH 48 0
BBX 38 74 8 0
BITMAP
00001FE000
00001FE000
00003FC000
00003F8000
00007F8000
00007F0000
0000FE0000
0001FC0000
0003F80000
0003F00000
0007E00000
000FC00000
000F800000
0000000000
0000000000
0000000000
0000000000
0000000000
FFFE000000
FFFFFF0000
FFFFFFE000
FFFFFFF800
FFFFFFFC00
FFFFFFFE00
FC001FFF00
FC0001FF80
FC00007F80
FC00003FC0
FC00001FC0
FC00001FC0
FC00000FC0
FC00000FE0
FC00000FE0
FC00000FE0
FC00000FE0
FC00000FE0
FC00000FE0
FC00000FC0
FC00001FC0
FC00001FC0
FC00001FC0
FC00003F80
FC00007F80
FC0000FF00
FC0007FE00
FFFFFFFC00
FFFFFFF800
FFFFFFE000
FFFFFF8000
FFFFFF0000
FFFFFF0000
FC003F8000
FC001FC000
FC001FC000
FC000FE000
FC000FE000
FC0007F000
FC0007F800
FC0003F800
FC0001FC00
FC0001FC00
FC0000FE00
FC0000FF00
FC00007F00
FC00003F80
FC00003FC0
FC00001FC0
FC00001FE0
FC00000FE0
FC000007F0
FC000007F8
FC000003F8
FC000003FC
FC000001FC
ENDCHAR
STARTCHAR 0155
ENCODING 341
SWIDTH 398 0
DWIDTH 31 0
BBX 24 60 7 0
BITMAP
0001FC
0003FC
0003F8
0007F8
000FF0
000FE0
001FC0
003F80
003F00
007E00
00FC00
01F800
01F000
000000
000000
000000
000000
000000
F803FF
F80FFE
F83FFE
F87FFE
F8FFFE
F9FF8E
F9F800
FFF000
FFC000
FF8000
FF8000
FF0000
FE0000
FE0000
FE0000
FC0000
FC0000
FC0000
FC0000
FC0000
FC0000
FC0000
FC0000
FC0000
FC0000
FC0000
FC0000
FC0000
FC0000
FC0000
FC0000
FC0000
FC0000
FC0000
FC0000
FC0000
FC0000
FC0000
FC0000
FC0000
FC0000
FC0000
ENDCHAR
STARTCHAR 0156
ENCODING 342
SWIDTH 617 0
DWIDTH 48 0
BBX 38 73 8 -17
BITMAP
FFFE000000
FFFFFF0000
FFFFFFE000
FFFFFFF800
FFFFFFFC00
FFFFFFFE00
FC001FFF00
FC0001FF80
FC00007F80
FC00003FC0
FC00001FC0
FC00001FC0
FC00000FC0
FC00000FE0
FC00000FE0
FC00000FE0
FC00000FE0
FC00000FE0
FC00000FE0
FC00000FC0
FC00001FC0
FC00001FC0
FC00001FC0
FC00003F80
FC00007F80
FC0000FF00
FC0007FE00
FFFFFFFC00
FFFFFFF800
FFFFFFE000
FFFFFF8000
FFFFFF0000
FFFFFF0000
FC003F8000
FC001FC000
FC001FC000
FC000FE000
FC000FE000
FC0007F000
FC0007F800
FC0003F800
FC0001FC00
FC0001FC00
FC0000FE00
FC0000FF00
FC00007F00
FC00003F80
FC00003FC0
FC00001FC0
FC00001FE0
FC00000FE0
FC000007F0
FC000007F8
FC000003F8
FC000003FC
FC000001FC
0000000000
0000000000
0000000000
0000000000
0000000000
0000FC0000
0001FC0000
0001F80000
0001F80000
0001F00000
0003F00000
0003E00000
0003E00000
0003C00000
0007C00000
0007800000
000F000000
ENDCHAR
STARTCHAR 0157
ENCODING 343
SWIDTH 398 0
DWIDTH 31 0
BBX 26 59 5 -17
BITMAP
3E00FFC0
3E03FF80
3E0FFF80
3E1FFF80
3E3FFF80
3E7FE380
3E7E0000
3FFC0000
3FF00000
3FE00000
3FE00000
3FC00000
3F800000
3F800000
3F800000
3F000000
3F000000
3F000000
3F000000
3F000000
3F000000
3F000000
3F000000
3F000000
3F000000
3F000000
3F000000
3F000000
3F000000
3F000000
3F000000
3F000000
3F000000
3F000000
3F000000
3F000000
3F000000
3F000000
3F000000
3F000000
3F000000
3F000000
00000000
00000000
00000000
00000000
00000000
1F800000
1F800000
3F800000
3F000000
3F000000
3E000000
7E000000
7C000000
7C000000
F8000000
F0000000
F0000000
ENDCHAR
STARTCHAR 0158
ENCODING 344
SWIDTH 617 0
DWIDTH 48 0
BBX 38 73 8 0
BITMAP
1F8001F800
0FC003F000
07F007E000
03F80FC000
01FC3F8000
00FE7F0000
007FFE0000
003FFC0000
003FFC0000
001FF80000
000FF00000
0007F00000
0000000000
0000000000
0000000000
0000000000
0000000000
FFFE000000
FFFFFF0000
FFFFFFE000
FFFFFFF800
FFFFFFFC00
FFFFFFFE00
FC001FFF00
FC0001FF80
FC00007F80
FC00003FC0
FC00001FC0
FC00001FC0
FC00000FC0
FC00000FE0
FC00000FE0
FC00000FE0
FC00000FE0
FC00000FE0
FC00000FE0
FC00000FC0
FC00001FC0
FC00001FC0
FC00001FC0
FC00003F80
FC00007F80
FC0000FF00
FC0007FE00
FFFFFFFC00
FFFFFFF800
FFFFFFE000
FFFFFF8000
FFFFFF0000
FFFFFF0000
FC003F8000
FC001FC000
FC001FC000
FC000FE000
FC000FE000
FC0007F000
FC0007F800
FC0003F800
FC0001FC00
FC0001FC00
FC0000FE00
FC0000FF00
FC00007F00
FC00003F80
FC00003FC0
FC00001FC0
FC00001FE0
FC00000FE0
FC000007F0
FC000007F8
FC000003F8
FC000003FC
FC000001FC
ENDCHAR
STARTCHAR 0159
ENCODING 345
SWIDTH 398 0
DWIDTH 31 0
BBX 25 60 6 0
BITMAP
F0000780
F8001F80
7E003F00
3F007E00
1F80FC00
1FC1F800
0FE3F000
07F7F000
03FFE000
01FFC000
00FF8000
00FF0000
007F0000
00000000
00000000
00000000
00000000
00000000
7C01FF80
7C07FF00
7C1FFF00
7C3FFF00
7C7FFF00
7CFFC700
7CFC0000
7FF80000
7FE00000
7FC00000
7FC00000
7F800000
7F000000
7F000000
7F000000
7E000000
7E000000
7E000000
7E000000
7E000000
7E000000
7E000000
7E000000
7E000000
7E000000
7E000000
7E000000
7E000000
7E000000
7E000000
7E000000
7E000000
7E000000
7E000000
7E000000
7E000000
7E000000
7E000000
7E000000
7E000000
7E000000
7E000000
ENDCHAR
STARTCHAR 015A
ENCODING 346
SWIDTH 540 0
DWIDTH 42 0
BBX 35 75 4 -1
BITMAP
000007F800
000007F800
00000FF000
00000FE000
00001FE000
00003FC000
00003F8000
00007F0000
0000FE0000
0000FC0000
0001F80000
0003F00000
0003E00000
0000000000
0000000000
0000000000
0000000000
0000000000
000FFFE000
007FFFFC00
01FFFFFF80
03FFFFFF80
0FFFFFFF80
0FFF8FFF80
1FF0003F00
3FC0000700
3F80000000
7F00000000
7F00000000
7F00000000
7E00000000
7E00000000
7E00000000
7E00000000
7F00000000
7F00000000
7F00000000
3F80000000
3FC0000000
1FE0000000
1FF8000000
0FFE000000
07FF800000
03FFF00000
01FFFE0000
007FFF8000
001FFFE000
0007FFF800
0000FFFC00
00001FFE00
000007FF00
000001FF80
0000007F80
0000003FC0
0000001FC0
0000001FE0
0000000FE0
0000000FE0
0000000FE0
0000000FE0
0000000FE0
0000000FE0
0000000FE0
0000000FC0
0000001FC0
0000003FC0
8000007F80
F00000FF80
FF0007FF00
FFFFFFFE00
FFFFFFFC00
FFFFFFF000
7FFFFFE000
0FFFFF0000
007FC00000
ENDCHAR
STARTCHAR 015B
ENCODING 347
SWIDTH 475 0
DWIDTH 37 0
BBX 30 61 4 -1
BITMAP
00003FC0
00007F80
00007F80
0000FF00
0000FE00
0001FC00
0003F800
0003F000
0007E000
000FC000
001F8000
001F0000
003E0000
00000000
00000000
00000000
00000000
00000000
007FFE00
03FFFFE0
0FFFFFF8
1FFFFFF0
3FFFFFF0
7FC007E0
7F0000E0
FE000000
FC000000
FC000000
FC000000
FC000000
FE000000
FE000000
7F000000
7FC00000
3FF00000
1FFE0000
0FFF8000
07FFF000
01FFFC00
003FFF00
000FFFC0
0001FFE0
00007FF0
00001FF0
000007F8
000003F8
000001F8
000001FC
000001FC
000001FC
000001F8
000001F8
000003F8
E00007F8
FC000FF0
FFE1FFE0
FFFFFFE0
FFFFFF80
7FFFFF00
1FFFFC00
00FF8000
ENDCHAR
ENDFONT
